<svg xmlns:xlink="http://www.w3.org/1999/xlink" xmlns="http://www.w3.org/2000/svg" viewBox="0 0 66.996 77.248" width="66.996"  height="77.248" ><g data-name="Layer 2"><path d="M62.154 67.08h-.889v2.42h-.6v-2.42h-.889v-.525h2.38zm4.032 2.42h-.6v-2.343h-.016l-.854 2.343h-.581l-.826-2.345H63.3V69.5h-.6v-2.945h1.043l.686 1.926h.014l.714-1.926h1.036z" fill="#fff"/><path fill="#002d6a" d="M66.996 3.464H46.36l-5.83 11.967L33.67 0H8.619l6.939 10.252h-4.919l7.374 9.125L0 56.849l24.01-7.468 5.425-11.076 31.774 38.943-13.223-35.25 19.01-38.534z"/><path fill="#a30134" d="M64.023 5.315H47.518l-7.106 14.407-7.967-17.923H12.082l6.855 10.253h-4.528l5.766 7.098L3.51 53.818l19.184-5.967 6.378-13.011L57.23 70.129 45.944 41.952 64.023 5.315z"/><path fill="#002d6a" d="M61.921 6.625H48.336l-8.013 16.319-8.664-19.691H14.645l6.958 10.217h-4.226l4.372 5.434-15.754 32.77 15.773-4.908 7.048-14.379L52.32 62.022l.932.985-8.728-21.031L61.921 6.625z"/><path d="M59.572 8.09h-10.32L39.9 27.566l.889 4.3-4.117-8.477h2.3l-8.235-18.7H17.4l6.876 10.191h-3.942l5.791 7.2L23.063 20 8.771 49.276l11.961-3.721 9.289-18.625 4.024 5h-3.782l18.756 23.924-5.98-13.616z" fill="#fff"/><path fill="#d59f0f" d="M40.662 42.162l3.443 6.168 1.562 1.991-3.499-8.151L58.339 8.859h-1.497l-16.18 33.303zM25.853 23.397l2.021 3.086-8.724 17.494-8.038 2.384-.864 1.65 9.942-3.091 9.2-18.462-3.537-3.061zm14.144 8.634l-4.398-9.413h2.188L30.234 5.464h-1.21l7.059 16.079H33.69l6.307 10.488z"/></g></svg>