<svg xmlns:xlink="http://www.w3.org/1999/xlink" xmlns="http://www.w3.org/2000/svg" viewBox="0 0 73.4 72" width="73.4"  height="72" ><g data-name="Layer 2"><path d="M15.82 35.78a13.77 13.77 0 0 0-3.63.51l-.27.07-.36.1-.21.24 1.39 2 1-.28a14.06 14.06 0 0 1 3.71-.52 13.69 13.69 0 0 1 6 1.43c.05-.27.12-.58.24-1a15 15 0 0 0-7.82-2.48M39 41.33a27.12 27.12 0 0 1-3.24-.2c-.29 1-.44 1.65-.64 2.48l-.48 1.93-.07.29c-.9 3.56-2.41 9.51-5.46 14.09-3.63 5.42-7.81 8.21-14.45 9.63a17.12 17.12 0 0 1-3.47.37 13.13 13.13 0 0 1-9-3.33 10.92 10.92 0 0 0 1.28 1.64A12.66 12.66 0 0 0 12.8 72a16.46 16.46 0 0 0 3.4-.36c6.56-1.4 10.69-4.15 14.26-9.49 3-4.53 4.52-10.45 5.42-14l.07-.29.47-1.92.75-2.81a21.39 21.39 0 0 0 9-.54 25.43 25.43 0 0 1 .37-2.83A17.55 17.55 0 0 1 39 41.33m32.8 1.43v.09c-.24.53-6 12.89-15.52 12.89a11.44 11.44 0 0 1-3.6-.6 8.62 8.62 0 0 1-2.86-1.59 8.3 8.3 0 0 0 4.58 3.7C65.68 61 72.8 45.78 73.1 45.13l.3-.66z" fill="#d31245"/><path d="M16.6 53.85v.43a5.48 5.48 0 0 1-2 3.87 6.09 6.09 0 0 1-3.78 1.5h-.57a4.24 4.24 0 0 1-1.47-.48 3.76 3.76 0 0 0 3.13 2.58h.44A5.76 5.76 0 0 0 16 60.33a5.91 5.91 0 0 0 1.1-1.23 4.81 4.81 0 0 0 .81-2.4v-.38a6 6 0 0 0-1.52-3.84 7.5 7.5 0 0 1 .2 1.35zm41.09-8.19a2 2 0 0 0 1 .84 11.58 11.58 0 0 1 .51-3.5C62.54 31.65 71.71 3 71.8 2.74l.53-1.66-2.18.32c-1.64 5.13-9.29 29.13-12.28 39.32-.84 2.87-.57 4.27-.19 4.94M4.5 60.24a6.14 6.14 0 0 1 1-3A6.28 6.28 0 0 1 6.69 56v-.22A3.79 3.79 0 0 1 8.24 53a5 5 0 0 1 2.24-1 3.46 3.46 0 0 0-.59 0A5.65 5.65 0 0 0 9 52a8.44 8.44 0 0 0-4.9 3 5.85 5.85 0 0 0-.92 2.87v.31a5.92 5.92 0 0 0 1.5 3.74 5.61 5.61 0 0 1-.19-1.32v-.35M54.38 14l1-3.12C48.21 13.31 43.3 18.09 39.19 32a18.08 18.08 0 0 0 1.82.76C44.56 21.54 48.72 16.64 54.38 14" fill="#d31245"/><path d="M69.4 41.12c-2.35 5.28-7.58 7.69-10.52 6.93-3.62-.93-3.24-4.65-2.34-7.73C59.92 28.79 69.14 0 69.14 0 57.21 1.9 48.79 1.84 39.69 10.73a45.87 45.87 0 0 0-12 19.86 19 19 0 0 0-5.42-.89 14.72 14.72 0 0 0-11 4.45l-.2.22.46.65.26-.07a15.12 15.12 0 0 1 4-.56 17.23 17.23 0 0 1 9.43 3.24A20.11 20.11 0 0 0 24.7 40a18.73 18.73 0 0 1-.49 2.09l-1.33 5a71 71 0 0 1-2.81 9.31C18.35 60.54 15.6 64 12 64.84a12.24 12.24 0 0 1-2.76.34 7.13 7.13 0 0 1-7.41-7v-.38a7.25 7.25 0 0 1 1.14-3.58 9.84 9.84 0 0 1 5.82-3.6 6.88 6.88 0 0 1 1.1-.09A3.65 3.65 0 0 1 13.57 53a2.33 2.33 0 0 1 .12.84 1.68 1.68 0 0 1-.09.47l-.17-.16-.49-.34a3.27 3.27 0 0 0-3.82.25 2.42 2.42 0 0 0-1 1.75v.33a2.62 2.62 0 0 0 2.31 2.09h.38a4.7 4.7 0 0 0 2.88-1.16 4.11 4.11 0 0 0 1.54-2.88v-.33c-.23-2.86-2.11-4.53-5.17-4.55a10.33 10.33 0 0 0-1.69.15c-4.8.78-8 5.21-8.3 8l-.07.59c-.27 5.61 4.44 10.45 11.18 10.46a15.8 15.8 0 0 0 3.18-.34c6-1.29 10.06-3.76 13.58-9 3-4.5 4.5-10.6 5.34-13.94l.47-1.92c.26-1.09.44-1.81 1-3.68 7.27 1.15 11.5-.69 14-2.9-.08.3-.17.6-.25.88-2.33 8.3-.5 14.59 4.54 16.26 10.56 3.44 17.45-11.6 17.45-11.6zm-19.61-7.85c-3.46 3.18-9.3 1.11-12.26-.59 4.94-17.4 11.12-21.59 19.93-23.9-2.34 7.63-5.54 17.46-7.67 24.49" fill="#002b5c"/><path fill="#d31245" d="M27.29 34.62l1.68 7.79 5.76-6.08-1.68-7.79-5.76 6.08z"/><path fill="#002b5c" d="M71.14 57.06h-.01l-.55-1.56h-.85v2.39h.49v-1.9h.01l.67 1.9h.47l.69-1.9h.01v1.9h.49V55.5h-.84l-.58 1.56zm-3.77-1.14h.72v1.97h.49v-1.97h.71v-.42h-1.92v.42z"/></g></svg>