<svg xmlns:xlink="http://www.w3.org/1999/xlink" xmlns="http://www.w3.org/2000/svg" viewBox="0 0 70.57 72" width="70.57"  height="72" ><g fill="#005596" data-name="Layer 2"><path d="M21.93 21.84a10.17 10.17 0 0 0-1.53-3.07 10.18 10.18 0 0 0 1.53-3.07 9.11 9.11 0 0 0 1.53 3.07 5.47 5.47 0 0 1 2.95-.16c-2.66-2.9-.37-7.53-4.23-13.86A9.81 9.81 0 0 0 13.33 0h-.12a9.81 9.81 0 0 0-8.84 4.75C.44 11.2 3 15.74 0 18.77c3 3 .44 7.58 4.37 14a9.81 9.81 0 0 0 8.84 4.75h.12a9.81 9.81 0 0 0 8.84-4.75c2.89-4.74 2.33-8.53 3-11.35a13.9 13.9 0 0 0-1.7-2.67 9.11 9.11 0 0 0-1.54 3.09zm-17.24 0a10.12 10.12 0 0 0-1.53-3.07 10.13 10.13 0 0 0 1.53-3.07 9.13 9.13 0 0 0 1.53 3.07 9.13 9.13 0 0 0-1.53 3.07zm8.58 11.31C7 33 5.88 22.91 9.38 18.77 5.88 14.63 7 4.57 13.27 4.4c6.26.17 7.59 11 3.89 14.38 3.7 3.41 2.37 14.22-3.89 14.37z"/><path d="M45.33 50.18a17.2 17.2 0 0 1-2.23-8.28s-5.62-.64-5.62-5.19 5.62-5.19 5.62-5.19c.9-7.38 3.44-10.32 5.41-12.74a5.15 5.15 0 0 0-5 .88 5.15 5.15 0 0 0-5-.88c2 2.42 2.14 4.93.39 9-1.35 3.13-5.17 5.43-7.46 6.06a15.56 15.56 0 0 1-1-6.06 14.18 14.18 0 0 1 3.16-9 5.15 5.15 0 0 0-5 .88 4.78 4.78 0 0 0-2.09-1 5.47 5.47 0 0 0-2.95.16 13.9 13.9 0 0 1 1.7 2.67 14.29 14.29 0 0 1 1.46 6.31c0 3.42-.53 6.54-2.48 8.95 2 2.41 2.48 5.53 2.48 8.95a13.88 13.88 0 0 1-3.16 8.87 5.15 5.15 0 0 0 5-.88 5.15 5.15 0 0 0 5 .88 13.89 13.89 0 0 1-3.16-8.87 15.73 15.73 0 0 1 .95-5.91c2.27.56 6.15 2.75 7.51 5.91 1.75 4 1.58 6.57-.39 9a5.15 5.15 0 0 0 5-.88 11.82 11.82 0 0 0 1.86-3.64zM28.39 39.77a10.14 10.14 0 0 0-1.53-3.07 10.12 10.12 0 0 0 1.53-3.07 9.09 9.09 0 0 0 1.53 3.07 9.11 9.11 0 0 0-1.53 3.07z"/><path d="M67.75 36.94a10.39 10.39 0 0 1-5.2-.89c-3-1.42-14.88-1.63-16.42 10.4a20.4 20.4 0 0 1-.8 3.74 11.82 11.82 0 0 1-1.86 3.57 9.29 9.29 0 0 1 2.21 6C45.7 65.85 50.13 72 57.2 72s11.5-6.44 9.15-11.32c-2.27-4.68-7.45-1.95-7.45-1.95s4 .43 3.49 5.13c-.23 2-2.59 4-4.9 4-4.17 0-6.26-3.66-6.27-8.07A10.34 10.34 0 0 1 53 53.76a9.92 9.92 0 0 1-1.79-5.89c0-4.29 3.13-8.4 6.39-8.41.79 0 3.77-.17 4.8 1.65 0 0 1.27 1.39.32 5.11 0 0 5.06-2.26 2.79-6.59-.02-.01 2.41-1.14 2.24-2.69zM48.33 56.82a10.1 10.1 0 0 0-1.53-3.06 10.11 10.11 0 0 0 1.53-3.07 9.09 9.09 0 0 0 1.53 3.07 9.1 9.1 0 0 0-1.53 3.06zm20.91 14.4h-.01l-.52-1.47h-.79v2.24h.45v-1.78h.02l.62 1.78h.45l.65-1.78h.01v1.78h.45v-2.24h-.78l-.55 1.47zm-3.55-1.07h.68v1.84h.46v-1.84h.67v-.4h-1.81v.4z"/></g></svg>