<svg xmlns:xlink="http://www.w3.org/1999/xlink" xmlns="http://www.w3.org/2000/svg" viewBox="0 0 98.2 80.3" width="98.2"  height="80.3" ><path d="M96.9 48.1c-2.5-.7-5.1-1.6-7.5-2.4l-6.1-2c-.4-.6-.9-1.2-1.5-1.6-.3-.3-.6-.5-.9-.7l5.5-2.1 10.6-4 .2-.9.2-1-.4-.6c-3.8-6.2-9-11.3-14.3-14-2-1.2-4.2-2.3-6.4-3.1l-1.3-.5h-.1c-4.7-1.6-10.2-3.3-16.2-3.5-3.7-.3-7.4-.3-11.2.1-.1 0-.2-.1-.2-.1l-1.3-.3c-3-.8-6.1-1.3-9.2-1.5-.6-.2-1.2-.2-1.8-.2-.3 0-.6 0-.9-.1C31.3 6 27.8 2.3 23.4 1c-.9-.4-1.8-.6-2.8-.8l-.8-.2h-1.2c-1.2-.1-2.3.1-3.4.5-1.9.8-3.4 2.2-4.3 4l-.1.2-.1.2c-.3 1-.5 2.1-.5 3.2 0 2.4.7 4.7 1.9 6.8.2.4.3.8.3 1.2-.1 1.2-.5 2.3-1.1 3.3-.9 1.5-1.4 3.2-1.5 5 0-.1.1 1.4.1 1.4v.1c-2.9 2.7-5.3 5.8-7.1 9.3C1.5 37.8.7 40.7.4 43.6c-.3.7-.4 1.3-.4 2v2.7C.4 56 5 63.5 12.7 69.1l-.2.5c-.5 1.3-1.2 2.5-2.1 3.6l-1.7.7h-.5c-1.3-.1-2.6.6-3.3 1.7-.3.4-.4.8-.4 1.2v.5c.2.8.8 1.5 1.5 1.8 1.3.6 2.8.6 4.1.2l.9-.2h.2c3.3-1.3 6-3.7 7.6-6.9 8.8 3.5 18.3 5.3 27.8 5.1 8.4-.3 16.7-1.8 24.6-4.5l.7-.3.2-.1 1.2 1.7.1.1c2.4 2.5 6.1 5.9 11.1 6h.1l.9-.1c1.2-.1 3.1-.3 4.1-2l.3-.4v-.5c0-1.1-.7-2-1.8-2.3h-.6c-1.3.2-2.6.1-3.9-.3-1.8-.6-3.6-2.3-5.3-4.9 4-1.9 7.7-4.4 11-7.3 3.9-3.2 6.6-7.6 8.8-11.5l.2-.4v-2.2l-1.4-.2z" fill="#fff"/><path d="M93.4 64.3h-.8v2.2h-.5v-2.2h-.8v-.5h2.2l-.1.5zm3.7 2.2h-.6v-2.1l-.8 2.1h-.5l-.8-2.1v2.1h-.6v-2.7h.9l.6 1.7.7-1.8h.9v2.8z" fill="#231f20"/><path d="M19.6 1.7c1.1.2 2.2.5 3.2.9 4.2 1.2 7.6 5 10.3 8.3 1.2.6 2.3.1 3.5.6 3.1.2 6.2.7 9.2 1.5.7 0 1.2.5 2 .5 3.6-.4 7.3-.4 10.9-.1 5.5.2 10.7 1.7 15.8 3.4 2.6 1 5.1 2.1 7.4 3.5 5.6 2.9 10.4 8.1 13.7 13.4v.2c-5.9 2.4-12 4.4-18 6.8-.3.2-.1.5-.1.8 1.2.4 2.4 1.1 3.4 1.9.6.4 1.1 1 1.5 1.7 4.8 1.4 9.4 3.2 14.2 4.6v.4c-2.2 4-4.7 8.1-8.4 11.1-3.6 3.1-7.5 5.7-11.8 7.7l-.3.4c1.5 2.7 3.8 6.1 7 7 1.5.5 3.1.6 4.6.4.3.1.5.3.5.6-.7 1.2-2.3 1-3.6 1.2-4-.1-7.2-2.6-9.9-5.5l-1.8-2.4c-.8-.2-1.5.3-2.2.6a84.8 84.8 0 0 1-24 4.4c-9.8 0-19.6-1.6-28.1-5.3-.4-.1-.7.3-.9.6-1.4 2.9-3.8 5.7-6.9 6.6-1.3.2-2.7.8-3.9.1-.4-.2-.7-.7-.4-1 .6-1.2 2.1-.7 3.1-1l2.1-.9c1.6-1.7 2.3-3.9 3.2-5.9v-.2C8 63.9 2.2 56.6 1.8 48.2c.2-1.4-.3-2.9.3-4.2.3-2.8 1-5.4 2.3-7.9 1.8-3.5 4.3-6.7 7.3-9.4.2-.6-.2-1.4-.1-2.1.1-3.6 3.9-6.4 2.3-10.2-1.6-2.6-2.1-5.8-1.4-8.8.8-1.5 2-2.6 3.5-3.3 1-.7 2.3-.5 3.6-.6z" fill="#fff"/><path d="M19.6 1.7c1.1.2 2.2.5 3.2.9 4.2 1.2 7.6 5 10.3 8.3 1.2.6 2.3.1 3.5.6 3.1.2 6.2.7 9.2 1.5.7 0 1.2.5 2 .5 3.6-.4 7.3-.4 10.9-.1 5.5.2 10.7 1.7 15.8 3.4 2.6 1 5.1 2.1 7.4 3.5 5.6 2.9 10.4 8.1 13.7 13.4v.2c-5.9 2.4-12 4.4-18 6.8-.3.2-.1.5-.1.8 1.2.4 2.4 1.1 3.4 1.9.6.4 1.1 1 1.5 1.7 4.8 1.4 9.4 3.2 14.2 4.6v.4c-2.2 4-4.7 8.1-8.4 11.1-3.6 3.1-7.5 5.7-11.8 7.7l-.3.4c1.5 2.7 3.8 6.1 7 7 1.5.5 3.1.6 4.6.4.3.1.5.3.5.6-.7 1.2-2.3 1-3.6 1.2-4-.1-7.2-2.6-9.9-5.5l-1.8-2.4c-.8-.2-1.5.3-2.2.6a84.8 84.8 0 0 1-24 4.4c-9.8 0-19.6-1.6-28.1-5.3-.4-.1-.7.3-.9.6-1.4 2.9-3.8 5.7-6.9 6.6-1.3.2-2.7.8-3.9.1-.4-.2-.7-.7-.4-1 .6-1.2 2.1-.7 3.1-1l2.1-.9c1.6-1.7 2.3-3.9 3.2-5.9v-.2C8 63.9 2.2 56.6 1.8 48.2c.2-1.4-.3-2.9.3-4.2.3-2.8 1-5.4 2.3-7.9 1.8-3.5 4.3-6.7 7.3-9.4.2-.6-.2-1.4-.1-2.1.1-3.6 3.9-6.4 2.3-10.2-1.6-2.6-2.1-5.8-1.4-8.8.8-1.5 2-2.6 3.5-3.3 1-.7 2.3-.5 3.6-.6z" fill="#231f20"/><path d="M30.4 12.9c0 .2-.2.4-.4.4h-.2c-.8-1.2-1.9-2-2.8-3.1-1-.6-2-1.6-3-2.3-1.4-.9-3-1.7-4.6-2.3-.4.1-.3.5-.1.7 3.5 1.6 6.6 3.9 9 6.9.1.3-.1.4-.4.4-1.4.4-1.9-1.2-3-1.8-1.9-1.3-3.9-2.4-6-3.3-.7-.2-1.4-.9-2.1-.7-.1.1-.1.3-.1.5 3.2 1.3 6.2 3.1 8.9 5.2.1.2.3.4.1.6-.8.4-1.8.2-2.5-.5-1.9-1.2-3.9-2.1-6-2.9-.2.1-.5.3-.5.5.3.8 1.2.5 1.8 1 .7.3 1.6.4 2.1 1 .9.4 1.8 1 2.5 1.6l-.2.3c-1.7-.3-3.2-1.2-5-1.3-.2.2-.5.5-.3.7 1.4.5 3.1.6 4.4 1.4-.3 1.4-1.7.1-2.6.3-.5-.1-1-.3-1.4 0-.1.1-.1.3-.1.4l.2.2c1.1 0 2.2.1 3.2.5.1.1.1.3 0 .5l-.3.1c-1.2.1-2.6-.5-3.5.4.5.7 1.5.2 2.3.3.6.1 1.2-.1 1.6.5.1.7-.6.3-1 .6-1.4.4-3.3-.1-4.4 1.2l.3.3c1.8-.6 3.7-.8 5.5-.7.2.2.3.4.3.7-2 1-4.3 1.2-6.4 1.8-.1.2-.5.4-.3.6l.3.1 3.6-.9c.2.1.2.3.1.5 0 0 0 .1-.1.1-1.4.9-2.7 1.8-4.1 2.5-.5.1-1-.2-1.1-.7v-.1c-.7-2.6 1.1-4.6 1.8-6.8.4-1.2.4-2.6.1-3.8-.9-2.5-2-6.2-.2-8.8 1.2-1.6 3.6-1.5 5.4-1 3.9 1.2 7.3 4.7 9.1 8.3l.1-.1z" fill="#9fa1a4"/><path d="M43.3 15.4c0 .1.1.2.3.2-1.1.3-2.3.5-3.5.7-2 .3-3.7.7-5.6 1.1-3.3 1-6.6 2.1-9.8 3.4-.5.1-1-.1-1.4-.4-.8-1-1-2.4-.6-3.6 1.4-2.1 4-2 6.1-2.5 1.6-.3 3.3-.3 5-.1 2 0 4.1.2 6 .5 1.2.1 2.4.4 3.5.7z" fill="#9fa1a4"/><path d="M64 16.8c7.9 1.5 15.3 4.3 21.6 9.5 2.2 1.8 4.1 3.8 5.9 6.1-.2.8-1.2.5-1.8.9-4.4 1.8-8.9 3.2-13.3 5.1-.8.3-1.2-.6-1.8-.8-3.6-2.8-7.6-5-11.9-6.4l-.1-.2c2.2-2.4 5.3-4.8 4.4-8.5-.2-.2-.3-.5-.5-.6-1 .2-1.3 1.2-1.5 2-1.3 2.6-3.3 4.8-5.9 6.2-2.3.1-4.4-.6-6.6-.5-2.6-.2-5.3-.1-7.9.2-.6.1-1.2.2-1.8.2l-2.4-4.2c-.6-1.6.3-2.9.6-4.3 0-.4-.3-.6-.7-.7-1 0-1.6 1.2-1.9 2-.3 2.5.4 4.9 1 7.3.1.6-.6.6-1 .8-3.7.8-7.4 2.2-10.8 3.9l-2.9 1.9c-1.1.9-2.1 2-3 3.1-1.9 1.6-2.6 4.2-3.1 6.6-1.1 1.6-2.3 3.2-2.2 5.3-.1 1.8 1.2 3.2 2.6 4.2.3.3.1.8 0 1.1-1.4 2.8-2 5.9-2.9 8.9-.3.3-.6-.1-.9-.2-4.7-3.6-8.8-8.4-10.2-13.9-.4-.6-.3-1.4-.5-2.2-1.4-7.4 2.1-14.1 6.8-19.4 1.5-1.8 3.4-3.3 5.5-4.4 5.6-4 12-6.5 18.7-8.1 5.3-1.2 10.7-1.9 16.1-2.1 4.2.1 8.3.5 12.4 1.2z" fill="#ef3e42"/><path d="M64.1 27.6c-.4 2.3-2.7 3.8-4.5 4.9-.8 1-2.1 2-1.9 3.5h.2l1.6-2.2.6-.1c4.4 1.4 8.8 3.2 12.2 6.8.5.7 1.2 1.2 1.2 2-.6.4-1.4 0-2.1-.1-.7-.4.1-1-.2-1.6-1-2.3-3.4-3.6-5.7-4.4-2-.7-4.5-.9-6.2.2-.5.4-.9.9-1 1.6-.1.8.3 1.5.8 2 1.1.9 2.7 1.1 4 1.5 2.8.8 5.6 1.3 8.5 1.3 3.2.9 7.2 1.1 9 4.4.8 2 .4 4.3-1 5.9-1.8 2-4.3 3.2-7 3.3-.5-.1-1-.2-1.2-.8l.1-.3c1-.7 2-1.1 3-1.7.1-.2.5-.3.3-.7-1.1.4-2.1.8-3.1 1.4l-1.3.5c-.5-.7-.7-1.5-.8-2.3 2-1.1 4.3-1.7 6.2-3 .3-.1.5-.1.6.2s-.1.8.3 1c.2 0 .5-.1.5-.3.2-.6 0-1.2-.4-1.7-1.1-1-2 .6-3.1.8-1.7.7-3.5 1.2-5.3 1.8l-.1.3c1.5 4.5 4.2 8.7 4.4 13.7-.7.3-1.1-1.2-1.8-.6l-.5-.5c-1.8-3.8-2.9-8.3-6.5-11.1-7.3-2.8-15-3.2-23-3.1-4.6.2-9.2.7-13.7 1.6-1.2.5-2.3 1.4-3.1 2.4-2.3 2.6-3.2 5.9-4.3 9l-.2.2c-.7-.4.2-1.4-.6-1.6-.3.1-.5.4-.8.2.5-3.8 2.3-7.3 4.2-10.5.1-.5-.3-.6-.6-.7-.8-.2-1.6-.5-2.4-.9-.6.2-.9.8-1.1 1.4 0 .2 0 .5.3.5.6-.2.5-1.2 1.4-.7.5.1 1.1.3 1.5.7-.3.9-.8 1.7-1.4 2.4-.5.1-1.1-.3-1.6.2-.6-.1-1.1-.8-1.4-1.4-.6-2.5.3-5.1 2.4-6.6 4-3.1 9-3.5 13.7-5 .8-.5 1.9-.6 2.8-1 .6-.4 1.4-.7 1.8-1.4.3-.8.2-1.6-.3-2.3-1.6-1.5-3.8-.9-5.6-.3-1.4.7-2.7 1.5-3.9 2.4-.9 1-2.1 2.2-1.4 3.5-.2.7-1 .3-1.5.6-.3-.1-.7-.1-.7-.5 1-2.8 4-4.8 6.4-6.3 2.6-1.2 5.2-2.2 8-2.8.4-.1.7.2.7.6.3 1-.7 1.7-.1 2.5.3 0 .5-.3.5-.5.3-.8.4-1.5.4-2.3.1-2-.6-4-.3-5.9.3-.2.5.1.7.3.7 1.6 2 2.9 2.1 4.7.1.7-.2 1.6.6 1.8.7-.5-.3-1.8.8-1.9 3.5-.4 7.1-.2 10.6.4.3.6-.8 1-.3 1.6 1.8-1.6 3.8-3.2 5.8-4.5 1.1-.9 2.2-1.5 3.3-2.5.2-.4.5-.4.5 0z" fill="#9fa1a4"/><path d="M63.9 36.8c-.1.5-.8.5-1 .8-.7.7-1 1.7-.8 2.7-1.2 0-2.3-.7-2.9-1.8-.3-.4 0-.8.1-1.2 1.3-.9 3.1-.8 4.6-.5zm-26.8.9c.1.5-.1 1-.5 1.3-.5-.3-.4-1-.8-1.4-.3-.5-.7-.1-.9 0-.1.2-.4.3-.7.3.1-.5.3-1 .7-1.4.8.2 1.9.2 2.2 1.2zm-6.9 1.6c0 .7-.3 1.3 0 1.9l-.1.3c-.8.3-1.6.5-2.5.5-.5-.2.2-.7-.3-.9.3-1.3 1.4-2 2.4-2.8l.8-.4c.3.5-.2.9-.3 1.4zm40.1 1.4c0 .5.3 1-.3 1.3-.6.1-1.3 0-1.9-.1.1-.8.4-1.9-.1-2.7-.1-.3-.3-.5-.6-.5-.7.1-1.3.3-1.8.7 0-.8.9-1 1.4-1.2 1.4.3 2.6 1.2 3.3 2.5z" fill="#fff"/><path d="M38.8 44.7c-.1-.1-.3-.2-.5-.2h-.1c-.2-.1-.3.1-.6-.1h-.3c-.5.1-1.2.3-1.4.8 0 .5.5.5.7.6.8-.1 2 .1 2.5-.6 0-.2-.1-.3-.3-.5zm14.9.4c-.8-.4-1.7-.4-2.5-.2-.3.1-.5.4-.4.7.4.2.9.4 1.4.4.7 0 1.4.4 2-.1l.1-.3v-.1c-.2-.1-.4-.3-.6-.4zm-1.9 1.6c.5.3 1.2-.1 1.8.1 1.3.3 2.7.3 4 .6.1.1.5.3.3.5l-.2.1c-7.9-1.2-16.3-1.8-24.3-.4-.4.1-1 .4-1.2-.1l.1-.2c6.2-1.4 13.1-1 19.5-.6z" fill="#231f20"/><path d="M92 51.5l-.1.6c-2.5 4.2-6 7.8-10.1 10.3-2.2 1.6-4.5 2.8-7 3.8-1.1-1.9-1.6-4.2-2.5-6.3-.1-.7-.8-1.2-.5-1.9 3.8-1 8.3-2.7 9.7-6.8 0-1 .3-2 .7-2.9 3.2 1 6.5 2 9.8 3.2z" fill="#ef3e42"/><path d="M61.8 54.1c1.4-.2 2.8.4 3.5 1.6.2.3.2.7 0 1-2.2.9-4.5 1.5-6.8 1.7-2.2 1.3-2.2 4-2.7 6.2-.3-.1-.1-.8-.7-.8-.2.1-.5 0-.6-.2v-.1c-.5-1.6.3-3.8-1.5-4.8-2.1-.4-4.2-.7-6.4-.9-3.6-.1-7-.3-10.7-.3-.9 0-1.7.5-2.1 1.3-.5 1.4.1 2.9-.4 4.2-.3-.1-.3-.4-.6-.6-1.8-1.2-1.2-3.7-2.8-5s-4-.6-5.3-2.1c.3-1.2 1.6-2 2.7-2.5 11.4 1.6 22.6 1.3 34.4 1.3z" fill="#9fa1a4"/><path d="M30.7 59.3c.5 1.8 1.3 3.5 1.8 5.3.4 1.4-.4 2.3-.9 3.4.1.3.2.8.6.8 1-.2 1.9-1 2.1-2 .7-2.5-.5-4.8-.1-7.4.3-.3.3-1 .8-1 4.9 1.2 10 1.6 15.1 1.1 1.2.3 3-1 3.5.6.2 3.1-.3 7.2 3.1 8.7.3 0 .6-.2.8-.5.1-.7-.8-1.1-1-1.7-.6-1.6-.1-3.2.3-4.8.5-.9.5-2.2 1.6-2.8 2.1-.3 4.2-.7 6.3-1.2l2.3.5c1.1 1.6 1.4 3.6 2.3 5.3.6 1.5 1.4 2.9 2 4.4-.6.4-1.3.7-2 .8-5.9 2.2-12 3.5-18.2 3.9-10.1.9-20.3-.5-29.7-4.2-.5-.1-1-.3-1.5-.6l-.6-.3c1.1-3.5 2.3-6.9 3.7-10.3.2-.3.5-.2.8-.3 2.4.4 5.8-.6 6.9 2.3z" fill="#ef3e42"/><path d="M40.1 44.7c-1 .9-1-.3-1.9-.2-.3-.1-.3.2-.8-.2.5-1.5.9-1.1 1.5-1.2.6.1 1 .7 1.2 1.6zm14.9.4c-1 .9-.9 0-1.7-.3-.4 0-.7-.1-1-.3.5-1.5.9-.8 1.5-1 .6.1 1 .7 1.2 1.6zm-25.2 8c-.8.2-2.4-.5-2.7.3-.9 1.7.9 2.2 1.3 2.3 1.3-.2 2.7 0 3.5-1.6 0-.3-.2-.6-.4-.8l-1.2-.1c-.2-.1-.3-.1-.5-.1zm39.2-2c-1 .7-2.1 1.1-3.3 1.2-.4-.1-.7-.5-.8-1.5-.1-.3.2-1.2.4-1.2 1.1-.2 3.1.2 3.7 1.2v.3zm11.7-3.7c-1.9-3.3-5.8-3.5-9-4.4-2.7-.1 4.4 2 1.9 3.8 1.7-.6 5.1-1.4 7.1.6zM22.8 16.8c1.4-2.1 4-2 6.1-2.5 1.6-.3 3.3-.3 5-.1 2 0 4.1.2 6 .5 1.1.2-8.6-1.6-17.1 2.1zM44 32.5c-.1 0-.3.1-.4.2 7.8.5 10.5 1.5 10.5 1.5 0-.4.6-.8.4-1.2-3.4-.7-7-.9-10.5-.5zM33.9 47.6c6.6-.8 18.1-.1 23.7.5-7.6-1.2-15.9-1.8-23.7-.5z" fill="#fff"/></svg>