<svg xmlns:xlink="http://www.w3.org/1999/xlink" xmlns="http://www.w3.org/2000/svg" viewBox="0 0 72 58.314" width="72"  height="58.314" ><path d="M66.757 52.141h-.61v1.664h-.414v-1.664h-.613v-.359h1.637v.359zm2.771 1.664h-.414v-1.61h-.01l-.588 1.61h-.398l-.568-1.61h-.008v1.61h-.416v-2.023h.719l.471 1.322h.008l.492-1.322h.713v2.023z" fill="#fff"/><path d="M27.105 58.314c-3.315 0-5.886-.378-7.823-1.154a12.42 12.42 0 0 1-1.188.055c-1.381 0-2.725-.168-4.001-.497C3.251 54.004.171 43.221.142 43.117a5.866 5.866 0 0 1-.066-.207c-.05-.183-.076-.673-.076-.865 0-.112.009-.383.026-.497.6-3.809 3.977-7.794 6.248-10.081 1.58-6.471 6.824-10.467 9.998-12.893.521-.379 1.201-.892 1.686-1.323 0-.106-.002-.233-.01-.378-.197-7.31 5.204-11.512 7.537-12.98.995-.577 1.961-.85 2.934-.85 2.648 0 4.877 2.029 4.98 4.523.009.225.022.404.036.554.534.2 1.045.436 1.539.694 2.022-.713 5.42-1.558 10.19-1.558h1.033c4.267 0 8.622-3.049 11.226-4.871.438-.295.78-.521 1.092-.742C60.221.514 61.716 0 63.167 0c2.043 0 4.832.984 6.492 5.689 3.771 10.695.721 17.219-1.836 20.445 4.613 6.484 5.158 15.062 2.841 19.818-2.828 5.808-11.513 7.266-22.507 9.107 0 0-5.776 1.03-7.837 1.425-4.844.947-9.423 1.83-13.215 1.83z" fill="#d31245"/><path d="M27.105 56.061c-3.245 0-5.765-.391-7.474-1.211-.404.049-.898.103-1.537.103a13.64 13.64 0 0 1-3.435-.42C5.286 52.189 2.427 42.901 2.314 42.518l-.056-.174-.033-.129.031-.162.002-.156c.57-3.66 4.604-7.854 6.074-9.305 1.195-6.023 6.076-9.756 9.309-12.225.873-.642 1.565-1.184 2.055-1.65.455-.418.545-.604.511-1.904-.171-6.191 4.478-9.748 6.482-11.012.545-.313 1.133-.5 1.734-.5 1.45 0 2.668 1.064 2.721 2.354.064 1.969.584 2.27.735 2.31 1.333.407 2.307.969 2.895 1.355 1.517-.654 4.954-1.809 10.392-1.809h1.029c4.938 0 9.687-3.294 12.521-5.279.416-.274.795-.526 1.131-.769 1.213-.796 2.301-1.205 3.32-1.205 1.92 0 3.39 1.421 4.365 4.185 4.061 11.519-.449 17.502-2.666 19.587 5.191 5.944 5.864 14.636 3.77 18.937-2.431 4.995-11.5 6.297-22.311 8.119-7.308 1.227-14.097 2.975-19.22 2.975z" fill="#231f20"/><path d="M23.729 21.498l-3.006 4.229s-3.888 2.071-7.721 6.748c.001 0-.103-5.154 10.727-10.977zM27.544 9.307s-.579 4.496 3.574 5.068l-3.389 2.158s-3.476-1.617-.185-7.226z" fill="#d31245"/><path d="M63.327 6.949s6.435 12.846-5.109 18.537c-1.707.854-1.227-2.182-1.731-3.334 4.384-1.486 5.472-5.295 5.472-5.295s-3.176 1.615-5.078 1.674c3.9-3.158 4.976-5.193 4.976-5.193s-2.978 1.486-4.861 1.711c-.167 0 4.394-3.57 6.331-8.1z" fill="#babcbe"/><path d="M37.128 44.906s5.045-4.332 10.271-6.402c0 0 1.776-.029 2.382.344 0 0-2.901.676-5.112 2.568 0 0 4.883-1.383 6.73-1.438 1.873-.04 2.975 1.104 2.975 1.104s-10.605 1.666-17.246 3.824z" fill="#fff"/><path d="M51.589 29.271C39.206 34.06 30.583 44.038 30.583 44.038c-.478-1.956 1.256-4.17 1.256-4.17l-14.316.096 1.551-3.317-7.893 2.201c1.32-2.105 4.602-5.763 4.602-5.763-6.44 3.624-8.542 8.509-8.542 8.509l9.062-2.681-5.01 6.707-.061-2.421-3.444.785c4.074 6.896 9.663 6.287 9.663 6.287-3.828-1.627-2.678-4.397-2.678-4.397 4.301 6.415 15.595 1.688 18.243-.528 2.204-1.814 4.142-3.676 6.073-4.994 5.776-4.274 11.259-5.362 12.162-5.584l-.626 1.277c5.298 1.906 7.327 6.322 7.327 6.322-5.783 1.346-22.833 4.322-22.833 4.322-4.663 3.692-11.597 4.444-11.597 4.444 2.782 1.822 7.963.817 14.809-.753 6.851-1.572 23.648-4.088 24.771-6.489 2.1-4.526-8.831-15.653-11.513-14.62z" fill="#babcbe"/><path d="M47.398 22.897c-.565 1.506-2.542 4.43-6.734 7.136-3.941 2.557-5.61 2.847-8.58 3.445 1.44.636 3.432.92 5.515.602 2.162-1.666 5.09-3.693 8.33-5.307 1.368-2.015 1.847-4.149 1.469-5.876z" fill="#babcbe"/><path d="M36.327 24.11a1.438 1.438 0 0 1 1.569-1.268 1.42 1.42 0 0 1 1.259 1.574 1.41 1.41 0 0 1-1.566 1.262 1.427 1.427 0 0 1-1.262-1.568zM40.55 21.631a2.286 2.286 0 0 1 2.529-2.035 2.294 2.294 0 0 1 2.031 2.525 2.276 2.276 0 0 1-2.525 2.026 2.281 2.281 0 0 1-2.035-2.516z" fill="#fff"/><path d="M60.503 7.722c-7.83 5.522-15.25 6.438-15.25 6.438s-4.517-1.08-9.617 1.139c-9.82 4.238-14.764 14.263-14.764 14.263 1.637-2.019 4.342-4.49 7.396-6.726-3.359 10.666-2.421 12.153-5.5 13.02 6.825 4.445 6.545-9.151 9.307-13.025 6.657-9.303 15.693-3.189 15.693-3.189s-.688-1.674-2.598-2.996c10.901-1.302 15.333-8.924 15.333-8.924z" fill="#d31245"/></svg>