<svg xmlns:xlink="http://www.w3.org/1999/xlink" xmlns="http://www.w3.org/2000/svg" viewBox="0 0 64.947 82.955" width="64.947"  height="82.955" ><path d="m44.389 81.149h-.009l-.519-1.459h-.791v2.235h.457v-1.778h.009l.627 1.778h.441l.648-1.778h.01v1.778h.457v-2.235h-.786zm-3.533-1.06h.675v1.836h.456v-1.836h.675v-.399h-1.806z" fill="#0a2240"/><path d="m64.947 40.687c0-4.519-.545-8.401-1.615-11.547-.703-4.755-2.231-9.121-4.534-12.996l.422-1.242a1.2 1.2 0 0 0 -.144-1.061 34.477 34.477 0 0 0 -3.418-4.261 33.572 33.572 0 0 0 -4.13-3.714 1.197 1.197 0 0 0 -1.077-.192c-.349.107-.625.37-.759.707-4.561-3.128-9.864-4.912-15.497-5.215a1.197 1.197 0 0 0 -1.194-1.166h-1.991a1.2 1.2 0 0 0 -1.2 1.2v.027c-5.28.445-10.26 2.206-14.56 5.153a1.197 1.197 0 0 0 -1.109-.757c-.259 0-.515.084-.726.245a33.552 33.552 0 0 0 -4.125 3.712 34.457 34.457 0 0 0 -3.421 4.266 1.2 1.2 0 0 0 -.143 1.061l.422 1.241c-2.302 3.872-3.83 8.237-4.533 12.992-1.07 3.146-1.615 7.028-1.615 11.547 0 8.563 4.155 14.701 8.525 16.673l2.359 11.023a1.2 1.2 0 0 0 .427.689l17.169 13.623c.212.168.475.26.746.26h6.495c.271 0 .534-.092.746-.26l17.169-13.624a1.2 1.2 0 0 0 .427-.689l2.357-11.015c4.332-1.916 8.527-8.065 8.527-16.68z" fill="#fff"/><g fill="#0a2240"><path d="m18.445 19.472h12.565v-17.143c-6.113.29-11.747 2.398-16.372 5.957l.149.439zm-9.268 1.848-1.525-4.478-.193-.565c-2.333 3.776-3.959 8.205-4.675 13.146.224-.646.467-1.251.728-1.816 1.466-3.168 3.488-5.107 5.665-6.287zm24.292-1.848h13.033l3.654-10.75.149-.439c-4.859-3.738-10.832-5.873-17.304-5.983v17.172zm22.301 1.848c2.177 1.18 4.199 3.119 5.664 6.286.261.565.505 1.17.728 1.816-.716-4.942-2.343-9.372-4.677-13.149l-.192.566z"/><path d="m51.835 56.647c-2.164 1.666-6.873 5.252-6.873 5.252l-4.907-2.108-1.149-5.7 3.663-2.77a51.884 51.884 0 0 1 2.414 1.771l.798-2.351 9.99-29.422a14.136 14.136 0 0 0 -3.66-1.343 19.443 19.443 0 0 0 -2.392-.373c-1.161-.112-2.256-.129-3.215-.132l-9.671 28.484c-1.327-.634-2.614-1.067-3.83-1.167v14.578l-5.847-1.17.164 1.692 5.683 2.869v2.376l-6.739-.695-.935 1.248 7.674 2.237v2.662l-4.812-.797 4.812 3.31v3.63l-2.789.012-14.209-11.94c-.99-.814-1.297-5.197-1.297-5.197l6.188 1.007-6.41-4.467-.27-1.849c-.376.139-.747.256-1.11.344-.536.131-1.061.218-1.564.218-.652 0-1.315-.13-1.975-.357l2.489 11.633 17.169 13.623h6.495l17.17-13.623 2.49-11.632a6.087 6.087 0 0 1 -1.975.356 6.63 6.63 0 0 1 -1.57-.209z"/><path d="m29.137 53.854 1.578-6.857c-.843.205-1.712.535-2.6.959l-9.671-28.484c-2.559.007-6.076.119-9.268 1.848l10.358 30.506.43 1.266s1.421-1.128 3.368-2.418c1.667.915 5.805 3.18 5.805 3.18z"/></g><path d="m30.715 46.997-1.578 6.857-5.804-3.179a53.298 53.298 0 0 0 -3.368 2.418c-1.996 1.338-3.942 2.535-5.748 3.2l.27 1.849 6.41 4.467-6.188-1.007s.307 4.383 1.297 5.197l14.207 11.942 2.789-.012v-3.63l-4.812-3.31 4.812.797v-2.662l-7.674-2.237.935-1.248 6.739.695v-2.376l-5.683-2.869-.164-1.692 5.847 1.17v-14.577a6.27 6.27 0 0 0 -.528-.023c-.57 0-1.158.084-1.759.23zm8.191 7.095 1.149 5.7 4.907 2.108s4.709-3.586 6.873-5.252c-.797-.196-1.626-.519-2.482-.937-1.404-.685-2.874-1.614-4.37-2.618 0 0-.974-.773-2.414-1.771zm-7.428-34.62h1.523v-18.272h-1.991v18.272z" fill="#a7a8a9"/><path d="m13.106 56.637c.363-.089.734-.206 1.11-.344 1.805-.665 3.752-1.862 5.748-3.2l-.43-1.266-10.357-30.507c-2.177 1.18-4.199 3.119-5.664 6.286-.261.565-.505 1.17-.728 1.816-.989 2.856-1.585 6.529-1.585 11.265 0 8.312 4.067 14.287 8.3 15.789l.067.023c.66.227 1.323.357 1.975.357.503-.001 1.028-.088 1.564-.219z" fill="#fce200"/><path d="m61.434 27.606c-1.465-3.167-3.487-5.106-5.664-6.286l-9.99 29.422-.798 2.351c1.497 1.004 2.967 1.933 4.37 2.618.855.417 1.685.741 2.482.937.54.133 1.064.208 1.57.208.652 0 1.315-.129 1.975-.356l.045-.015c4.241-1.489 8.322-7.471 8.322-15.798 0-4.735-.596-8.409-1.584-11.264a19.257 19.257 0 0 0 -.728-1.817z" fill="#ff8300"/><path d="m33.469 19.472h-15.024l9.671 28.484c.888-.424 1.757-.754 2.6-.959a7.475 7.475 0 0 1 1.758-.23c.174 0 .35.008.528.023 1.216.1 2.503.533 3.83 1.167l9.671-28.484h-13.034z" fill="#f5a800"/><path d="m46.502 19.472c.96.003 2.054.02 3.215.132.774.075 1.578.191 2.392.373 1.221.273 2.463.694 3.66 1.343l1.523-4.481.192-.566.598-1.759a33.296 33.296 0 0 0 -3.299-4.113 32.368 32.368 0 0 0 -3.982-3.582l-.497 1.462-.149.439zm-37.325 1.848c3.192-1.729 6.709-1.841 9.268-1.848l-3.657-10.747-.149-.439-.497-1.462a32.398 32.398 0 0 0 -3.978 3.579 33.35 33.35 0 0 0 -3.302 4.116l.599 1.758.193.565z" fill="#ff8300"/><path d="m37.869 44.901c-1.9-1.07-2.741-3.727-4.93-3.503-.726-.707.362-1.589.181-2.56-1.902-1.589-1.45-5.559-5.164-5.03-1.074 1.21-2.534 1.701-3.832 2.39l3.992 11.759c1.521-.726 2.989-1.189 4.358-1.189s2.837.463 4.358 1.189zm21.619 5.941c-2.175-.265-2.809-2.295-3.806-3.972-2.9-.971-4.983 1.941-7.43 2.029-.425-.446-.826-1.101-1.217-1.849l-2.052 6.043c3.026 2.029 5.947 3.763 8.422 3.763 2.792 0 5.789-2.151 7.834-5.812-.627-.214-1.261-.202-1.751-.202zm-47.299-8.826c-1.902 2.47-5.347 3.442-7.792 5.295-.454.253-1.305.633-1.946.943 1.898 5.334 5.651 8.602 9.092 8.602 2.475 0 5.396-1.733 8.422-3.763l-3.918-11.54c-1.134.308-2.911.485-3.858.463z" fill="#ff4d00"/><path d="m18.445 19.472h12.565v-17.143c-6.113.29-11.747 2.398-16.372 5.957l.149.439zm-9.268 1.848-1.525-4.478-.193-.565c-2.333 3.776-3.959 8.205-4.675 13.146.224-.646.467-1.251.728-1.816 1.466-3.168 3.488-5.107 5.665-6.287zm24.292-1.848h13.033l3.654-10.75.149-.439c-4.859-3.738-10.832-5.873-17.304-5.983v17.172zm22.301 1.848c2.177 1.18 4.199 3.119 5.664 6.286.261.565.505 1.17.728 1.816-.716-4.942-2.343-9.372-4.677-13.149l-.192.566z" fill="#0a2240"/><path d="m51.835 56.647c-2.164 1.666-6.873 5.252-6.873 5.252l-4.907-2.108-1.149-5.7 3.663-2.77a51.884 51.884 0 0 1 2.414 1.771l.798-2.351 9.99-29.422a14.136 14.136 0 0 0 -3.66-1.343 19.443 19.443 0 0 0 -2.392-.373c-1.161-.112-2.256-.129-3.215-.132l-9.671 28.484c-1.327-.634-2.614-1.067-3.83-1.167v14.578l-5.847-1.17.164 1.692 5.683 2.869v2.376l-6.739-.695-.935 1.248 7.674 2.237v2.662l-4.812-.797 4.812 3.31v3.63l-2.789.012-14.209-11.94c-.99-.814-1.297-5.197-1.297-5.197l6.188 1.007-6.41-4.467-.27-1.849c-.376.139-.747.256-1.11.344-.536.131-1.061.218-1.564.218-.652 0-1.315-.13-1.975-.357l2.489 11.633 17.169 13.623h6.495l17.17-13.623 2.49-11.632a6.087 6.087 0 0 1 -1.975.356 6.63 6.63 0 0 1 -1.57-.209z" fill="#0a2240"/><path d="m29.137 53.854 1.578-6.857c-.843.205-1.712.535-2.6.959l-9.671-28.484c-2.559.007-6.076.119-9.268 1.848l10.358 30.506.43 1.266s1.421-1.128 3.368-2.418c1.667.915 5.805 3.18 5.805 3.18z" fill="#0a2240"/><path d="m30.715 46.997-1.578 6.857-5.804-3.179a53.298 53.298 0 0 0 -3.368 2.418c-1.996 1.338-3.942 2.535-5.748 3.2l.27 1.849 6.41 4.467-6.188-1.007s.307 4.383 1.297 5.197l14.207 11.942 2.789-.012v-3.63l-4.812-3.31 4.812.797v-2.662l-7.674-2.237.935-1.248 6.739.695v-2.376l-5.683-2.869-.164-1.692 5.847 1.17v-14.577a6.27 6.27 0 0 0 -.528-.023c-.57 0-1.158.084-1.759.23zm8.191 7.095 1.149 5.7 4.907 2.108s4.709-3.586 6.873-5.252c-.797-.196-1.626-.519-2.482-.937-1.404-.685-2.874-1.614-4.37-2.618 0 0-.974-.773-2.414-1.771zm-7.428-34.62h1.523v-18.272h-1.991v18.272z" fill="#a7a8a9"/><path d="m13.106 56.637c.363-.089.734-.206 1.11-.344 1.805-.665 3.752-1.862 5.748-3.2l-.43-1.266-10.357-30.507c-2.177 1.18-4.199 3.119-5.664 6.286-.261.565-.505 1.17-.728 1.816-.989 2.856-1.585 6.529-1.585 11.265 0 8.312 4.067 14.287 8.3 15.789l.067.023c.66.227 1.323.357 1.975.357.503-.001 1.028-.088 1.564-.219z" fill="#fce200"/><path d="m61.434 27.606c-1.465-3.167-3.487-5.106-5.664-6.286l-9.99 29.422-.798 2.351c1.497 1.004 2.967 1.933 4.37 2.618.855.417 1.685.741 2.482.937.54.133 1.064.208 1.57.208.652 0 1.315-.129 1.975-.356l.045-.015c4.241-1.489 8.322-7.471 8.322-15.798 0-4.735-.596-8.409-1.584-11.264a19.257 19.257 0 0 0 -.728-1.817z" fill="#ff8300"/><path d="m33.469 19.472h-15.024l9.671 28.484c.888-.424 1.757-.754 2.6-.959a7.475 7.475 0 0 1 1.758-.23c.174 0 .35.008.528.023 1.216.1 2.503.533 3.83 1.167l9.671-28.484h-13.034z" fill="#f5a800"/><path d="m46.502 19.472c.96.003 2.054.02 3.215.132.774.075 1.578.191 2.392.373 1.221.273 2.463.694 3.66 1.343l1.523-4.481.192-.566.598-1.759a33.296 33.296 0 0 0 -3.299-4.113 32.368 32.368 0 0 0 -3.982-3.582l-.497 1.462-.149.439zm-37.325 1.848c3.192-1.729 6.709-1.841 9.268-1.848l-3.657-10.747-.149-.439-.497-1.462a32.398 32.398 0 0 0 -3.978 3.579 33.35 33.35 0 0 0 -3.302 4.116l.599 1.758.193.565z" fill="#ff8300"/><path d="m37.869 44.901c-1.9-1.07-2.741-3.727-4.93-3.503-.726-.707.362-1.589.181-2.56-1.902-1.589-1.45-5.559-5.164-5.03-1.074 1.21-2.534 1.701-3.832 2.39l3.992 11.759c1.521-.726 2.989-1.189 4.358-1.189s2.837.463 4.358 1.189zm21.619 5.941c-2.175-.265-2.809-2.295-3.806-3.972-2.9-.971-4.983 1.941-7.43 2.029-.425-.446-.826-1.101-1.217-1.849l-2.052 6.043c3.026 2.029 5.947 3.763 8.422 3.763 2.792 0 5.789-2.151 7.834-5.812-.627-.214-1.261-.202-1.751-.202zm-47.299-8.826c-1.902 2.47-5.347 3.442-7.792 5.295-.454.253-1.305.633-1.946.943 1.898 5.334 5.651 8.602 9.092 8.602 2.475 0 5.396-1.733 8.422-3.763l-3.918-11.54c-1.134.308-2.911.485-3.858.463z" fill="#ff4d00"/></svg>