<svg xmlns:xlink="http://www.w3.org/1999/xlink" xmlns="http://www.w3.org/2000/svg" viewBox="0 0 49.9 72" width="49.9"  height="72" ><path d="M29.5 2.7c-5.8-3.8-16.4-4.5-24.3 4C-2 14 0 21.3 3.7 26.8c3.2 4.9 8 8.6 7.1 12.9C21.5 44.8 32 51.3 27.2 56.1S12.9 48.2 12.5 44C8 44.6 2 49.2 3.4 56c-4.2 3.5-5.2 12.7 1 16 1-2.7 5.5-7.5 10.7-3.8 5.5 3.8 18.8 5.7 26.5-4.8 7.4-10-.6-20.2-4.5-23.8-2.3-2.1-3.4-5.2-3-8.3C22.3 28.3 14 18.6 18.5 15c4.3-3.4 12.4 5.8 13.3 12.5 5.2-.4 11.5-5.4 10-10.9 5.6-3.8 3.4-12.8.7-15.7-4.2 5.5-7.6 5.3-13 1.8z" fill="#fff"/><path d="M36.8 8.3c-3.3.3-6.4-1.3-9-3-4.3-2.7-13.2-4-20.3 3.6-2.7 2.7-4 5.5-3.9 8.5.2 2.8 1.1 5.4 2.8 7.7.8 1.3 1.8 2.5 2.8 3.7 2.2 2.8 4.5 5.6 4.9 9 11.3 5.5 16.6 9.7 17.6 15.1.3 2-.5 4.1-2 5.5-1.9 1.9-4.8 2.5-7.4 1.5-4.6-1.6-9.4-7.4-11.6-12-1.2.4-5.7 3.3-3.7 9.3-1.7 1-5.3 4.9-3.1 9.9 1.3-1.4 2.9-2.4 4.6-3 2.9-.9 6-.4 8.4 1.4 3.1 1.9 6.8 2.8 10.4 2.5 4.7-.3 9.1-2.7 11.8-6.5 1.6-2.1 2.5-4.6 2.4-7.2-.2-6.1-5.2-11.2-6.5-12.4-2.3-2.2-3.7-5.1-4-8.3-8.4-2.8-15.4-8.8-16.7-14.4-.1-.5-.2-1-.2-1.5-.1-2 .8-4 2.4-5.2 2-1.6 4.8-1.9 7.2-.8 4.2 1.7 8.5 6.9 10.4 12 .8-.4 6.5-2.8 4.1-8.5 2.1-1.3 5-2.6 3.5-9-1.4 1.2-3.1 1.9-4.9 2.1zM44.7 68h-1.1v3.1h-.8V68h-1.1v-.7h3.1v.7zm5.2 3.1h-.8v-3l-1.1 3h-.8l-1.1-3v3h-.8v-3.8h1.3l.9 2.5.9-2.5H50l-.1 3.8z" fill="#e31837"/></svg>