<svg xmlns:xlink="http://www.w3.org/1999/xlink" xmlns="http://www.w3.org/2000/svg" viewBox="0 0 91.51 78.8" width="91.51"  height="78.8" ><g data-name="Layer 2"><path d="M44.38 64.8c7.86 1.88 25.11 3.85 28.28-2.11a7.29 7.29 0 0 0 .91-3.46c0-3.19-2.29-5.68-3.85-7-2.41.22-6.1.2-8.07-1.64a4.1 4.1 0 0 1-1.32-3.34 3.83 3.83 0 0 1 1.92-3c2.36-1.38 6.27-.39 8.92.56.43.13.88.28 1.33.44 2.23-.63 6.21-2.19 7.06-5.4 1.2-4.57-.89-9.52-5.6-13.25-6.7-5.31-18.69-7.88-30.34-1.67a14.24 14.24 0 0 0-7.54 12.15 10.6 10.6 0 0 0 .92 4.34 14.14 14.14 0 0 0 2.81 3.43L46.09 31a3.19 3.19 0 0 1 5-1.08l.11-.24 8 7-.16.2a3.2 3.2 0 0 1 .42 4.37L41.77 64l1.61.72a3.19 3.19 0 0 1 1 .08z" fill="#fff"/><path d="M89 25.26a14.92 14.92 0 0 1 1.26 9.33c-1.57 8.08-9.75 11-15.79 11.45a22.35 22.35 0 0 1 6 3.94C85.56 47.9 90 44 91.16 37.82a16.49 16.49 0 0 0 .35-3.38A19.32 19.32 0 0 0 89 25.26zm-5.9 35.26c-6.57 14.73-37.22 4.78-37.22 4.78s26.47 6.37 31.85-3.72c3.52-6.6-.81-12.41-4.81-15.31-3.94.6-7.27 0-7.15-1.39.08-1 2.43-1 5.41-.09-2.65-1-6.56-1.94-8.92-.56a3.83 3.83 0 0 0-1.92 3 4.1 4.1 0 0 0 1.32 3.34c2 1.84 5.66 1.87 8.07 1.64 1.56 1.33 3.85 3.82 3.85 7a7.29 7.29 0 0 1-.91 3.46c-3.18 6-20.43 4-28.28 2.11a3.2 3.2 0 0 0-1.73 6.15c1.36.44 33.47 10.63 41.12-6.52a12 12 0 0 0 1.09-4.91 11.45 11.45 0 0 0-1.75-6 8.07 8.07 0 0 1-.02 7.02zM51.13 29.94a3.19 3.19 0 0 0-5 1.08l-6.34 13.83a17 17 0 0 0 3.48 2.39z" fill="#f47d30"/><path d="M67.82 44.72c-.27.79 1.85 1.42 4.88 1.4-2.37-1.67-4.58-2.29-4.88-1.4zm-8.7-7.8L32.45 71l9.65-21.22C27.53 51 17.16 42.89 13.41 32.93c.44 4.2 2.53 8.71 6.7 13.24C-4 32.88 3 1.51 31.08.62A94.32 94.32 0 0 1 45 1.19q1.95.09 3.89.32A94.73 94.73 0 0 0 28.74.05C14.59.49 3.59 8.5.71 20.45s3.21 24.29 15.6 31.13a3.19 3.19 0 0 0 4-.81A31.42 31.42 0 0 0 35 55.48l-7.7 16.81a3.2 3.2 0 0 0 5.42 3.29l9-11.57 17.81-22.72a3.2 3.2 0 0 0-.41-4.37zM74 46.07h.5-.1z" fill="#f47d30"/><path d="M84.89 38c4-15.12-19.24-29.9-40.54-18.55C36.27 23.77 32.64 34 37 41.42a10.6 10.6 0 0 1-.91-4.32 14.24 14.24 0 0 1 7.52-12.2c11.66-6.21 23.64-3.63 30.39 1.67 4.71 3.73 6.81 8.68 5.6 13.25-.84 3.21-4.83 4.77-7.06 5.4.62.23 1.24.48 1.88.77 4.47-.99 9.3-3.5 10.47-7.99z" fill="#f47d30"/><path d="M24.41 5.2A41.52 41.52 0 0 1 45 1.19 94.32 94.32 0 0 0 31.08.62C3 1.51-4 32.88 20.1 46.17c-4.17-4.53-6.26-9-6.7-13.24C9.65 23 12.52 11.21 24.41 5.2z" fill="#00a0af"/><path d="M32.68 13.63c-13.36 10.8-6.84 32.87 14.86 35.3a38.66 38.66 0 0 1-5.44.86L32.45 71l26.66-34.09.16-.2-8-7-.11.24-7.87 17.3a17 17 0 0 1-3.48-2.39A14.14 14.14 0 0 1 37 41.42c-4.34-7.46-.7-17.64 7.38-21.95C65.65 8.12 88.87 22.9 84.89 38c-1.18 4.47-6 7-10.51 8h.1c6-.49 14.22-3.37 15.79-11.45C92 16.07 53.63-3.31 32.68 13.63z" fill="#231f20"/><path d="M74 46.07l.4-.08c-.63-.29-1.26-.55-1.88-.77-.45-.17-.9-.32-1.33-.44-3-.9-5.33-.93-5.41.09-.12 1.42 3.22 2 7.15 1.39 4 2.9 8.34 8.7 4.81 15.31-5.37 10.09-31.85 3.72-31.85 3.72s30.65 10 37.22-4.78a8.07 8.07 0 0 0 0-7A12.09 12.09 0 0 0 80.46 50a22.35 22.35 0 0 0-6-3.94zm-6.16-1.36c.29-.88 2.5-.27 4.88 1.4-3.05.02-5.16-.6-4.9-1.39z" fill="#231f20"/><path d="M24.41 5.2c-11.89 6-14.75 17.78-11 27.73S27.53 51 42.1 49.78a38.66 38.66 0 0 0 5.44-.86c-21.7-2.43-28.22-24.5-14.86-35.3 21-16.94 59.3 2.44 57.59 21A14.92 14.92 0 0 0 89 25.26C83.86 13.93 66.56 3.55 48.89 1.51q-1.95-.23-3.89-.32A41.52 41.52 0 0 0 24.41 5.2z" fill="#fff"/><path d="M82 75.94h-1v2.86h-.71v-2.86h-1v-.62H82zm4.76 2.86H86V76l-1 2.8h-.68l-1-2.77v2.77h-.71v-3.48h1.23l.81 2.27.84-2.27h1.22z" fill="#231f20"/></g></svg>