<svg xmlns:xlink="http://www.w3.org/1999/xlink" xmlns="http://www.w3.org/2000/svg" viewBox="0 0 72.5 72" width="72.5"  height="72" ><path d="M69.9 3.6C69 1.7 67.2.4 65.2.1c-2-.3-4 .5-5.3 2-1.3 1.4-1.9 3.4-1.5 5.4.2.8.3 1.7.3 2.5-.9-.7-1.9-1.2-3-1.3-1.6-.2-3.3.3-4.4 1.5-1.3 1.6-1.7 3.7-1.1 5.6.1.3 0 .6-.2.8-.8-.6-1.7-1-2.7-1.1-1.5-.2-3 .3-4.1 1.5-1.2 1.4-1.6 3.3-1.2 5.1-1.2-.5-2.4-.8-3.7-1-5-.6-9 .1-11.5 2.8-.5.5-.9 1-1.2 1.6-.3-.3-.6-.5-1-.7-.6-.3-1.3-.4-1.9-.4-.6.1-1.3.3-1.9.5-.6.4-1.2.9-1.6 1.5 0-.1-.1-.1-.1-.2-.1-1.7-1.1-3.3-2.6-4.2-.6-.3-1.3-.5-2.1-.5h-.3c-.6.1-1.2.2-1.7.5-.7.4-1.2.9-1.6 1.5-.2-.5-.3-.9-.4-1.4-.2-1.7-1.3-3.1-2.8-3.9-.8-.4-1.7-.6-2.7-.6h-.1c-.6.1-1.3.2-1.8.5-1.5.9-2.6 2.5-2.8 4.3-.7 4.7.3 8.6 3 11.5 3 3.1 7.5 4.5 12 5v1c.5 3.9 3.9 4.4 5.6 4.5v.4c-.1.1-.2.1-.4.2-2.5 2-1.2 4.8-.7 5.7-.6.9-1 1.9-1.2 2.9-.9-1.7-2.6-2.6-4.5-2.5-1.3 0-2.6.7-3.4 1.7-2.2.5-3.9 2.3-4.2 4.6-.4 3.3 1.1 4.7 2.2 5.3-.3 1.6 0 3.2.9 4.6.7 1.1 1.8 1.9 3 2.1.5.1.9.1 1.4.1h.1c1.1 1 2.5 1.6 4 1.6.8 0 1.6-.3 2.3-.8.4-.3.8-.8 1.1-1.2 1.4-.8 3-2.1 2.7-4.4v-.1c4.8 3 12 4.3 16.8 1.3v.9c.1 1.3.9 2.4 2.1 2.9.6 1.7 2.3 2.7 4.1 2.5.3 0 .7-.1 1-.1 1.5-.2 2.9-.8 4-1.7 3.2-.6 5.4-2 6.6-4.2.4-.7.6-1.4.8-2.1 1.3-1.2 1.9-3 1.7-4.8-.2-2.4-2.2-4.2-4.6-4.3-.3-.4-.7-.8-1.2-1.1 1.6-1.9 2.7-4.8 2.3-9.5-.1-.8-.2-1.5-.3-2.3.5-2.9.2-5.9-.9-8.6 1.4-1.2 2.4-2.7 2.8-4.5 5.1-2.5 10-6.1 12.1-11.1 1.9-4.5 1.4-9.3-1.5-14.3z" fill="#002d62"/><path d="M21.7 46.3c1.3-.9 3.1.5 4.2 1.5-1.2 0-2.4.2-3.5.6-.5.2-.9.5-1.3.8-.6-1-.3-2.2.6-2.9z" fill="#babcbe"/><path d="M27 44.1c0-.3.1-.7.5-.8.1.5.2 1 .2 1.6-.4-.1-.7-.4-.7-.8z" fill="#fff"/><path d="M27.5 46.5c0 .2-.1.3-.1.5-.2-.1-.4-.2-.6-.4-.3-.3-.4-.6-.5-1 .3.5.7.8 1.2.9z" fill="#e5b53b"/><path d="M25.9 44.8c-.1.3-.1.7-.1 1-.3-.2-.6-.4-.9-.5-.1-.5-.1-.9-.1-1.4 0-1.2.5-2.4 1.4-3.2.4.6.8 1.3 1 2-.7.2-1.1.9-1.3 2.1zm-3.5 10.4c.1.2.3.5.4.7L18.3 59l4.3-2-4.2 3.1c-.4-.3-.9-.6-1.4-.8-.1-.6-.2-1.3-.6-1.8l6-2.3z" fill="#fff"/><path d="M21.3 66.8c-.2-.6-.5-1.2-1-1.7.3 1.2-.1 3.4-1.9 3.9-.8.2-1.6.1-2.4-.3.7-.4 1.3-.9 1.7-1.5-2.7 1.2-5 .8-6.3-.7-2.4-2.7-.5-6.8-.5-6.8-.6.3-1.1.8-1.4 1.4-.9-.6-1.2-2-1.1-3.3.4-4.6 5.6-4 5.6-4-.5-.3-1-.6-1.5-.7.5-.4 1.2-.6 1.9-.5 1.8 0 2.9 2.2 3.3 3.1l-2.3.7c-.5-.4-1.1-.7-1.7-.8 1.1.9 1.9 2.3 2.1 3.7-.9.1-1.8.5-2.5 1.1 1.7-.4 3.6 0 4.9 1.2 1 1.1 1.3 2.6 1 4.1 1.2-1.2 1.3-3.1.3-4.4h.1l.5-.5c.5.8 1.1 1.5 1.8 2.1l.3 1.5c.1.9-.2 1.7-.9 2.4zm15.2-10.7l7.3 1.8c-.8.9-1.2 2.1-1.3 3.3l-4.1-2.6 3.7 1.2-5.6-3.2v-.5z" fill="#fff"/><path d="M53.8 52.9c-.4-.1-.9-.2-1.3-.2-1.1.2-2.2.7-3.1 1.4.1-.3.2-.6.4-.9 1.2-.5 4.2-1.8 4.7-4 .8-3.7-2.2-7.2-3-7.9.4-.2.7-.4 1.1-.5 0 0-.9-1.2-2.8.1s-1.6 3.8-1.6 3.8c.3-.6.7-1.1 1.2-1.6.3 1.5.8 6.5-2.9 12.9-.3.1-.5.2-.8.3l-9.3-1.5c-.1-.5-.1-.9-.1-1.4 0 0-2.3 2.4.5 6.4V59l4.6 3.3-.7.7c-4.4 4.2-15.2 2-19.2-3.5l2.1-1.9c.1.3.1.5.2.8 0 0 1.2-.6.6-2.5-.3-1.3-1.5-2.3-2.9-2.3.2.2.3.4.4.6l-2 .6c0-.4 0-.8.1-1.2.5-1.3 2-1.9 3.3-1.4 1.3.5 2.2 1.5 2.6 2.8 0 0 .4-3.8-2.7-4.5-.6-.2-1.2-.2-1.8 0 2.1-2 5.9-1.6 8.1-1-.9.5-1.9.9-2.9 1.2 3.4 1.5 7.3-3.5 11.3-3.7 2.4-.2 4.8.3 6.9 1.4-.3-.8-.9-1.4-1.6-1.7 1.2-.7 2.7-2.4 3.8-5.7 1.3-4 8.8-5.8 9.3 4.2-.1 3.7-1.1 6-2.5 7.7z" fill="#babcbe"/><path d="M51 47.5c0-.3.1-.7.1-1 .5.3 1 .6 1.5 1-.3-.9-.8-1.8-1.4-2.5 0-.9-.2-1.9-.4-2.8 5 6.5.9 8.4-.3 8.8.2-.8.4-1.6.5-2.4.5.2 1.1.5 1.1.5-.3-.6-.6-1.2-1.1-1.6zm-7.2-5c-.5-1.7-2-2.7-3.2-2.3s-1.9 2.1-1.4 3.7c.2.9.8 1.6 1.6 2.1l-1.8-.3c-.8-2.1-1-4.3-.6-6.5.3-.2.6-.4 1-.5 1.8-.6 3.9.9 4.7 3.3.2.5.2 1 .2 1.6l-.3.5c0-.6-.1-1.1-.2-1.6z" fill="#fff"/><path d="M41.8 44.7c.7-.3 1.2-.9 1.3-1.6.3.9-.1 1.9-1 2.3-.8.2-1.6-.3-1.9-1 .4.4 1.1.5 1.6.3z" fill="#e5b53b"/><ellipse transform="matrix(.9977 -.06802 .06802 .9977 -2.737 2.913)" cx="41.4" cy="41.7" rx=".8" ry=".8" fill="#fff"/><path d="M52.4 34.7l-.7.3c1 0 2-.2 3-.6.5 1.1.9 2.3 1.1 3.5-3.2-4.1-9-2-10.4 2.9-.1.3-.2.5-.2.7-1-3-3.6-4.8-5.9-4.1-.2.1-.3.1-.5.2.3-1 .7-1.9 1.3-2.8 0 0-3.2 1.7-3.2 7.1 0 1.2.1 2.5.3 3.7-1 .1-1.9.4-2.8.8-.9-.4-1.7-1-2.1-1.8-.3 1-.1 2 .6 2.8-.5.4-1 .8-1.3 1-.9-.2-1.9-.4-2.9-.5.3-1.5 1.2-8.5-4.5-9.2.5.3 1 .6 1.4 1.1-1.1 1.1-1.7 2.5-1.8 4v.8c-.3-.1-.7-.2-1-.2-.1-1.4.2-2.9.9-4.1-3-1.9-1.1-4.1-.5-4.8h.1c1.5 1.4 3.2 2.4 5.1 3 1.1 1.2 1.8 2.7 2.1 4.2.3-1.4.1-2.9-.5-4.1 1.3-.1 2.5-.6 3.6-1.3-.2 2.2.3 4.3 1.4 6.2 0 0-1.4-7.7 2.6-9.8s7.6 3.7 7.6 3.7c-.1-1.4-.7-2.8-1.6-3.9h.3c.8.1 1.6.1 2.3-.1.1.7.4 1.3.8 1.9-.1-4.8 4.1-15 9.7-9.9 2.2 2.1-.4 7.4-4.3 9.3z" fill="#96c0e6"/><path d="M49.8 34s0-4.8 3.3-6.4c.7-.3 1.5-.3 2.2-.1-2.3 1.6-4.2 3.9-5.5 6.5z" fill="#002d62"/><path d="M20.7 34.1c-1.5-.7-3.1-1-4.7-1.1-.4 0-1.3-.5-.3-1 1.9-1.1 8.3-2.2 8.3-2.2.1-.8.4-1.5.6-2.2-1-1.7-2.8-1.3-3.6.1-1.1 1.8-3.7.8-4-1.4-.4-3.5-3.7-3.3-4.6-.9-1.2 3-3.5.9-4-3.1-.4-2.8-5.3-4.1-6 .4-1.5 10.1 6.3 13.2 13.7 14 1-1.5 2.7-2.5 4.6-2.6z" fill="#babcbe"/><path d="M17.1 39.4c0 1.8 1.8 3 4 3 .1-.6.3-1.2.5-1.7-.2-.2-.5-.5-.6-.7-.9-.3-1.8-.4-2.8-.3.6-.5 1.3-.9 2.1-.9-.3-.9-.3-1.9.1-2.8-1.3.3-3.3 1.2-3.3 3.4z" fill="#96c0e6"/><path d="M67.8 4.8c-2.8-4.8-7.9-1.3-7 2.1 1.2 4.9-.6 8.2-3.2 5.3-2.1-2.3-6-1.2-4.9 3 .7 2.7-1.9 4.9-3.9 3.3s-5.1-.6-4 4c.6 2.8-.8 2.9-1.7 3.6-1.8 1.5-2.1 5.8 2.8 5 .1-2.4 1.1-5.6 4.6-8.7 2.8-2.5 8.9.8 9.2 3.2v.3c7.5-4 14-10.8 8.1-21.1z" fill="#babcbe"/><path d="M33.6 28.6c.2-.3.2-.6.1-.9-.1-.2-.3-.5-.9-.5h-.4v-.5c-.1-.3-.4-.6-.7-.6.5-.1 1-.5 1.1-1 .1-.3 0-.6-.3-.8-.2-.1-.4-.1-.6-.1l-2-.1c-1.6-.1-1.4 1.5-.5 1.3-.2-.2 0-.5.4-.5 0 .1 0 .2-.1.2s-.8 2.8-1 3.2c-.1.3-.3.6-.5.9l1.9.1-.6 1.1c-.2.3-.4.5-.6.7l1.3.1c.2-.5.4-.9 1-2.1.3-.2.5-.4.7-.7.1-.2.2-.4.2-.6.3.1.4.3.3.7 0 .1-.1.2-.1.2-.3.5-.7.8-1.3.9v1.6c0 .5.3.9.8 1 .4.1.9-.1 1-.6v-.2c-.1.1-.5.2-.8-.6-.1-.3-.2-.7-.2-1 1-.1 1.6-.5 1.8-1.2zm-2.2-.7c0-.1-.1-.1-.1-.1 0 .1.1.1.1.1-.2.1-.3.1-.4.2.1-.1.3-.1.3.1 0 .1-.1.2-.2.2l-1.4-.1 1-3.5h.1c.1-.2.3-.3.5-.3.1 0 .3 0 .4.1-.1 0-.2.1-.3.2 0 .1-.1.1-.1.1-.2.1-.2.2-.2.2v.6c0 .2 0 .1.1.2v.3c-.1.1-.1.2-.1.3v.1c.1.1.1.2.1.4l.2.3c0 .1.1.1.2.1h.1l-.3.5z" fill="#96c0e6"/><path d="M9.5 61.1c.4-.6.8-1 1.4-1.4v-1.2c-1-.5-1.8-1.6-1.9-2.8-.4.6-.6 1.3-.6 2-.1 1.4.2 2.8 1.1 3.4zm8.3 5.2c.7-.5.2-1.5.2-1.5-1.2.6-2.5.8-3.8.5-2.6-.4-3.1-3.7-3.2-5.5 0 0-1.9 4.1.6 6.7 1.3 1.4 3.6 1.9 6.3.7-.4.6-1 1.1-1.7 1.5.7.4 1.6.5 2.4.3 1.8-.5 2.2-2.6 1.9-3.9.5.5.8 1.1 1 1.7.6-.6.9-1.5.9-2.4 0-.5-.1-1-.3-1.5-.7-.6-1.3-1.3-1.8-2.1l-.5.5h-.1c1 1.3.9 3.2-.3 4.4-.5.4-1.1.7-1.6.6z" fill="#babcbe"/><path d="M58.8 57.5c-.5-.6-1.1-1-1.9-1.2.3 1.2-.2 2.4-1.2 3.2.5-1.7.1-4.3-2.1-4.7-1.3-.1-2.5.3-3.5 1.1.8.3 1.6.7 2.3 1.2 0 0-4.9-1.5-7.2 1.6-.8 1.1-1.3 2.4-1.3 3.7 0 .2.1.4.1.6 0-.2-.1-.5-.1-.7.7 1.7 2.4 2.8 4.2 2.8.6 0 1 .1 1.5.1-.1-.2-.1-.4-.2-.6-.4-3.1 3-5.8 5.3-4.8-1.1.2-3.4 1-4 2.7-1.2 3.5 2.3 2.1 3.3.5s-1.2-.5-2.1.5c.2-2.2 2.8-2.9 3.4-1.9.2-.2.6-.4.8-.6.5-.4.9-.9 1.2-1.4.3.2.6.5.8.8.5-1 .7-2 .7-2.9z" fill="#fff"/><path d="M56.1 60.8c-.3.2-.6.5-.8.6.1.1.1.3.1.5-.1 2.5-4.8 5.6-5.8 3.2-.4 0-.8-.1-1.5-.1-1.8.1-3.5-1-4.2-2.8 0 .2.1.4.1.7.3 1.2 1 2.3 2.1 3-1.1-.2-2.1-.9-2.7-1.8-.6.9-.7 2.1-.2 3.1.1-.5.4-.9.8-1.1 0 0-.6 4.2 4 3.7 2.2-.3 4.1-1.7 5.1-3.7.1.6.1 1.2 0 1.7 2-.6 6.6-2.7 4.3-8.5-.4.7-.8 1.2-1.3 1.5zm2.9.9c.5-1 .6-2.2.3-3.2-.1-.2-.1-.4-.2-.5-.1-.2-.2-.3-.3-.4 0 1-.3 1.9-.6 2.8.2.2.3.4.4.6v.1c.2.1.3.3.4.6z" fill="#babcbe"/><path d="M55.4 62c0-.2 0-.3-.1-.5-.6-1-3.2-.3-3.4 1.9.9-1 3.1-2.1 2.1-.5s-4.4 3-3.2-.5c.6-1.7 2.9-2.5 4-2.7-2.3-1-5.8 1.7-5.3 4.8 0 .2.1.4.2.6.9 2.5 5.6-.6 5.7-3.1z" fill="#96c0e6"/><path d="M38.3 52.2s-2.9-3-4.3 1c-.5 1.5-.6 3.1-.3 4.6-1.4-1.6-1.7-3.9-1-5.9 1.1-3.6 5.5-2.9 5.6.3zm20.2 16.9H58v1.3h-.3v-1.3h-.5v-.3h1.3v.3zm2.2 1.3h-.3v-1.2l-.5 1.2h-.3l-.4-1.2v1.2h-.3v-1.6h.5l.4 1 .4-1h.5v1.6z" fill="#002d62"/></svg>