<svg xmlns:xlink="http://www.w3.org/1999/xlink" xmlns="http://www.w3.org/2000/svg" viewBox="0 0 249.742 144.074" width="249.742"  height="144.074" ><path d="m200.182 136.916h1.388v-5.605h.032l1.916 5.605h1.349l1.985-5.605h.033v5.605h1.394v-7.041h-2.402l-1.66 4.598h-.032l-1.589-4.598h-2.414zm-3.321 0v-5.795h2.059v-1.246h-5.516v1.246h2.063v5.795zm-87.052-8.934 9.861-21.1c-5.73 1.604-11.574 3.234-17.428 4.871zm137.308-30.183-.383-.373c-.279-.213-.553-.541-.639-.643a1.14 1.14 0 0 1 -.061-.266 9.822 9.822 0 0 1 -.063-.746 18.65 18.65 0 0 0 -.186-1.744 11.814 11.814 0 0 0 -.639-2.332c-.551-1.422-1.354-2.621-2.213-3.666-.805-.973-1.709-1.865-2.603-2.742l-2.107-2.232-1.383-2.178c-.461-.828-.941-1.67-1.609-2.539-.73-.955-1.662-1.918-2.971-2.891l-.09-.07c3.957-2.248 6.807-5.244 7.219-8.813.303-2.615-.848-5.055-3.061-6.639-1.977-1.418-4.883-2.16-7.703-1.625-1.674.316-3.859.332-5.586 1.176-.307-.439-1.006-1.051-1.947-1.973a36.171 36.171 0 0 1 -1.879-2.073 2.474 2.474 0 0 1 -.174-.268c-.545-6.369-3.877-9.135-6.066-10.932-.398-.326-.77-.625-1.072-.924a4.133 4.133 0 0 1 -.316-.387c-.086-.189-.195-.537-.307-1.064-.113-.547-.207-1.16-.314-1.824a49.442 49.442 0 0 0 -.557-3.098 22.3 22.3 0 0 0 -1.068-3.537c-.984-2.447-2.598-4.936-5.381-6.953-1.389-1.002-2.217-1.793-2.795-2.473-.588-.691-.988-1.354-1.49-2.195l-1.059-1.684c-.455-.736-1.201-1.281-1.621-1.566a13.835 13.835 0 0 0 -1.334-.795l-.717-.373c-1.146-.598-2.572-.154-3.117.973l-.348.713a13.017 13.017 0 0 0 -1.221 4.578c-.109 1.318-.041 2.576.029 3.756l.037 2.938c-.148 1.227-.76 2.039-1.787 3.322l-1.477 2.029-.314.516c-1.664 2.697-2.01 4.479-.816 12.408.266 1.764.23 2.59.137 3.063-.086.41-.234.67-.699 1.4l-.535.846c-.746 1.252-.945 2.662-.957 3.896-.012 1.141.139 2.391.299 3.672l.299 3.49c0 .379-.01.732-.027 1.068l-.176 1.621c-.193 1.098-.219 1.422-.459 1.736l-9.738 2.68v3.863c.025-.006.053-.012.076-.02 0 .004.904 2.199.908 2.209l.254.691c-.004.004-.519.9-1.238 2.154v2.6l1.922-3.346a36.426 36.426 0 0 1 1.354 5.783l.109.871-3.385.945v3.848l4.455-1.25c.156-.014.311-.041.459-.086l4.83-1.387a44.281 44.281 0 0 1 -.436 2.654c-.289 1.494-.584 3.041-.744 4.623-.17 1.633-.209 3.371.059 5.158.355 2.373 1.299 4.73 3.014 7.016-.932 2.166-1.354 3.842-1.309 5.727.014.852.08 1.645.191 2.377.449 2.992 1.723 5.559 4.258 6.932 3.512 1.926 7.994.699 12.559-1.863 7.102.643 14.781-1.186 21.121-4.934 2.602.697 5.232-.135 7.252-1.113 2.428-1.176 4.648-2.904 6.078-4.018l.699-.541c.805-.613 1.648-.697 3.057-.775l2.48-.34.402-.092.779-.254c.586-.186 1.16-.371 1.705-.57.627-.23 1.219-.484 1.744-.77 1.143-.625 2.338-1.604 2.814-3.217.723-2.414-.594-4.855-2.422-7.138zm-13.027-34.922c.852.615 1.371 1.42 1.51 2.332.043.293.043.6.014.912-.316 2.701-3.461 5.477-8.375 7.51l-.146.035-.08-.145a17.037 17.037 0 0 1 -.209-.312c.01.014-.113-.139-.113-.139-.004-.01-.631-.855-.631-.855l-.74-1.164-.316-.537a.647.647 0 0 0 -.666-.309l-.629.104a7.78 7.78 0 0 1 -3.295-.164 114.11 114.11 0 0 0 2.354-4.064l.188-.389c.057-.117.076-.252.057-.381l-.27-1.791c-.002-.006-.033-.1-.078-.225l.014-.004c5.489-2.338 9.483-1.795 11.411-.414zm-46.182 27.873c-.078-1.063-.295-4.057-.303-4.205.047-.065.152-.199.275-.358 1.053-.164 2.92-.478 4.148-.855 4.131-1.137 7.725-2.65 10.961-4.621.998-.426 4.033-2.574 5.662-4.131-.016.014 3.076-3.025 3.076-3.025.115-.057.863-.941.863-.941 2.658-3.039 5.057-6.533 7.328-10.674l.176-.316c.105.117.254.279.254.279l.854 1.15c0 .004.258.674.258.674s.176 1.15.238 1.58l-.086.182c-7.483 13.583-15.165 21.671-33.704 25.261zm.811-10.859a20.59 20.59 0 0 0 .186-2.555c0-.586-.037-1.123-.113-1.623-.15-1.008-.453-1.857-.895-2.529a3.394 3.394 0 0 0 -1.41-1.201l-.244-.113c.053-.066.146-.191.146-.191.586-.768 1-1.701 1.27-2.863l.039-.162c.08 0 .197-.006.197-.006a4.552 4.552 0 0 1 3.223 1.201l.867.977c0 .002 0 .004.002.004.732 1.033 1.252 2.391 1.498 3.932l.025.143c.004.014.119 1.947.119 1.947l-.006.24c-.076 2.285-.746 4.697-1.93 6.992a.075.075 0 0 0 -.027.008c-1.113.34-2.795.631-3.832.793l.195-1.045zm29.625-20.205c-.127.041-9.572 2.906-9.572 2.906.014-.006-5.297 1.527-5.297 1.527-3.301.947-4.092 1.252-4.4 1.396-3.109 1.055-5.465 1.994-7.563 3.014-1.031-.76-2.215-1.166-3.482-1.166.148-.6.281-1.146.357-1.449 5.195-2.494 11.582-4.291 17.238-5.877.01-.004 8.242-2.488 9.797-2.959.432.383 2.686 2.371 2.686 2.371s.103.106.236.237zm-10.293 15.669-2.018-.371c-3.563-.691-7.664-1.426-11.223-1.398h-.252c-.316-1.332-.828-2.539-1.518-3.508a73.837 73.837 0 0 1 -.522-.594c1.838-.869 3.92-1.693 6.606-2.619l.912.633c3.389 2.354 7.572 4.684 10.076 5.848-.663.638-1.6 1.556-2.061 2.009zm-5.655 4.206-.004.004c-.164-.068-.264-.146-.295-.008.086.008.168.018.254.031-.076.043-.154.08-.23.127-.02-.023-.043-.041-.043-.096v-.014c.002-.035.016-.027.02-.049-.957-.082-1.938-.285-3.014-.559-1.609-.406-2.943-.615-4.199-.652 0 0-.037-.004-.084-.004.047-.402.104-.809.115-1.207l.008-.254c0-.023-.09-1.535-.119-2h.016c3.725-.027 8.441.887 10.973 1.375 0 0 .492.09 1.049.195-1.613 1.353-3.73 2.8-4.447 3.111zm-7.548.078c1.158.035 2.402.232 3.918.617.568.143 1.131.275 1.689.389-2.195 1.16-4.545 2.123-7.1 2.924a18.444 18.444 0 0 0 1.25-3.936zm16.759-7.873c-.004.004-.293.35-.514.611-2.406-1.072-6.918-3.584-10.318-5.943l-.148-.104c.654-.213 1.652-.516 3.213-.969 0 0 .852-.244 1.871-.539 1.943 1.502 5.498 3.531 7.83 4.461l.074.029a47.264 47.264 0 0 1 -2.008 2.454zm7.18-10.452a62.587 62.587 0 0 1 -4.387 6.916l-.381-.148c-1.955-.781-4.801-2.363-6.736-3.713l1.854-.535c.014-.002 9.238-2.805 9.238-2.805l.68-.203zm.934 9.995a9.12 9.12 0 0 0 4.199.275l.189-.029.092.152.781 1.23.693.938c-.006-.01.113.145.113.145.01.012.096.141.096.141-.004-.002.049.086.113.203l-.256.078c-1.605.496-4.805 1.182-8.182.203l-.105-.029a63.036 63.036 0 0 0 2.238-3.316.137.137 0 0 0 .029.009zm-3.717 5.222c.209-.266.42-.533.627-.805l.57.162a13.16 13.16 0 0 0 1.703.363 23.361 23.361 0 0 1 -2.9.28zm-1.053 1.278c2.844.189 8.178-.846 11.16-2.123.004-.004.008-.004.012-.004l.879-.272.045.049c.002 0 2.49 2.268 2.49 2.268l.32.281-.287.131c-4.668 2.137-11.488 3.289-17.371 2.936 0 0-.168-.012-.338-.02a41.287 41.287 0 0 0 3.09-3.246zm-26.83-22.024.492-.785c1.127-1.746 1.693-2.855 1.084-6.902-1.146-7.627-.662-8.42.313-10.004l.295-.479 1.283-1.744c1.072-1.344 2.295-2.867 2.539-5.273l-.041-3.348c-.107-1.857-.094-3.781.627-5.779.326.217.596.42.664.524.027.045 1.017 1.621 1.017 1.621 1.051 1.754 2.039 3.408 5.301 5.77 4.234 3.064 4.943 7.561 5.514 11.17.238 1.496.443 2.785.869 3.768.467 1.082 1.434 1.865 2.457 2.707 1.783 1.467 3.969 3.254 4.596 7.424.053.352.1.721.127 1.117.006.058.014.117.023.176.004.006.01.01.014.018l-10.033 3.031c-5.543 1.551-11.795 3.312-17.012 5.752.002-.008.002-.025.002-.025l-.289-3.424c-.278-2.143-.531-4.166.158-5.315zm-9.494 30.02a37.349 37.349 0 0 0 -1.742-7.039l-.031-.086s-1.207-3.123-1.221-3.156h.004l4.225-1.166.01.02c1.148 2.766 2.322 5.824 2.963 10.076 0 0 .111.851.113.879l-4.229 1.186zm7.021-1.229c-.334.094-.752.207-1.232.348l-.207.055-.004-.031-.09-.686c-.654-4.355-1.846-7.477-3.014-10.291l.246-.068 3.285-.906.615-.158.697.322c.363.168.65.412.877.742.33.508.564 1.182.688 2 .152 1.008.127 2.26-.078 3.818l-.674 3.873-.135.729zm60.239 19.319c-.299.976-2.012 1.525-3.836 2.109l-.797.258-1.988.262c-1.469.078-3.283.172-5.078 1.535l-.728.561c-2.522 1.971-7.766 6.057-10.865 4.154l-.43-.27-.412.27c-2.313 1.518-10.662 6.354-20.957 5.035l-.271-.029-.227.135c-4.32 2.588-7.641 3.389-9.609 2.32-1.57-.865-2.408-2.924-2.486-6.143-.033-1.41.322-2.738 1.311-4.906l.393-1.736-.285-.098c-4.432-4.889-3.457-10.043-2.502-15.031.004-.045.006-.109.008-.158.1.031.203.045.31.022 10.402-1.91 17.524-5.164 23.076-9.912l1.609.096c6.172.371 13.066-.797 17.988-3.049l1.197-.551a.63.63 0 0 0 .229-.18c1.029 1.234 1.398 3.004 1.994 4.066l1.664 2.607c.002.004 2.418 2.568 2.418 2.568 1.576 1.545 3.209 3.146 3.984 5.123.244.648.375 1.221.455 1.748.07.457.096.877.123 1.262.025.367.049.73.102 1.088.156 1.045.568 2.066 1.992 3.123.953 1.23 1.533 2.273 1.65 3.055.034.25.02.47-.032.666z" fill="#00274c"/><path d="m217.201 75.889-.57-.162c-.207.271-.418.539-.627.805a23.522 23.522 0 0 0 2.9-.279 13.336 13.336 0 0 1 -1.703-.364zm-8.064-12.055-1.854.535c1.936 1.35 4.781 2.932 6.736 3.713l.381.148a62.883 62.883 0 0 0 4.387-6.916l.268-.488-.68.203s-9.225 2.803-9.238 2.805zm35.131 36.34c-1.424-1.057-1.836-2.078-1.992-3.123-.053-.357-.076-.721-.102-1.088-.027-.385-.053-.805-.123-1.262a8.468 8.468 0 0 0 -.455-1.748c-.775-1.977-2.408-3.578-3.984-5.123 0 0-2.416-2.564-2.418-2.568l-1.664-2.607c-.596-1.063-.965-2.832-1.994-4.066a.64.64 0 0 1 -.229.18l-1.197.551c-4.922 2.252-11.816 3.42-17.988 3.049l-1.609-.096c-5.553 4.748-12.674 8.002-23.076 9.912a.591.591 0 0 1 -.31-.022c-.002.049-.004.113-.008.158-.955 4.988-1.93 10.143 2.502 15.031l.285.098-.393 1.736c-.988 2.168-1.344 3.496-1.311 4.906.078 3.219.916 5.277 2.486 6.143 1.969 1.068 5.289.268 9.609-2.32l.227-.135.271.029c10.295 1.318 18.645-3.517 20.957-5.035l.412-.27.43.27c3.1 1.902 8.344-2.184 10.865-4.154l.728-.561c1.795-1.363 3.609-1.457 5.078-1.535l1.988-.262.797-.258c1.824-.584 3.537-1.133 3.836-2.109a1.65 1.65 0 0 0 .031-.666c-.116-.782-.696-1.825-1.649-3.055zm-50.209 2.15a.76.76 0 0 1 -1.004-.381c-1.15-2.469.605-4.146 2-5.486l1.443-1.561c.354-.518 1.031-2.033-.096-2.851a.742.742 0 0 1 -.168-1.049.748.748 0 0 1 1.055-.16c1.684 1.213 1.498 3.393.471 4.91l-1.633 1.783c-1.488 1.418-2.359 2.373-1.69 3.799a.741.741 0 0 1 -.378.996zm17.447 4.613-1.07.881-.168.063c-.857.453-1.719.303-2.484.162-.6-.107-1.115-.199-1.535-.01l-1.844 1.156-2.303 1.395c-2.33.973-5.172-.055-6.467-2.357a.73.73 0 0 1 .285-1.016.753.753 0 0 1 1.027.291c.932 1.633 2.93 2.381 4.545 1.697l2.01-1.225 2.084-1.297c.861-.398 1.713-.254 2.455-.113.607.104 1.117.195 1.5 0l.596-.271-.014.023c.014-.023.969-.521 1.281-.318.594.404.227.824.102.939zm4.783-8.646c-.236.053-.639.131-1.01-.141-.828-.639-2.58-1.969-2.037-3.916.82-2.879.316-5.635-1.371-7.563a.748.748 0 0 1 .066-1.057.768.768 0 0 1 1.078.08c2.033 2.316 2.648 5.584 1.701 8.949-.203.701.225 1.359 1.49 2.328 0 0 .43.291.42.625-.017.332-.005.617-.337.695zm10.16-16.875a.78.78 0 0 1 .838.68c.084.926 1.438 1.705 3.01 2.598 2.754 1.584 6.537 3.738 5.84 8.779-.043.414-.434.691-.844.641a.754.754 0 0 1 -.654-.848c.545-4.037-2.324-5.68-5.102-7.266-1.852-1.072-3.609-2.07-3.768-3.777a.748.748 0 0 1 .68-.807zm9.588 17.504-2.197.33s-1.336.1-1.342.102a4.373 4.373 0 0 0 -2.029 1.188l-2.346 2.394-1.117.674c-1.354.514-2.736.604-4.238.277a.772.772 0 0 1 -.596-.896.74.74 0 0 1 .896-.564c1.205.258 2.316.18 3.387-.223l.574-.322 2.336-2.381a5.833 5.833 0 0 1 2.74-1.594l1.721-.156 1.568-.191c.246-.107.545-.375.633-1.385a.737.737 0 0 1 .811-.674.751.751 0 0 1 .701.799c-.035.503-.148 2.014-1.502 2.622zm-47.785-34.399s0 .018-.002.025c5.217-2.439 11.469-4.201 17.012-5.752l10.033-3.031c-.004-.008-.01-.012-.014-.018a2.12 2.12 0 0 1 -.023-.176 13.571 13.571 0 0 0 -.127-1.117c-.627-4.17-2.813-5.957-4.596-7.424-1.023-.842-1.99-1.625-2.457-2.707-.426-.982-.631-2.271-.869-3.768-.57-3.609-1.279-8.105-5.514-11.17-3.262-2.361-4.25-4.016-5.301-5.77 0 0-.99-1.576-1.017-1.621-.068-.104-.338-.307-.664-.524-.721 1.998-.734 3.922-.627 5.779l.041 3.348c-.244 2.406-1.467 3.93-2.539 5.273l-1.283 1.744-.295.479c-.975 1.584-1.459 2.377-.313 10.004.609 4.047.043 5.156-1.084 6.902l-.492.785c-.689 1.148-.436 3.172-.158 5.313zm16.492-19.359a.765.765 0 0 1 1.061.17c2.283 3.113 4.287 8.004 3.15 12.32l-1.799.553c1.654-3.979-.326-8.926-2.578-11.994a.742.742 0 0 1 .166-1.049zm-6.588-13.297c.127-.402.531-.637.932-.52a.757.757 0 0 1 .543.928c-.471 1.697-.092 3.855 1 5.635.842 1.367 1.963 2.295 3.1 2.539.402.096.674.494.58.896-.086.41-.486.656-.9.576-1.559-.346-3.008-1.494-4.078-3.236-1.296-2.126-1.755-4.738-1.177-6.818zm-2.115 16.164a.778.778 0 0 1 1.061.213.743.743 0 0 1 -.213 1.045c-1.439.926-2.465 2.848-2.572 4.789-.096 1.875.664 3.572 2.137 4.789.33.271.363.738.1 1.053-.26.324-.734.355-1.059.096-1.867-1.527-2.82-3.67-2.693-6.031.116-2.421 1.393-4.758 3.239-5.954zm-2.686 35.539c2.555-.801 4.904-1.764 7.1-2.924a36.798 36.798 0 0 1 -1.689-.389c-1.516-.385-2.76-.582-3.918-.617l-.242-.006a18.391 18.391 0 0 1 -1.251 3.936zm-160.769 36.356c.316.963 1.244 4.24.605 7.211 3.787-1.049 7.971-2.207 12.469-3.459v-12.49l-15.555 4.273c1.024 1.117 1.883 2.639 2.481 4.465zm154.172-36.33.674-3.873c.205-1.559.23-2.811.078-3.818-.123-.818-.357-1.492-.688-2a2.12 2.12 0 0 0 -.877-.742l-.697-.322-.615.158-3.285.906-.246.068c1.168 2.814 2.359 5.936 3.014 10.291l.09.686.004.031.207-.055c.48-.141.898-.254 1.232-.348l.975-.254zm-9.301 3.277c-.059-.463-.109-.871-.109-.871a36.317 36.317 0 0 0 -1.354-5.783l-1.922 3.346v4.254zm-26.58 6.483a36.94 36.94 0 0 0 -1.104-4.994l-3.965 7.369 5.189-1.451c-.062-.487-.12-.921-.12-.924zm-11.352-.444 4.848-8.852-7.148 1.965c.82 1.993 1.648 4.192 2.3 6.887zm83.215-29.39.27 1.791a.65.65 0 0 1 -.057.381s-.174.357-.188.389a111.74 111.74 0 0 1 -2.354 4.064 7.78 7.78 0 0 0 3.295.164l.629-.104a.644.644 0 0 1 .666.309l.316.537.74 1.164s.627.846.631.855l.113.139s.203.309.209.312l.08.145.146-.035c4.914-2.033 8.059-4.809 8.375-7.51a3.848 3.848 0 0 0 -.014-.912c-.139-.912-.658-1.717-1.51-2.332-1.928-1.381-5.922-1.924-11.414.414l-.014.004c.048.125.079.219.081.225zm-198.674 65.691c.699-1.443.611-4.119-.217-6.668-.66-2.025-1.688-3.613-2.68-4.141l-.605-.322-11.229 3.086c-5.119 1.35-5.721 4.672-5.494 6.174a1.9 1.9 0 0 0 .065.297c.822 3.086 2.508 6.467 8.215 5.23.77-.166 5.029-1.316 11.697-3.146zm109.297-29.998.203-.057-.133-1.01c-.646-4.301-1.762-7.404-2.867-10.117l-.064-.158-.207.059-63.945 17.57v12.424a62668.533 62668.533 0 0 0 67.013-18.711zm66.674-31.715-.912-.633c-2.686.926-4.768 1.75-6.606 2.619.258.297.52.592.522.594.689.969 1.201 2.176 1.518 3.508h.252c3.559-.027 7.66.707 11.223 1.398l2.018.371a301.04 301.04 0 0 1 2.063-2.01c-2.506-1.163-6.689-3.493-10.078-5.847z" fill="#d31245"/><path d="m32.125 124.959c0-1.639-.348-3.344-.768-4.629-.539-1.639-1.303-2.963-2.191-3.943-.635.176-4.689 1.291-6.316 1.738.883.922 1.68 2.32 2.232 4.016.496 1.529.748 3.088.748 4.477 0 .705-.084 1.344-.213 1.936 1.563-.43 5.664-1.563 6.293-1.736a8.984 8.984 0 0 0 .215-1.859z" fill="#edb111"/><path d="m30.678 127.697h14.328c.219-.059.434-.121.654-.18v-3.842c-4.498 1.252-8.682 2.41-12.469 3.459.639-2.971-.289-6.248-.605-7.211-.598-1.826-1.457-3.348-2.48-4.465l15.555-4.273v-3.838l-18.449 5.066c-.156.01-.314.023-.467.07l-3.695 1.08-14.748 4.049c-7.117 1.877-9.016 7.393-8.078 10.914.15.564.385 1.42.783 2.354.414.973 1.037 2.104 1.998 3.127 2.059 2.189 5.305 3.465 9.982 2.453.836-.182 5.496-1.438 12.772-3.438.076-.006.162-.02.225-.031l3.949-1.123c.242-.066.5-.139.746-.205v-3.966zm-5.061.856a9 9 0 0 0 .213-1.936c0-1.389-.252-2.947-.748-4.477-.553-1.695-1.35-3.094-2.232-4.016l6.316-1.738c.889.98 1.652 2.305 2.191 3.943.42 1.285.768 2.99.768 4.629 0 .648-.09 1.264-.215 1.857-.629.175-4.73 1.308-6.293 1.738zm-13.496 4.314c-5.707 1.236-7.393-2.145-8.215-5.23a2.021 2.021 0 0 1 -.065-.297c-.227-1.502.375-4.824 5.494-6.174l11.229-3.086.605.322c.992.527 2.02 2.115 2.68 4.141.828 2.549.916 5.225.217 6.668l-.248.51c-6.668 1.83-10.927 2.98-11.697 3.146z" fill="#00274c"/><path d="m7.75 115.645a.2.2 0 0 0 -.041.01l.053-.012c-.006 0-.01 0-.012.002z" fill="#fff"/><path d="m229.57 78.139.287-.131-.32-.281s-2.488-2.268-2.49-2.268l-.045-.049-.879.272c-.004 0-.008 0-.012.004-2.982 1.277-8.316 2.313-11.16 2.123a41.121 41.121 0 0 1 -3.09 3.246c.17.008.338.02.338.02 5.883.353 12.703-.8 17.371-2.936zm-54.26.67-.254-.691c-.004-.01-.908-2.205-.908-2.209-.023.008-.051.014-.076.02v5.035a592.855 592.855 0 0 1 1.238-2.155zm-24.683 3.531s-.818.227-1.461.402c.023.055.623 1.594.623 1.594s.428 1.156.428 1.152l.447 1.348v-.002.002a38.186 38.186 0 0 1 1.494 6.326l.102.76c.275-.078.678-.193 1.125-.322v-11.975a.14.14 0 0 0 -.014-.037z" fill="#edb111"/><path d="m153.385 93.6c-.447.129-.85.244-1.125.322l-.102-.76a38.186 38.186 0 0 0 -1.494-6.326 1068 1068 0 0 0 -.447-1.348c0 .004-.428-1.152-.428-1.152s-.6-1.539-.623-1.594l1.461-.402 2.744-.752a.14.14 0 0 1 .014.037v-3.861l-.094.027-.322.064-3.424.951-19.217 5.279-36.332 9.98-27.646 7.596v3.838l63.945-17.57.207-.059.064.158c1.105 2.713 2.221 5.816 2.867 10.117l.133 1.01-.203.057a59809.072 59809.072 0 0 1 -67.014 18.711v3.84a51260.57 51260.57 0 0 0 35.893-10.01c5.854-1.637 11.697-3.268 17.428-4.871l20.721-5.791.357-.082 2.008-.582c3.686-1.031 7.244-2.023 10.629-2.975zm-18.565 5.154-.105-.803c-.666-4.422-1.807-7.609-2.943-10.393h.004l4.199-1.168.01.023c1.084 2.615 2.178 5.588 2.857 9.596 0-.008.145.959.242 1.605-.774.21-3.307.884-4.264 1.14zm7.08-1.924-1.361.381-.314-1.998-.102-.688c.006-.014 5.984-10.932 5.984-10.932.318-.082 1.039-.264 1.609-.408l1.383 3.691c-.027.057-5.012 9.318-5.012 9.318zm-2.375-3.92c-.652-2.695-1.48-4.894-2.301-6.887l7.148-1.965zm10.248-4.551a37.092 37.092 0 0 1 1.104 4.994l.121.924-5.189 1.451c.998-1.853 3.037-5.644 3.964-7.369z" fill="#00274c"/><path d="m138.842 96.01c-.68-4.008-1.773-6.98-2.857-9.596l-.01-.023-4.199 1.168h-.004c1.137 2.783 2.277 5.971 2.943 10.393l.105.803c.957-.256 3.49-.93 4.264-1.139-.098-.647-.242-1.614-.242-1.606zm8.875-12.824c-.57.145-1.291.326-1.609.408 0 0-5.979 10.918-5.984 10.932l.102.688.314 1.998 1.361-.381 2.188-.635s4.984-9.262 5.012-9.318zm35.23 2.146c-.002-.027-.113-.879-.113-.879-.641-4.252-1.815-7.311-2.963-10.076l-.01-.02-4.225 1.166h-.004c.014.033 1.221 3.156 1.221 3.156l.031.086a37.349 37.349 0 0 1 1.742 7.039l.092.713zm34.613-10.687c3.377.979 6.576.293 8.182-.203l.256-.078c-.064-.117-.117-.205-.113-.203 0 0-.086-.129-.096-.141l-.113-.145-.693-.938-.781-1.23-.092-.152-.189.029a9.134 9.134 0 0 1 -4.199-.275s-.02-.004-.027-.01a63.864 63.864 0 0 1 -2.238 3.316zm-15.482 4.974c0 .055.023.072.043.096.076-.047.154-.084.23-.127a3.666 3.666 0 0 0 -.254-.031c-.004.021-.018.014-.02.049a.053.053 0 0 1 .001.013zm-7.258-4.738h-.016c.029.465.119 1.977.119 2l-.008.254c-.012.398-.068.805-.115 1.207.047 0 .084.004.084.004 1.256.037 2.59.246 4.199.652 1.076.273 2.057.477 3.014.559.031-.139.131-.061.295.008l.004-.004c.717-.311 2.834-1.758 4.445-3.109-.557-.105-1.045-.195-1.045-.195-2.534-.489-7.251-1.403-10.976-1.376zm10.891-10.059c-1.02.295-1.871.539-1.871.539-1.561.453-2.559.756-3.213.969l.148.104c3.4 2.359 7.912 4.871 10.318 5.943l.514-.611a47.758 47.758 0 0 0 2.008-2.453 12.318 12.318 0 0 0 -.074-.029c-2.332-.93-5.887-2.96-7.83-4.462zm-.086-4.785c-5.656 1.586-12.043 3.383-17.238 5.877-.076.303-.209.85-.357 1.449 1.268 0 2.451.406 3.482 1.166 2.098-1.02 4.453-1.959 7.563-3.014.309-.145 1.1-.449 4.4-1.396 0 0 5.311-1.533 5.297-1.527 0 0 9.445-2.865 9.572-2.906-.133-.131-.236-.236-.236-.236s-2.254-1.988-2.686-2.371zm-17.791 24.846c1.037-.162 2.719-.453 3.832-.793.01-.004.019-.008.027-.008 1.184-2.295 1.854-4.707 1.93-6.992l.006-.24s-.115-1.934-.119-1.947c0 0-.02-.107-.025-.143-.246-1.541-.766-2.898-1.498-3.932-.002 0-.002-.002-.002-.004l-.867-.977c-.91-.82-2.025-1.234-3.223-1.201 0 0-.117.006-.197.006a7.471 7.471 0 0 1 -.039.162c-.27 1.162-.684 2.096-1.27 2.863 0 0-.094.125-.146.191l.244.113a3.401 3.401 0 0 1 1.41 1.201c.441.672.744 1.521.895 2.529.076.5.113 1.037.113 1.623 0 .756-.064 1.596-.186 2.555l-.689 3.947z" fill="#edb111"/><path d="m221.613 65.488.086-.182c-.063-.43-.238-1.58-.238-1.58s-.258-.67-.258-.674l-.854-1.15-.254-.279-.176.316c-2.271 4.141-4.67 7.635-7.328 10.674 0 0-.748.885-.863.941 0 0-3.092 3.039-3.076 3.025-1.629 1.557-4.664 3.705-5.662 4.131-3.236 1.971-6.83 3.484-10.961 4.621-1.229.377-3.096.691-4.148.855-.123.158-.229.293-.275.358.008.148.225 3.142.303 4.205 18.538-3.589 26.22-11.677 33.704-25.261z" fill="#edb111"/><path d="m174.072 87.816v-71.451h15.088v-16.365h-44.414l-34.937 73.146-34.776-73.146h-44.355v16.365h14.982v111.332h-14.982v16.377h50.756v-16.377h-15.084v-26.035l-.002-66.904 24.644 52.863 3.004 6.445 36.332-9.98 4.037-8.639 19.02-40.689v92.939h-14.983v16.377h50.758v-16.377h-15.088v-36.033zm33.084-29.611 1.799-.553c1.137-4.316-.867-9.207-3.15-12.32a.765.765 0 0 0 -1.061-.17.742.742 0 0 0 -.166 1.049c2.252 3.068 4.232 8.016 2.578 11.994zm-11.662 1.809c.324.26.799.229 1.059-.096a.738.738 0 0 0 -.1-1.053c-1.473-1.217-2.232-2.914-2.137-4.789.107-1.941 1.133-3.863 2.572-4.789a.743.743 0 0 0 .213-1.045.778.778 0 0 0 -1.061-.213c-1.846 1.195-3.123 3.533-3.24 5.953-.126 2.362.827 4.504 2.694 6.032zm34.043 25.986c2.777 1.586 5.646 3.229 5.102 7.266a.754.754 0 0 0 .654.848c.41.051.801-.227.844-.641.697-5.041-3.086-7.195-5.84-8.779-1.572-.893-2.926-1.672-3.01-2.598a.78.78 0 0 0 -.838-.68.748.748 0 0 0 -.68.807c.159 1.707 1.916 2.705 3.768 3.777zm7.301 9.498a.738.738 0 0 0 -.811.674c-.088 1.01-.387 1.277-.633 1.385l-1.568.191-1.721.156a5.833 5.833 0 0 0 -2.74 1.594l-2.336 2.381-.574.322c-1.07.402-2.182.48-3.387.223a.74.74 0 0 0 -.896.564c-.08.41.186.801.596.896 1.502.326 2.885.236 4.238-.277l1.117-.674 2.346-2.394c.52-.549 1.277-1 2.029-1.188.006-.002 1.342-.102 1.342-.102l2.197-.33c1.354-.608 1.467-2.119 1.502-2.623a.75.75 0 0 0 -.701-.798zm-20.631 1.475c-1.266-.969-1.693-1.627-1.49-2.328.947-3.365.332-6.633-1.701-8.949a.768.768 0 0 0 -1.078-.08.747.747 0 0 0 -.066 1.057c1.688 1.928 2.191 4.684 1.371 7.563-.543 1.947 1.209 3.277 2.037 3.916.371.271.773.193 1.01.141.332-.078.32-.363.338-.693.009-.336-.421-.627-.421-.627zm-20.08.556 1.633-1.783c1.027-1.518 1.213-3.697-.471-4.91a.748.748 0 0 0 -1.055.16.742.742 0 0 0 .168 1.049c1.127.818.449 2.334.096 2.851l-1.443 1.561c-1.395 1.34-3.15 3.017-2 5.486a.76.76 0 0 0 1.004.381.74.74 0 0 0 .379-.996c-.67-1.426.201-2.381 1.689-3.799zm15.277 8.469c-.313-.203-1.268.295-1.281.318l.014-.023-.596.271c-.383.195-.893.104-1.5 0-.742-.141-1.594-.285-2.455.113l-2.084 1.297-2.01 1.225c-1.615.684-3.613-.064-4.545-1.697a.753.753 0 0 0 -1.027-.291.73.73 0 0 0 -.285 1.016c1.295 2.303 4.137 3.33 6.467 2.357l2.303-1.395 1.844-1.156c.42-.189.936-.098 1.535.01.766.141 1.627.291 2.484-.162l.168-.063 1.07-.881c.125-.115.492-.535-.102-.939zm-7.994-64.078c.414.08.814-.166.9-.576.094-.402-.178-.801-.58-.896-1.137-.244-2.258-1.172-3.1-2.539-1.092-1.779-1.471-3.938-1-5.635a.757.757 0 0 0 -.543-.928c-.4-.117-.805.117-.932.52-.578 2.08-.119 4.691 1.176 6.818 1.071 1.742 2.521 2.89 4.079 3.236z" fill="#00274c"/></svg>