<svg xmlns:xlink="http://www.w3.org/1999/xlink" xmlns="http://www.w3.org/2000/svg" viewBox="0 0 80.2 78.7" width="80.2"  height="78.7" ><path d="M79.5 34c0-8.4-6.8-15.1-15.1-15.1-.8 0-1.6.1-2.4.2v-.4l6.9-4.4V8.8L40.4 0l-28 8.7v6.1l7.3 3.7-.2 3.2C7.1 27.1-.3 34.7 0 41.6c.2 3.2 1.9 6.1 4.5 7.9 3 2.4 7.5 4 12.7 4.8l-.2 3.5-7.3 4.6v7.1L41 78.7l30.9-9.2v-7.1l-7.4-5-.5-8.3h.4c8.3 0 15.1-6.7 15.1-15.1zm-60.3-8.1l-1 14.1c-1.6-.2-3-.8-4.4-1.7-1-.7-1.7-1.8-1.8-3-.2-3.1 2.5-6.5 7.2-9.4z" fill="#00447c"/><path d="M41 13.3c-10.5 0-19 2.1-19.7 4.8L20 41.7c1.5.1 3 .2 4.4.2l.8-20.3v-.4c-.1-.6-.3-1.2-.7-1.7-.3-.4-1-.2-1.4-.3s-.1-1.2.1-1.4c.9-.4 1.9-.8 2.8-1.1 0 0 1.4-.6 7.7-1.6 2.3-.4 4.7.2 6.7 1.5 2.1 1.5 3 7 2.9 10.8-.2 5.4-3.1 8.1-8.6 10.2 1.1.5 2.1 1.2 2.9 2.1.1.1.2.2.2.3 3-.7 5.9-1.8 8.8-3.1.4-2.6 1.5-4.9 3.2-6.9 1.5-5.2 5.6-9.3 10.9-10.6l-.1-1c-.6-2.7-9.2-5.1-19.6-5.1z" fill="#fff"/><path d="M38 27.2c.2-6.2-.9-10.6-4.4-10.1l-2.8.5-.8 19.1 1.5-.2c4.1-.7 6.2-2.9 6.5-9.3zm-8 11.2l-.1 3c1.2-.2 2.4-.3 3.7-.6-.9-1.2-2.2-2.1-3.6-2.4zM62.4 49v.2zm-8.9 2.4c-3.4.9-7.1 1.6-11 2.5-.2 0-.4.1-.5.1l1 3.7c.2 1.2.8 2.3 1.6 3.2l1.5.9c.4.1.7.5.7.9s-4.1.6-5.1.6c-1.4-.1-2.7-1-3.3-2.3l-1.3-6c-2.5.4-5.1.6-7.7.7 0 1.4.2 3.1.7 3.6.5.4 1 .7 1.5.9.5.2.8.5.8.9 0 .5-.3.7-.8.6-1.9-.3-3.7-.8-5.5-1.4-2.9-1-5.4-2.4-5.4-3 0-.4.3-.6.8-.6s1.1 0 1.6-.2c.2-.2.4-.5.5-.9-1.5-.1-2.9-.2-4.3-.4l-.2 1.8v.3c0 3.1 9.8 7.2 21.9 7.2s21.9-4.1 21.9-7.2V57l-.2-3.8c-3.3.5-6.5-.2-9.2-1.8z" fill="#fff"/><path d="M49.3 35.4c0-.4-.1-.9-.1-1.4 0-1.4.2-2.8.6-4.1-1.7 2-2.8 4.4-3.2 6.9.9-.4 1.8-.9 2.7-1.4zm13.2 15.5l-.1-1.7V49c-.3 0-.6-.1-.9-.1-1-.2-2.1-.5-3-.9-5.5 1.6-11 3-16.6 4.1-.1 0-.3.1-.4.1-1.6.3-3.2.6-4.8.8-2.5.4-4.9.6-7.2.7-1.9.1-3.7.1-5.5 0-1.6-.1-3.1-.2-4.6-.4l-.1 1.6c1.4.2 2.8.3 4.3.4-.1.3-.2.6-.5.9-.5.2-1 .3-1.6.2-.5 0-.8.2-.8.6 0 .5 2.5 1.9 5.4 3 1.8.6 3.6 1.1 5.5 1.4.5.1.7-.1.8-.6 0-.4-.2-.8-.8-.9-.6-.3-1.1-.5-1.6-.9-.4-.5-.6-2.2-.7-3.6 2.6-.1 5.1-.3 7.7-.7l1.3 6c.6 1.3 1.9 2.2 3.3 2.3.9 0 5-.1 5.1-.6 0-.4-.3-.8-.7-.9-.5-.2-1.1-.5-1.5-.9-.8-.9-1.3-2-1.6-3.2l-1-3.7c.2 0 .4-.1.5-.1 3.9-.8 7.6-1.6 11-2.5 2.8 1.6 6 2.3 9.2 1.8l-.1-2zM40.4 16.6c-1.9-1.3-4.3-1.9-6.7-1.5-6.4 1-7.7 1.6-7.7 1.6-1 .3-1.9.7-2.8 1.1-.2.2-.5 1.3-.1 1.4s1.1-.1 1.4.3c.4.5.6 1.1.7 1.7v.4l-.8 20.3c1.8 0 3.6-.2 5.4-.4l.1-3c1.5.3 2.7 1.2 3.5 2.4.5-.1 1.1-.2 1.6-.3l2.7-.6c-.1-.1-.1-.2-.2-.3-.8-.9-1.8-1.6-2.9-2.1 5.5-2 8.4-4.7 8.6-10.2.2-3.7-.6-9.2-2.8-10.8zM38 27.2c-.2 6.4-2.4 8.7-6.5 9.3l-1.5.2.7-19.1 2.8-.5c3.5-.6 4.7 3.9 4.5 10.1z" fill="#adafb2"/><path d="M20.8 16.2c.5-2.1 8.2-4.3 20.2-4.3 11.6 0 19.4 2.3 20.1 4.5.1.4.6.7 1.1.5.4-.1.7-.6.5-1.1v-.1C61.3 12 50.8 10.2 41 10.2c-9.5 0-20.8 1.5-21.8 5.6-.1.4.1.9.6 1s.8-.1 1-.6c0 .1 0 0 0 0zm35.6 47.6c-5 1.6-10.2 2.5-15.4 2.4-5.3 0-10.6-.8-15.6-2.4-4.7-1.6-6.6-3.3-6.6-4-.1-.6-.6-.9-1.1-.9-.6.1-.9.6-.9 1.1.5 4.1 12.5 8.2 24.2 8.2 11.5 0 23.4-4.1 23.9-8.2.1-.6-.3-1.1-.9-1.1-.6-.1-1.1.3-1.1.9-.1.7-1.9 2.4-6.5 4z" fill="#adafb2"/><path d="M42 70.1v6.3l28.6-8.6v-4L67 62s-3.4 4.3-10.8 6.2c-4.7 1.3-9.5 1.9-14.2 1.9z" fill="#fff"/><path d="M25.7 68.3c-7.5-2-10.9-6.3-10.9-6.3l-3.6 1.8v4l28.6 8.6v-6.3c-4.7 0-9.5-.6-14.1-1.8z" fill="#adafb2"/><path d="M56.3 10.2c6.9 1.8 8 5.1 8 5.1l3.3-1.6V10L41.2 2v6.5c5.1-.1 10.2.5 15.1 1.7z" fill="#fff"/><path d="M39.9 8.5V2l-26.4 8v3.7l3.3 1.6s1.1-3.3 8-5.1c4.9-1.2 10-1.8 15.1-1.7z" fill="#adafb2"/><path d="M37.9 39.9l-2.7.6c-.5.1-1.1.2-1.6.3-1.2.2-2.5.4-3.7.6-1.8.2-3.6.4-5.4.4-1.5 0-3 0-4.5-.2-5.4-.6-8.9-2.6-9.3-6.3-.4-4.3 3.8-8.8 10.2-12.1v-.7C9.1 27.6 1.1 34.8 1.4 41.6c.3 6.1 7.4 10.4 17.9 11.7 1.5.2 3 .3 4.6.4 1.8.1 3.6.1 5.5 0 2.3-.1 4.7-.3 7.2-.7 1.6-.2 3.2-.5 4.8-.8.1 0 .2 0 .4-.1 5.6-1.1 11.1-2.4 16.6-4.1-.8-.3-1.5-.7-2.3-1.2-3.7 1.2-7.4 2.1-11.2 2.7C16.5 54 10.4 49 10.4 49s7.2 4.4 34-.6c3.5-.6 6.9-1.6 10.2-2.9-.5-.4-1-.9-1.4-1.4-.3.1-.6.2-.9.2C-5.3 58.6 4 35 7.6 32.4c.3-.5.8-.9 1.4-1.2-7.3 9.6 2.8 16.6 28.2 11.1 4.3-1.1 8.5-2.5 12.6-4.2-.2-.9-.4-1.8-.5-2.7l-2.7 1.5c-2.8 1.3-5.7 2.3-8.7 3z" fill="#d31245"/><path d="M37.1 42.3C11.8 47.9 1.7 40.8 9 31.2c-.6.2-1 .7-1.4 1.2-3.9 5-8.4 23.8 44.5 10.6-.3-.4-.6-.8-.9-1.3-1.4.4-3.1.8-4.9 1.2-10.9 2.4-13.1 1.8-13.1 1.8 4-.7 7.9-1.6 11.7-2.7 1.9-.5 3.7-1.2 5.5-1.9-.3-.7-.6-1.4-.8-2.1-3.9 1.8-8.1 3.2-12.5 4.3z" fill="#adafb2"/><path d="M33.3 44.7s2.2.5 13.1-1.8c1.9-.4 3.5-.8 4.9-1.2-.3-.5-.6-1-.8-1.6-1.8.7-3.6 1.3-5.5 1.9-3.8 1.1-7.7 2-11.7 2.7z" fill="#ce1141"/><path d="M59.1 21.1c.1-.1.3-.1.4-.2-.1.1-.2.2-.4.2z" fill="#adafb2"/><path d="M62 20.3l-.1.2-.8 1.2-.2-.5-1.3-.3c-.1.1-.3.1-.4.2l.3.6 1.5.3v.1l.4.7.8-1.3.3-.4-.5-.8z" fill="#d31245"/><path d="M67.5 46l-.6.9c.4-.1.9-.2 1.3-.3l-.5-.1-.2-.5z" fill="#adafb2"/><path d="M78.3 33.5c0-7.5-6.1-13.6-13.6-13.6-1.8 0-3.5.3-5.1 1l1.3.3.2.5.8-1.2.1-.2.4.9-.3.4c5.9-2.2 12.4.8 14.6 6.7.2.5.4 1.1.5 1.7l.7.9-.5.1c.7 6.2-3.7 11.9-9.9 12.6-.3 0-.6.1-.9.1l1.6.2.6.9-1.9-.2-.3-.5-.8 1.5-.5-.8.6-1.1c-.3 0-.6 0-1-.1l-.3.4-.4-.4c-3.2-.5-6-2.4-7.8-5.1l-.9-.2-.5-1.7-.1-.2.6.1c-.1-.3-.2-.5-.3-.8l-.8 1h-.6l.8 1.5h-1l-.9-1.6-.1-.2h.9l1-1.1v-.1h.5c-1.3-5.2 1.1-10.6 5.9-13v-.1l-1.5-.3-.3-.6c-5.8 2.6-9 8.9-7.8 15.1l.8-1.2.8-.1h.3l-1.1 1.6-.5.1 1 1.4-.8.1c2.1 6 8.1 9.7 14.4 8.9l-.2-.5 1-1.5.1-.2.4.8 1.5.4.1.3c5.6-2 9.2-7.1 9.2-12.9z" fill="#adafb2"/><path d="M54.7 32.3c0 .9.1 1.9.4 2.8h.6l-.4.5c.1.3.2.5.3.8h.3l1.1-1h.1l1.1.2-1.7 1.4-.5-.1.6 1.6h-.1c1.7 2.7 4.6 4.6 7.8 5.1l-.3-.4.6-1.7.1-.2.6.7h1.6l.7.8-2 .1-.4-.4-.4 1.3c.3 0 .6.1 1 .1l.2-.5.1-.2.5.7c6.3-.3 11.1-5.5 10.9-11.8 0-.3 0-.6-.1-.9L77 31l-.8 1.3-1 .1 1-1.6.5-.1-1-1.3.9-.1h.1l.6.7C76 23.9 70 19.9 63.8 21.2c-.6.1-1.1.3-1.7.5l-.8 1.3-.4-.7c-3.8 1.8-6.2 5.7-6.2 10z" fill="#fff"/><path fill="#d31245" d="M67.3 29l.1-2-.8-.5v.2l-.1 1.5-.4-.3H66l-1.7.6.8.5 1.5-.4z"/><path fill="#d31245" d="M69.3 30l-.2-2-.9-.4v.2l.2 1.4-.5-.2h-.1l-1.6.9.9.4 1.4-.7z"/><path fill="#d31245" d="M71.4 30.7l-.5-2-.9-.3v.3l.4 1.3-.5-.1h-.1L68.3 31l1 .3 1.2-.9z"/><path fill="#d31245" d="M72.8 29.2l-1-.2.1.2.5 1.4-.5-.1-1.4 1.3 1 .1 1.2-1 .8.1z"/><path fill="#d31245" d="M74.7 29.4l-1-.1.2.3.7 1.2H74l-1.2 1.5h1l1-1.2h.9z"/><path d="M76.6 29.3l-.9.1 1 1.3-.5.1-1 1.6 1-.1.8-1.3h.4l.5-.1-.7-.9-.6-.7zm-7.3 17l-.2-.3-1.5-.4-.4-.8-.1.2-1 1.5.2.4c.2 0 .4 0 .6-.1l.6-.9.2.5.5.1c.2-.1.4-.1.6-.2h.5z" fill="#d31245"/><path d="M66 43.2l-.2.5-.6 1.1.5.8.8-1.5.3.5 1.9.2-.6-.9-1.6-.2-.5-.7v.2z" fill="#d31245"/><path d="M65.5 42.7l2-.1-.7-.8h-1.6l-.6-.7-.1.2-.5 1.9.3.3.4.4.1-.4.4-1.3.3.5z" fill="#d31245"/><path d="M65.1 40.1l-1.5.3-.6-.7-.1.3-.3 1.8.7.7.3-1.7.4.4 1.9-.3-.8-.8z" fill="#d31245"/><path d="M63.4 38.5l-1.5.5-.8-.5v.3l-.1 1.8.8.5.1-1.7.5.3 1.9-.6-.9-.6z" fill="#d31245"/><path d="M62.4 37.7l-1-.5h-.1l-1.3.7-.8-.4v.3l.2 1.8.9.4-.2-1.7.5.2 1.8-.8z" fill="#d31245"/><path d="M57.1 36.8l.1.3.4 1.8.9.3-.4-1.7.5.2 1.6-1.1-1-.3h-.1l-1.2.7-.8-.2z" fill="#d31245"/><path d="M56 36.9l.5.1 1.5-1.3-1.1-.2h-.1l-1.1 1h-.3l-.6-.1.1.2.7 1.7.9.2h.1l-.6-1.6z" fill="#d31245"/><path d="M55 35.1h-.5v.1l-1 1.1h-.9l.1.2.9 1.6h1l-.8-1.5h.6l.8-1 .4-.5H55z" fill="#d31245"/><path d="M51.7 37.7c0 .1.1.3.1.4l.8-.1-1-1.4.5-.1 1.1-1.6h-.3l-.7.1-.8 1.2c0 .2.1.4.2.7l.1.8zm11.1-15.6l-.1.2-.6 1.3-.3-.5-1.9-.1.2.3.4.6 1.5.1.5.7.9-1.8-.6-.8z" fill="#d31245"/><path fill="#d31245" d="M63.9 23.7l-.1.3-.4 1.3-.4-.4h-.1l-1.8.1.7.8 1.5-.1.6.7.6-2z"/><path fill="#d31245" d="M65.1 25.2v.3l-.3 1.4-.4-.4-1.8.4.7.6 1.6-.2.6.5.4-2z"/><path d="M76.1 66.9h-.9v2.5h-.6v-2.5h-.9v-.5h2.4v.5zm4.1 2.5h-.6V67l-.9 2.4h-.6l-.8-2.4v2.4h-.6v-3h1.1l.7 2 .7-2h1.1l-.1 3z" fill="#00447c"/></svg>