<svg xmlns:xlink="http://www.w3.org/1999/xlink" xmlns="http://www.w3.org/2000/svg" xml:space="preserve" id="Layer_1" x="0" y="0" style="enable-background:new 0 0 47.534 54" version="1.1" viewBox="0 0 47.534 54" width="47.534"  height="54" ><style>.st0{fill:#fff}.st1{fill:#002d56}.st2{fill:#fedcc2}.st3{fill:#fdb913}</style><path d="M47.513 18.336c.167-1.646-.658-3.434-2.52-5.465-2.809-3.064-6.674-5.953-11.184-8.356a324.925 324.925 0 0 0-6.594-3.408C25.706.352 24.611 0 23.766 0c-.843 0-1.939.352-3.448 1.107-1.68.842-4.371 2.222-6.594 3.408-4.509 2.403-8.376 5.293-11.183 8.357-1.862 2.031-2.687 3.819-2.52 5.465.183 1.821 1.536 2.841 2.235 3.349-.73.541-1.187 1.177-1.355 1.783-.379 1.356.823 2.663 1.648 3.371.464.619.433 1.657.276 2.086-1.061 2.919-.527 4.611.107 5.517a3.366 3.366 0 0 0 1.672 1.255c.37.56.896 1.222 1.521 2.004.506.634 1.098 1.375 1.611 2.09-.759 1.076-1.936 2.353-3.074 2.353-.468 0-1.383-.034-3.061-2.068-1.405 3.394.293 6.676 1.884 8.359 1.497 1.584 3.401 2.422 5.506 2.422.307 0 .621-.019.936-.055a6.15 6.15 0 0 0 1.662.223c.902 0 1.804-.179 2.693-.519.036.06.068.124.096.194.714 1.803 2.435 3.012 4.604 3.236.404.043.848.063 1.317.063.921 0 2.397-.073 3.467-.476 1.071.403 2.546.476 3.468.476.469 0 .913-.02 1.316-.063 2.168-.224 3.89-1.433 4.603-3.236.028-.07.059-.134.095-.194.89.341 1.793.519 2.694.519.573 0 1.13-.075 1.662-.223.315.036.629.055.936.055h.001c2.104 0 4.008-.838 5.506-2.422 1.591-1.683 3.289-4.965 1.883-8.359-1.678 2.035-2.594 2.068-3.061 2.068-1.138 0-2.315-1.277-3.074-2.353a52.179 52.179 0 0 1 1.612-2.091c.624-.782 1.15-1.443 1.52-2.003a3.363 3.363 0 0 0 1.672-1.255c.633-.906 1.167-2.598.106-5.517-.155-.429-.188-1.467.277-2.086.824-.708 2.026-2.014 1.649-3.371-.17-.606-.625-1.244-1.356-1.784.702-.506 2.054-1.528 2.238-3.349" class="st0"/><path d="M45.376 23.82c-.161-.576-.967-1.418-2.517-1.859a22.422 22.422 0 0 1 1.6-1.293c1.173-.85 3.522-2.607-.428-6.916-3.95-4.31-8.981-7.098-10.835-8.087a328.09 328.09 0 0 0-6.566-3.393c-1.547-.776-2.383-.97-2.864-.97-.48 0-1.316.193-2.864.97-1.548.776-4.27 2.169-6.565 3.393-1.854.989-6.886 3.777-10.836 8.087-3.95 4.309-1.601 6.065-.427 6.916.491.356 1.056.815 1.599 1.293-1.549.441-2.355 1.282-2.516 1.859-.15.538.479 1.397 1.328 2.104.883 1.031.864 2.634.567 3.449-1.248 3.433-.077 4.977 1.393 5.192.557 1.078 2.614 3.286 3.859 5.208-1.074 1.812-3.882 5.432-6.949 2.674-.159 2.806 2.569 7.8 7.685 7.025 1.302.442 2.867.31 4.496-.509.451.3.823.667 1.057 1.258.563 1.419 1.912 2.252 3.526 2.42 1.612.166 4.049-.042 4.649-.584.601.543 3.037.751 4.651.584 1.613-.168 2.962-1.001 3.525-2.42.234-.59.606-.958 1.056-1.258 1.629.819 3.195.951 4.496.509 5.117.775 7.844-4.22 7.685-7.025-3.067 2.758-5.875-.862-6.949-2.674 1.246-1.922 3.302-4.13 3.859-5.208 1.47-.215 2.641-1.76 1.393-5.192-.297-.815-.317-2.418.568-3.45.845-.706 1.474-1.565 1.324-2.103" class="st1"/><path d="M29.129 48.968c-.45.752-1.125.877-2.287.877-1.163 0-2.557-.417-2.27-1.46.288-1.044-.174-1.378-.806-1.378-.632 0-1.093.334-.805 1.378.288 1.042-1.107 1.46-2.269 1.46-1.163 0-1.838-.125-2.288-.877-.308-.513-.822-1.169-1.368-1.793 1.51-1.421 2.988-3.47 4.277-6.239.299-.642 1.463-.792 2.453-.792.991 0 2.155.151 2.454.792 1.289 2.769 2.767 4.818 4.277 6.239-.545.626-1.06 1.28-1.368 1.793M39.369 34.931c-.503.738-1.478 1.471-2.289 2.408a18.613 18.613 0 0 0-1.221-2.15c.466-1.414.322-3.647.322-3.647.294.237.683.747.912 1.657.229.91.447.76.802.985.84.531.736-.762.481-1.397-1.076-2.66-3.301-3.178-3.68-3.229-.507-.069-1.029.154-1.031.598-.003.443.4.605 1.013.776.431.121.368 1.681-.049 2.67-1.776-1.931-3.561-2.444-4.915-2.265-.576-.637-1.498-1.187-2.18-.875.501.384.779.81.709 1.189-.161.877-2.906.787-2.917 1.095-.012.371-.716.608-1.56.608-.843 0-1.547-.237-1.559-.608-.01-.308-2.757-.218-2.916-1.095-.07-.379.209-.805.709-1.189-.682-.312-1.603.238-2.18.875-1.354-.179-3.139.335-4.915 2.265-.417-.989-.48-2.549-.049-2.67.612-.171 1.015-.333 1.013-.776-.003-.444-.523-.667-1.03-.598-.379.051-2.604.569-3.68 3.229-.256.635-.36 1.928.479 1.397.357-.226.575-.075.803-.985.229-.91.617-1.419.91-1.657 0 0-.144 2.234.322 3.647a18.677 18.677 0 0 0-1.221 2.15c-.811-.936-1.786-1.669-2.289-2.408-1.036-1.52-.847-2.493-.742-3 .592-2.893 2.485-3.72 4.145-3.507a2.87 2.87 0 0 0-.579-.351c-.392-1.961 2.314-2.129 4.644-2.027-.625.131-1.301.324-2.03.597-.543.204-.932.477-1.17.54-.5.132-.471.1-.358.239.113.138.654.195.654.195.544.494 2.202 1.179 3.163 1.246 1.797.124 2.738-.439 3.511-.677.216-.066.367-.109.142-.188-.392-.139-1.521.03-2.152.023-.63-.007-1.423-.063-1.712-.11-.701-.116-1.89-.401-1.89-.401.295-.002.807-.1 1.662-.242a13.63 13.63 0 0 1 4.979.086c.334.067.426.058.902-.448.306-.325.359-.586-.498-.713a5.798 5.798 0 0 1-.361-.07c1.541-.212 2.318-.757 2.681-1.521a121.646 121.646 0 0 0 1.223 0c.363.764 1.14 1.309 2.681 1.521a5.66 5.66 0 0 1-.361.07c-.857.127-.804.387-.498.713.476.506.569.516.902.448a13.657 13.657 0 0 1 4.98-.086c.855.141 1.367.239 1.662.242 0 0-1.189.284-1.89.401-.289.047-1.084.103-1.712.11-.631.007-1.76-.163-2.153-.023-.223.078-.074.122.143.188.772.238 1.715.802 3.511.677.96-.067 2.619-.752 3.162-1.246 0 0 .541-.057.655-.195.113-.139.142-.107-.36-.239-.237-.063-.625-.335-1.169-.54a13.902 13.902 0 0 0-2.029-.597c2.33-.103 5.035.064 4.643 2.027a2.76 2.76 0 0 0-.578.35c1.66-.213 3.553.614 4.145 3.507.105.508.295 1.48-.742 3.001" class="st2"/><path d="M38.718 18.692c-.256-.078-.579.191-.812.634-.205-.307-.638-.6-1.181-.764a2.567 2.567 0 0 0-1.111-.097 2.523 2.523 0 0 0-1.016-.489 2.556 2.556 0 0 0-1.117-.043c-.256-.196-.62-.356-1.041-.439a2.58 2.58 0 0 0-1.119.011c-.265-.182-.638-.325-1.063-.387a2.565 2.565 0 0 0-1.118.065c-.274-.17-.655-.294-1.083-.335a2.588 2.588 0 0 0-1.117.117 2.573 2.573 0 0 0-1.096-.281c-.425-.02-.814.046-1.11.171a2.594 2.594 0 0 0-1.109-.229c-.429 0-.819.087-1.109.229a2.585 2.585 0 0 0-1.111-.171c-.428.021-.812.126-1.096.281a2.569 2.569 0 0 0-1.117-.117c-.428.041-.808.166-1.083.335a2.562 2.562 0 0 0-1.118-.065 2.557 2.557 0 0 0-1.063.387 2.58 2.58 0 0 0-1.119-.011c-.42.083-.785.243-1.041.439a2.541 2.541 0 0 0-1.117.043c-.415.103-.77.281-1.015.489a2.55 2.55 0 0 0-1.111.097c-.545.164-.975.457-1.182.764-.234-.442-.556-.712-.811-.634-.33.102-.42.738-.203 1.423.216.685.659 1.157.988 1.055.251-.078.362-.469.305-.954.344.142.864.149 1.404-.015.396-.119.73-.308.963-.521.308.06.686.052 1.082-.046.401-.1.746-.272.99-.472.306.075.684.085 1.085.006.406-.08.759-.235 1.013-.423.303.09.68.119 1.086.059.408-.06.768-.196 1.031-.371.297.105.677.149 1.085.11.412-.04.778-.159 1.05-.32a2.58 2.58 0 0 0 1.079.161c.412-.02.784-.121 1.065-.269.286.133.659.214 1.069.214a2.58 2.58 0 0 0 1.07-.214c.279.148.651.249 1.065.269.41.02.787-.043 1.079-.161.272.161.638.28 1.05.32a2.57 2.57 0 0 0 1.085-.11c.262.175.622.311 1.031.371.405.059.783.031 1.084-.059.255.188.608.344 1.014.423.401.079.78.069 1.085-.006.245.201.589.373.991.472.395.098.773.106 1.082.046.233.212.568.401.963.521.541.163 1.061.157 1.404.015-.058.484.053.876.305.954.328.103.772-.37.988-1.055.218-.685.127-1.321-.202-1.423" class="st3"/><path d="M22.014 42.504c.981-.599 3.443-.899 4.856 1.115.272.389.037.527-.089.626-.164.131-.379.267-.688.469-.259.169-.415.202-.519-.208-.141-.55-.579-1.931-3.167-1.806-.24.012-.755.024-.393-.196" class="st1"/><path d="M39.281 47.414c-1.307.366-3.181-.025-3.944-1.359.119.571.273 1.034.646 1.415a7.49 7.49 0 0 1-1.912-.798c-1.23-.818-2.759-2.741-2.966-4.601-.1.464-.16 1.178-.011 1.995-.906-1.077-1.808-2.437-2.685-4.131-.973-1.877-3.537-2.002-4.643-2.002-1.104 0-3.668.125-4.641 2.002-.878 1.694-1.78 3.053-2.685 4.131a5.243 5.243 0 0 0-.011-1.995c-.207 1.86-1.735 3.783-2.966 4.601a7.434 7.434 0 0 1-1.911.798c.373-.382.528-.844.646-1.415-.763 1.334-2.637 1.725-3.944 1.359-1.493-.447-2.67-1.414-3.312-2.38 2.888 1.043 6.035-3.425 7.275-5.84 1.369-2.667 2.833-4.466 4.165-5.295-.566.712-.834 1.526-.956 2.256.435-.51 1.177-1.759 2.707-2.429.867.632 2.171.801 2.981.925l.142.022c.481.5 1.284.853 2.51.853 1.227 0 2.031-.353 2.512-.853l.141-.022c.812-.125 2.113-.293 2.982-.925 1.53.67 2.272 1.92 2.706 2.429-.122-.73-.39-1.544-.955-2.256 1.332.831 2.796 2.629 4.165 5.295 1.24 2.416 4.388 6.883 7.275 5.84-.643.966-1.819 1.933-3.311 2.38" class="st0"/><path d="M25.935 10.146s.26.202.561.314c-.281.264-1.154.847-2.281 1.085l-.145-4.353 2.309-.267v-.32l-2.075-.104a.925.925 0 0 0 .323-.707c0-.504-.385-.912-.861-.912-.475 0-.86.408-.86.912 0 .286.127.54.323.707l-2.075.104v.321l2.31.267-.144 4.352c-1.126-.237-2.001-.82-2.281-1.085.3-.111.561-.314.561-.314-.656-.239-1.698-.989-2.021-1.373.879 3.616 3.139 3.188 4.188 4.123 1.049-.935 3.309-.507 4.189-4.123-.323.384-1.366 1.135-2.021 1.373" class="st3"/><path d="M23.766 5.383c-.213 0-.386.183-.386.411 0 .226.173.411.386.411.215 0 .387-.185.387-.411a.397.397 0 0 0-.387-.411" class="st1"/><path d="M16.871 24.778c-2.472-.303-4.318-.713-5.874.491-.323.25-.853.387-.606-.837.114-.563.576-1.196 1.225-1.621 1.579.776 4.06 1.511 8.993 1.729-.572.22-1.942.458-3.738.238m19.667.491c-1.556-1.204-3.403-.794-5.875-.491-1.796.22-3.166-.018-3.738-.238 4.933-.218 7.415-.953 8.993-1.729.649.425 1.111 1.058 1.225 1.621.248 1.223-.283 1.087-.605.837z" class="st0"/><path d="M6.981 27.686c-.033.331-.357.702-.484.762.041-.237-.244-.831-.551-1.084.161.899-.003 1.873-.203 2.477-.183.556-.426 1.33-.354 1.906.276-.809.82-1.734 1.8-2.722a4.253 4.253 0 0 1 1.553-.979c-.309-3.05-1.846-4.228-2.437-4.404-.363-.108-1.63-.01-1.672.697-.02.336 2.494 1.912 2.348 3.347M40.552 27.686c.033.331.357.702.484.762-.041-.237.244-.831.551-1.084-.161.899.003 1.873.203 2.477.183.556.426 1.33.354 1.906-.277-.809-.82-1.734-1.8-2.722a4.257 4.257 0 0 0-1.552-.979c.309-3.05 1.845-4.228 2.436-4.404.363-.108 1.63-.01 1.672.697.02.336-2.493 1.912-2.348 3.347" class="st2"/><path d="M42.27 14.338c-3.779-4.11-7.665-5.971-9.437-6.97-2.359-1.329-4.796-2.381-6.312-3.103-1.304-.621-2.293-.97-2.755-.97-.461 0-1.449.349-2.753.97-1.516.722-3.953 1.774-6.313 3.103-1.772.999-5.657 2.859-9.437 6.97-.5.543-1.347 2.012.519 3.618-.564-1.759 2.912-4.822 8.767-6.415-2.642.892-9.82 4.618-5.443 6.587-.561-1.068.373-4.816 12.84-5.199-1.28-.565-3.587-1.997-3.107-5.988 1.344 1.545 2.52 2.29 3.69 2.651l.056-1.702-2.223-.306V5.899l1.754-.126c.011-.955.746-1.729 1.649-1.729.904 0 1.639.774 1.65 1.729l1.754.126v1.685l-2.223.306.057 1.702c1.171-.361 2.346-1.106 3.692-2.651.479 3.99-1.827 5.423-3.108 5.988 12.466.383 13.401 4.132 12.84 5.199 4.377-1.969-2.8-5.695-5.443-6.587 5.856 1.593 9.332 4.656 8.767 6.415 1.866-1.606 1.019-3.075.519-3.618M35.274 52.384h-.006l-.271-.767h-.416v1.175h.239v-.936h.006l.329.936h.232l.34-.936h.006v.936h.239v-1.175h-.412zM33.449 51.825h.354v.967h.24v-.967h.354v-.208h-.948z" class="st0"/></svg>