<svg xmlns:xlink="http://www.w3.org/1999/xlink" xmlns="http://www.w3.org/2000/svg" viewBox="0 0 63.228 82.249" width="63.228"  height="82.249" ><g data-name="Layer 2"><path d="M22.044 12.3c.427-.447.865-.895 1.317-1.336 5.367-5.25 10.44-6.391 14.752-5.611a12.875 12.875 0 0 1 1.2-.885l.055-.033c-4.844-1.228-10.687-.3-16.821 5.7q-.945.92-1.813 1.863a2.167 2.167 0 0 1 .154.191 5.352 5.352 0 0 1 1.156.111zm25.614 30.45a8.187 8.187 0 0 0-.84.072c-.133.012-.264.023-.392.037-.255.023-.493.041-.673.051h-.185c-.212.551-.736 1.707-1.238 2.791 1.08-.524 2.218-1.07 2.683-1.281.5-.229 1.208-.705 1.856-.979.568-.24 2.045-.713 2.7.715a3.372 3.372 0 0 1-1.633 4.523c-1.358.8-6.219 3.07-7.386 3.613l-.65 1.06a71.34 71.34 0 0 1-6 17.625c-4.222 8.084-9.243 11.291-13.225 9.7-4.033-1.611-3.9-8.516-2.158-13.838 1.835-5.6 7.862-14.383 16.235-18.2l.08-.238a35.756 35.756 0 0 1-10.247 4.434c-8.357 2.184-16.418-.855-15.918-13.264a47.434 47.434 0 0 1 .969-7.963 37.546 37.546 0 0 1-1.088-.484A48.163 48.163 0 0 0 9.5 39.52c-.54 13.4 8.477 16.764 17.377 14.436.246-.064.487-.129.726-.2a34.9 34.9 0 0 0-8.2 12.715C17.737 71.578 17.1 79.7 22.244 81.758c4.969 1.986 10.482-2.18 14.693-10.242A72.389 72.389 0 0 0 43 53.785l.363-.58c1.565-.729 5.893-2.767 7.17-3.517a4.529 4.529 0 0 0 2.1-6.016 2.693 2.693 0 0 0-1.874-1.584 17.258 17.258 0 0 1-3.046.658c-.013 0-.038.004-.055.004z" fill="#e87d1e"/><path d="M18.425 44.361c-1.84-1.928-2.117-5.363-1.467-9.178a8.871 8.871 0 0 1-.743-1.16l-.165-.307c-1 4.59-.852 8.953 1.532 11.449 2.321 2.432 6.222 2.4 10.187 1.389a3.77 3.77 0 0 1-.053-.471v-.008c-.054-.062-.109-.121-.161-.191a5.533 5.533 0 0 1-.205-.309l-.59.023c-3.588.802-6.605.576-8.335-1.237zm9.747 21.032c-2.749 5.391-3.039 8.637-2.681 8.8.564.27 4.392-4.727 6.468-10.019.685-1.748 2-5.068 3.005-7.584a31.578 31.578 0 0 0-6.792 8.803zm2.7-1.641a35.747 35.747 0 0 1-3.649 6.824 33.524 33.524 0 0 1 1.986-4.656 27.954 27.954 0 0 1 2.263-3.691zm-8.003-44.93a3.613 3.613 0 0 1-.258.566 2.043 2.043 0 0 1 .148.416 3.675 3.675 0 0 1 .091.625 1.771 1.771 0 0 1-.123.561c.154-.225.308-.445.463-.658a32.632 32.632 0 0 1 2.094-2.586 13.262 13.262 0 0 1 .428-1.3 1.315 1.315 0 0 1-.173-.662 32.932 32.932 0 0 0-2.67 3.038zm23.418-9.437c4.921 4.1 6.526 9.412 6.631 11.373a6.077 6.077 0 0 1-.861 3.273c-.518.828-1.822 2-3.225.693-1.421-1.326-2.486-2.668-1.787-5a7.285 7.285 0 0 0 .433-1.98 3.342 3.342 0 0 0-.608-1.77c-.263-.437-.605-1.031-1.06-1.686a12.9 12.9 0 0 0-1.663-1.965 10.121 10.121 0 0 0-1.435-1.135c-.366.336-.637.588-.637.588l.064.43a8.955 8.955 0 0 1 1.2.961 11.576 11.576 0 0 1 1.511 1.789c.436.627.766 1.2 1.017 1.617a2.233 2.233 0 0 1 .443 1.17v.047a2.045 2.045 0 0 1 .057 2.33 6.021 6.021 0 0 1-.7 1.135 6.159 6.159 0 0 0 2.371 4.318c2.371 2.211 4.5-.109 5.009-.926a7.261 7.261 0 0 0 1.035-3.947c-.12-2.275-1.871-7.891-7.05-12.207a20.656 20.656 0 0 0-.325-.262c-.4.232-.754.453-1.061.649q.328.247.641.505zm-2.039-1.51q.555-.349 1.115-.654a19.687 19.687 0 0 0-4.381-2.289c-.4.295-.767.58-1.1.854a17.657 17.657 0 0 1 4.366 2.089z" fill="#e87d1e"/><path d="M17.583 45.166c-2.384-2.5-2.53-6.859-1.532-11.449-.161-.307-.294-.582-.379-.756l-.257-.129-.109-.027c-1.228 5.074-1.191 10.078 1.6 13.006 2.651 2.775 6.915 2.68 10.87 1.707a3.564 3.564 0 0 1-.034-.432 4.466 4.466 0 0 1 .027-.521v-.01C23.8 47.566 19.9 47.6 17.583 45.166z" fill="#f1e5c7"/><path d="M11.6 39.6a46.568 46.568 0 0 1 .917-7.648q-.441-.167-.88-.354a47.434 47.434 0 0 0-.969 7.963c-.5 12.408 7.561 15.447 15.918 13.264a35.756 35.756 0 0 0 10.247-4.434l-.08.238c-8.372 3.82-14.4 12.607-16.235 18.2-1.745 5.322-1.874 12.227 2.158 13.838 3.982 1.594 9-1.613 13.225-9.7A71.34 71.34 0 0 0 41.9 53.352l.659-1.057c1.167-.543 6.027-2.816 7.386-3.613a3.372 3.372 0 0 0 1.633-4.523c-.66-1.428-2.137-.955-2.7-.715-.648.273-1.355.75-1.856.979-.465.211-1.6.758-2.683 1.281.5-1.084 1.026-2.24 1.238-2.791a3.34 3.34 0 0 1-.419-.029l-.075.09s-.3.23-.793.59c-.715 1.613-1.92 4.135-1.92 4.135s4.04-1.98 5.03-2.429 2.789-1.887 3.328-.721a2.445 2.445 0 0 1-1.26 3.328c-1.528.9-7.555 3.688-7.555 3.688L41.012 53a70.649 70.649 0 0 1-5.936 17.541c-4.227 8.1-8.856 10.543-12.052 9.264-3.148-1.26-3.419-7.2-1.62-12.682s7.825-14.213 16.1-17.81l.544-1.59c-.605.348-1.189.664-1.721.9a20.038 20.038 0 0 1-3.856 1.5 3.38 3.38 0 0 1-1.575.381h-.227a36.263 36.263 0 0 1-4.318 1.422C18.437 53.994 11.132 51.227 11.6 39.6zM39.247 6.34l.015.006a6.4 6.4 0 0 1 .9.512A16.767 16.767 0 0 1 43.4 8.441c.279-.2.562-.387.846-.566a17.657 17.657 0 0 0-4.361-2.09c-.231.194-.442.379-.638.555zM23.221 16.918a6.7 6.7 0 0 1-.351 1.9 32.932 32.932 0 0 1 2.669-3.039 10.031 10.031 0 0 1 0-1.295 32.776 32.776 0 0 0-2.318 2.434zm.139-5.953c-.452.441-.89.889-1.317 1.336a2.182 2.182 0 0 1 .382.119 2.134 2.134 0 0 1 .508.3c.353-.365.71-.729 1.08-1.09 4.72-4.615 9.156-5.9 13.008-5.5l.207-.012c.281-.262.58-.519.885-.768-4.313-.776-9.386.365-14.753 5.615zm22.449 3.328c.454.654.8 1.248 1.06 1.686a3.342 3.342 0 0 1 .608 1.77 7.285 7.285 0 0 1-.433 1.98c-.7 2.328.366 3.67 1.787 5 1.4 1.311 2.707.135 3.225-.693a6.077 6.077 0 0 0 .861-3.273c-.1-1.961-1.71-7.271-6.631-11.373q-.312-.258-.641-.51c-.348.221-.627.406-.825.541.3.225.589.453.868.686 4.715 3.93 6.206 8.994 6.3 10.7s-1.17 4.5-2.52 3.238S47.4 21.793 47.938 20s.809-2.7-.27-4.5a14.847 14.847 0 0 0-4.242-4.953c-.248.223-.5.449-.715.646a10.121 10.121 0 0 1 1.435 1.135 12.9 12.9 0 0 1 1.663 1.965z" fill="#f1e5c7"/><path d="M27.341 64.969c-2.429 4.766-3.7 9.385-2.249 10.072 1.708.811 5.936-5.936 7.736-10.523 1.2-3.047 4.317-10.883 4.317-10.883a27.306 27.306 0 0 0-2.789 2.25 32.57 32.57 0 0 0-7.015 9.084zm4.618-.791c-2.076 5.293-5.9 10.289-6.468 10.019-.358-.168-.067-3.414 2.681-8.8a31.578 31.578 0 0 1 6.792-8.8c-1.002 2.512-2.32 5.833-3.005 7.581z" fill="#f1e5c7"/><path d="M21.4 67.127c-1.8 5.486-1.529 11.422 1.62 12.682 3.2 1.279 7.825-1.168 12.052-9.264A70.649 70.649 0 0 0 41.012 53l.9-1.439s6.026-2.787 7.555-3.687a2.445 2.445 0 0 0 1.26-3.328c-.539-1.166-2.339.271-3.328.721S42.361 47.7 42.361 47.7s1.2-2.521 1.92-4.135c-.6.441-1.484 1.08-2.436 1.734-1.146.789-2.517 1.7-3.8 2.43l-.544 1.59C29.23 52.914 23.2 61.641 21.4 67.127zm11.423-2.609c-1.8 4.588-6.027 11.334-7.736 10.523-1.453-.687-.18-5.307 2.249-10.072a32.57 32.57 0 0 1 7.015-9.084 27.306 27.306 0 0 1 2.789-2.25s-3.117 7.836-4.312 10.883zM16.907 45.811c-2.793-2.928-2.83-7.932-1.6-13.006a18.633 18.633 0 0 1-2.788-.85A46.568 46.568 0 0 0 11.6 39.6c-.469 11.623 6.836 14.391 14.752 12.322A36.263 36.263 0 0 0 30.67 50.5a3.262 3.262 0 0 1-2.893-2.986c-3.955.976-8.219 1.072-10.87-1.703zm7.106-34.18c-.369.361-.727.725-1.08 1.09a2.511 2.511 0 0 1 .734 2.383 5.936 5.936 0 0 1-.288 1.146 6.718 6.718 0 0 1-.142.367c0 .105-.01.2-.017.3a32.776 32.776 0 0 1 2.315-2.43c.034-.621.1-1.285.188-1.82a7.87 7.87 0 0 1 1.422-3.26c.414-.465 2.717-1.656 6.7-2.717a16.369 16.369 0 0 1 3.176-.559c-3.852-.404-8.289.885-13.008 5.5zm16.741-4.358a3.572 3.572 0 0 1 1.052 2.367l.873-.668c.235-.186.477-.361.719-.533a16.767 16.767 0 0 0-3.244-1.584c.179.116.377.252.6.418zm6.914 8.227c1.079 1.8.81 2.7.27 4.5s.18 2.787 1.528 4.047 2.608-1.527 2.52-3.238-1.582-6.773-6.3-10.7c-.279-.232-.57-.461-.868-.686-.128.086-.23.154-.282.191-.207.143-.655.531-1.113.939a14.847 14.847 0 0 1 4.245 4.947z" fill="#00502f"/><path d="M38.064 11.992a1.009 1.009 0 0 0 .143-.172 2.4 2.4 0 0 0 .251-.469l.163-.412a2.073 2.073 0 0 0-.374.512 1.473 1.473 0 0 0-.183.541z" fill="#f1e5c7"/><path d="M34.736 9.486a6.982 6.982 0 0 0-.9 1.617c-.167.615.38.693.464.631.021-.016 1-1.557 1-1.557-.233-.076-.557-.674-.557-.674zm2.059-1.81l-.188-.3-1.49 1.704s.1.5.209.578.2.146.2.146l1.186-1.437.367-.461a1.276 1.276 0 0 1-.284-.23zm2.488-2.645a23.434 23.434 0 0 0-2.294 1.93c-.11.172.364.631.364.631l2.2-2.119c-.176-.08-.27-.442-.27-.442zm.569.169s1.948-1.419 2.007-1.419-.125-.16-.156-.223a18.358 18.358 0 0 0-1.992 1.2s.046.383.141.442zm2.356-1.657s1.88-1.057 2.719-1.453c-.757.316-2.519 1.059-2.876 1.279z" fill="#e87d1e"/><path d="M63.024 4.828a26.868 26.868 0 0 0-9.491-.32 25.1 25.1 0 0 0-8.17 2.713q-.559.3-1.115.654a19.053 19.053 0 0 0-1.565 1.099l-.873.668a3.572 3.572 0 0 0-1.052-2.367c-.224-.166-.422-.3-.6-.416a6.4 6.4 0 0 0-.9-.512l-.015-.006c.2-.176.407-.361.64-.555.329-.273.7-.559 1.1-.854a20.854 20.854 0 0 1 5.066-2.76A21.7 21.7 0 0 1 54.441.416a3.208 3.208 0 0 1 .412.027s.355.127.382-.158S54.93 0 54.8 0a30.369 30.369 0 0 0-7.2.748 26.686 26.686 0 0 0-8.231 3.684l-.055.033a12.875 12.875 0 0 0-1.2.885c-.3.248-.6.506-.885.768l-.207.012a16.369 16.369 0 0 0-3.176.559c-3.983 1.061-6.286 2.252-6.7 2.717a7.87 7.87 0 0 0-1.422 3.26 18.77 18.77 0 0 0-.187 1.82 10.031 10.031 0 0 0 0 1.3 1.315 1.315 0 0 0 .173.662 13.262 13.262 0 0 0-.428 1.3 18.7 18.7 0 0 0-.7 5.309c-.687-.3-1.487-.656-2.379-.988-.045-.018-.094-.033-.14-.051-.134-.049-.268-.1-.408-.146a1.748 1.748 0 0 0 .772-.424 1.38 1.38 0 0 0 .3-.455 1.771 1.771 0 0 0 .123-.561 3.675 3.675 0 0 0-.091-.625 2.043 2.043 0 0 0-.148-.416 3.613 3.613 0 0 0 .258-.566 6.7 6.7 0 0 0 .351-1.9c.006-.1.013-.2.017-.3.036-.086.087-.211.142-.367a5.936 5.936 0 0 0 .288-1.146 2.511 2.511 0 0 0-.734-2.383 2.134 2.134 0 0 0-.508-.3 2.182 2.182 0 0 0-.382-.119 5.352 5.352 0 0 0-1.157-.113 2.167 2.167 0 0 0-.154-.197c-.609-.682-1.921-1.293-4.252.4a4.986 4.986 0 0 0-1.455.943c-.6.2-3.062 1-3.789 1.2-.211.057-.758.174-1.487.391a18.309 18.309 0 0 0-2.663 1 10.04 10.04 0 0 0-5 4.6 1.847 1.847 0 0 0-.211.094c-.394.2-2.037 1.844-1.867 3.088a3.465 3.465 0 0 1 .01.48 1.674 1.674 0 0 0 .185.8 4.883 4.883 0 0 0 2.2 1.676c1.253.645 3.321 1.945 5.655 3.2.8.428 1.638.854 2.489 1.25.361.166.723.33 1.088.484q.439.188.88.354a18.633 18.633 0 0 0 2.788.85c.037.008.074.02.109.027l.257.129c.085.174.218.449.379.756l.165.307a8.871 8.871 0 0 0 .743 1.16 2.352 2.352 0 0 0 .638.6 4.447 4.447 0 0 0 1.784.473l2.713.4c-.21.473-.482 1.113-.732 1.8a15.054 15.054 0 0 0-.775 2.813 1.544 1.544 0 0 0-.115.291 3.453 3.453 0 0 0 .448 2.416l.079.154c1.13 1.631 3.547 1.629 3.935 1.555l-.043.014c.253-.023.485-.047.538-.047.077 0 .752-.027 1.331-.049l.59-.023c.071.115.14.217.205.309.052.07.107.129.161.191.037.041.071.088.108.127a3.357 3.357 0 0 0-.053.361 4.466 4.466 0 0 0-.027.521 3.564 3.564 0 0 0 .034.432A3.262 3.262 0 0 0 30.67 50.5c.074 0 .149.006.227 0a3.38 3.38 0 0 0 1.575-.381 20.038 20.038 0 0 0 3.856-1.5c.531-.24 1.115-.557 1.721-.9 1.279-.734 2.65-1.641 3.8-2.43a102.188 102.188 0 0 0 3.229-2.324l.075-.09a3.34 3.34 0 0 0 .419.029h.185c.18-.01.418-.027.673-.051.128-.014.259-.025.392-.037.31-.029.612-.057.84-.072h.055a17.258 17.258 0 0 0 3.046-.658 21.645 21.645 0 0 0 3.9-1.514 10.679 10.679 0 0 0 3.056-2.15c.09-.119.287-.367.491-.65a6.74 6.74 0 0 0 .558-.887 2.933 2.933 0 0 0 .074-2.586 15.406 15.406 0 0 0-3.629-4.141 21.307 21.307 0 0 0-1.811-1.043c-.16-.086-.32-.17-.471-.246-.616-.312-1.3-.631-1.473-.715l-.046-.02h-.007c-.086-.035-.168-.072-.256-.107a5.621 5.621 0 0 0-1.975-1.043c-.521-.139-5.4-1.133-5.946-1.215a6.145 6.145 0 0 0-.614-.33 6.069 6.069 0 0 0-1.045-.371 6.241 6.241 0 0 0 1.156-2.375l.693-.414a.33.33 0 0 0 .092-.293c-.047-.154-.262-.141-.353-.078a2.352 2.352 0 0 1-.353.154 4.518 4.518 0 0 0-.478-2.215s-.1-.16-.04-.219a.411.411 0 0 0 .088-.145 1.261 1.261 0 0 1 .291.262 4.842 4.842 0 0 1 .77 1.32 4.743 4.743 0 0 0 .377 1c.029.043.218.406.479.391a1.028 1.028 0 0 0 .509-.219 9.515 9.515 0 0 0 .865-.982 6.021 6.021 0 0 0 .7-1.135 2.045 2.045 0 0 0-.057-2.33l-.017-.025C45.8 17.1 43.3 14.676 43.3 14.676l-.912-.8-.254-1.668-.064-.43s.271-.252.637-.588c.217-.2.467-.424.715-.646.458-.408.906-.8 1.113-.939l.282-.191a36.696 36.696 0 0 1 1.886-1.19A22.39 22.39 0 0 1 52.789 5.6s5.449-1.242 9.774-.354l.367.055a.24.24 0 1 0 .094-.471zM14.5 20.525a11.663 11.663 0 0 0-1.07-.055l.785-.885a6.05 6.05 0 0 0 .457.617c.1.123.219.25.347.373-.159-.018-.337-.032-.519-.05zM44.926 2.09a2.636 2.636 0 0 1 .349-.145l-.349.145c-.839.4-2.719 1.453-2.719 1.453l-.157-.174c.358-.221 2.12-.963 2.876-1.279zM41.7 3.559c.031.063.221.223.156.223S39.852 5.2 39.852 5.2c-.095-.062-.142-.441-.142-.441a18.358 18.358 0 0 1 1.99-1.2zm-2.42 1.473s.094.361.269.441l-2.2 2.119s-.475-.459-.364-.631a23.434 23.434 0 0 1 2.298-1.93zM35.117 9.08l1.489-1.709s.125.209.188.3a1.276 1.276 0 0 0 .283.23l-.367.461L35.525 9.8s-.095-.074-.2-.146-.208-.574-.208-.574zm.182 1.1s-.98 1.541-1 1.557c-.084.063-.631-.016-.464-.631a6.982 6.982 0 0 1 .9-1.617l.006.018s.325.593.559.671z" fill="#231f20"/><path d="M30.192 38.627l-.973.207-.207-.553s-.1-.225-.3-.154-.155.33-.13.357l.3.7a.2.2 0 0 0 .214.156c.174-.014 1.193-.246 1.193-.246a.244.244 0 0 0 .181-.266.223.223 0 0 0-.278-.201zm2.493-1.979s.078.156.449.086.978-.178.978-.178.236-.137-.15-.352a.7.7 0 0 0-.256.008l-.793.135-.486-.514s-.086-.129-.293-.049c-.145.055-.078.186-.006.256zm1.033.438a.259.259 0 0 0-.136.352l.288.7a.2.2 0 0 0 .211.16c.176-.01 1.2-.228 1.2-.228a.245.245 0 0 0 .186-.262.226.226 0 0 0-.27-.207l-.975.193-.2-.555s-.097-.223-.304-.153zm-.846 1.014l-.972.2-.2-.555s-.093-.226-.3-.158a.263.263 0 0 0-.135.354l.288.7a.2.2 0 0 0 .211.16c.175-.01 1.2-.229 1.2-.229a.244.244 0 0 0 .185-.264.225.225 0 0 0-.277-.208zm-2.327-1.034s.079.156.45.086.977-.18.977-.18.237-.135-.148-.35a.708.708 0 0 0-.258.008l-.792.135-.486-.514S30.2 36.123 30 36.2c-.146.055-.078.184-.007.256zm-2.517.428s.079.156.45.086.979-.18.979-.18.235-.133-.15-.348a.727.727 0 0 0-.257.006l-.793.137-.486-.516s-.086-.129-.293-.049c-.146.057-.078.186-.007.258z" fill="#231f20"/><path d="M47.675 32.822v.678a9.164 9.164 0 0 1 2.634-.715c.668-.025 1.741-.047 1.741-.047s.432.352-.019.406c-.511.063-1.425.039-1.94.119A10.043 10.043 0 0 0 47 34.406a19.93 19.93 0 0 1-2.932 2.1 16.632 16.632 0 0 1 1.035 1.988s.193.625.232.824a5.366 5.366 0 0 1-.117 1.387c-.08.156.118.33.236.395s1.584-.119 2.257-.16a21.629 21.629 0 0 0 6.255-1.979c2.336-1.225 2.336-2.137 2.336-2.137s.316-.516.435-.516.238.277.238.277.791-.91.435-1.623a14.158 14.158 0 0 0-3.049-3.484 32.285 32.285 0 0 0-3.32-1.778s-2.455-.225-3.366 3.122z" fill="#00502f"/><path d="M23.763 40.475c-.092-.121-.058-.225-.071-.365a.515.515 0 0 1 .1-.332c.021 0 .021-.065.015-.148a.25.25 0 0 1 .246-.23c.162-.016.226.211.226.344s-.091.182-.1.211-.028.168-.028.168-.1.008.084.154a.245.245 0 0 1 .068.326l2.4.182a3.489 3.489 0 0 0-.385-1.178 1.56 1.56 0 0 0-1.337-1.016 1.224 1.224 0 0 1-.633-.062c-.285-.135-.062-.482-.062-.482a2.01 2.01 0 0 1 .917-1.08 1.87 1.87 0 0 1 1.525.063c.893.387 1.277 2.281 1.426 2.852s.93.422.93.422c2.555-.807 7.4-1.934 7.4-1.934a1.5 1.5 0 0 0-.905-1.312.239.239 0 0 1-.086-.336c.111-.187.322-.062.322-.062a2.642 2.642 0 0 1 .645.484 1.966 1.966 0 0 1 .533 1.414c-.025.3-.633.283-.633.283-5.987 1.338-7.413 2.022-7.413 2.022s-.6.248-.6 1.523a4 4 0 0 0 .691 2.4.839.839 0 0 0 .786.353c.209-.006.243.1.243.1l.438-.16a1.556 1.556 0 0 1-.459-.152 2.3 2.3 0 0 1-.868-.832.778.778 0 0 1-.1-.529c.014-.043.042-.272.216-.266a.258.258 0 0 1 .264.244s-.021-.07-.007.184.237.5.619.713a2.02 2.02 0 0 0 .89.258c.285.035.243.154.243.154 1-.2 7.086-2.764 7.086-2.764.05-.017.275-.09.351.094a.269.269 0 0 1-.1.31l-.359.172c-.866.381-7.775 2.93-8.03 3.082s-.711.16-.7 1.223a1.611 1.611 0 0 0 1.362 1.73c.594-.029.506-.108.506-.108a2.317 2.317 0 0 1-1.006-.857c-.076-.266-.076-.609.266-.57s0 .3.456.758a2.029 2.029 0 0 0 1.326.418 20.854 20.854 0 0 0 3.261-1.365 63.14 63.14 0 0 0 8.267-5.348 1.354 1.354 0 0 0 .417-1.174c.227-1.178-.228-2.086-.833-3.338a2.109 2.109 0 0 0-1.784-1.252 4.4 4.4 0 0 1 .8 2.223c.234 1.143-.551 1.2-.551 1.2a3.427 3.427 0 0 1-1.269.209c-.441-.084-.621-1.31-.621-1.31a4.552 4.552 0 0 0-1.559-2.525 36.132 36.132 0 0 0-4.937-.232 48.5 48.5 0 0 0-6.345.357c-2.111.221-2.387.828-2.387.828-1.076.688-2.034 3.758-2.034 3.758l.9.172s.069.05-.023-.069zm6.52-1.381s-1.018.232-1.193.246a.2.2 0 0 1-.214-.156l-.3-.7c-.025-.027-.077-.287.13-.357s.3.154.3.154l.207.553.973-.207a.223.223 0 0 1 .272.2.244.244 0 0 1-.175.267zm2.673-.522s-1.022.219-1.2.229a.2.2 0 0 1-.211-.16l-.288-.7a.263.263 0 0 1 .135-.354c.208-.068.3.158.3.158l.2.555.975-.193a.225.225 0 0 1 .27.2.244.244 0 0 1-.18.265zm2.238-.967a.226.226 0 0 1 .27.207.245.245 0 0 1-.186.262s-1.021.219-1.2.228a.2.2 0 0 1-.211-.16l-.288-.7a.259.259 0 0 1 .136-.352c.207-.07.3.158.3.158l.2.555zm-3.06-1.82c.207-.08.293.049.293.049l.486.514.793-.135a.7.7 0 0 1 .256-.008c.387.215.15.352.15.352s-.607.105-.978.178-.449-.086-.449-.086l-.557-.607c-.071-.071-.139-.202.007-.257zM30 36.2c.207-.08.293.049.293.049l.486.514.792-.135a.708.708 0 0 1 .258-.008c.385.215.148.35.148.35s-.606.107-.977.18-.45-.086-.45-.086l-.557-.607c-.076-.07-.144-.199.007-.257zm-2.517.428c.207-.08.293.049.293.049l.486.516.793-.137a.727.727 0 0 1 .257-.006c.385.215.15.348.15.348s-.607.108-.979.18-.45-.086-.45-.086l-.557-.605c-.076-.071-.143-.199.003-.256z" fill="#e87d1e"/><path d="M22.647 43.342l.657.348a1 1 0 0 1-.128-.248 8.757 8.757 0 0 1-.011-1.236s.03-.314.248-.275.217.287.217.346.021 1.068.021 1.068a1.029 1.029 0 0 0 .208.445.651.651 0 0 0 .316.168c.079 0 1.227-.119 1.355-.119s1.315-.049 1.315-.049.088-.117.04-.207a3.394 3.394 0 0 1-.268-1.535c.069-.7.119-.664.119-.664s.021-.105-.059-.115-1.987-.119-2.533-.209l-1.375-.228a5.832 5.832 0 0 0-.217 2.275z" fill="#e87d1e"/><path d="M40.638 37.477a2.19 2.19 0 0 0 .541 1.531s.864-.133.99-.34c0 0-.045-2.027-.937-2.652l-.205-.1-1.443-.116a2.21 2.21 0 0 1 1.054 1.677zm-1.149 38.052h-.864v2.354h-.585v-2.354h-.863v-.512h2.312zm3.918 2.354h-.585V75.6h-.014l-.83 2.279h-.564l-.8-2.279H40.6v2.279h-.584v-2.861h1.014l.666 1.871h.014l.693-1.871h1.007zm-25.72-64.822c.1.025 1 .105 1.259.41a1.977 1.977 0 0 1-.269 2.232c-.1.172-.486.5.4.453a1.283 1.283 0 0 0 1.148-.723s.328-1.812-.344-2.479c-.555-.549-2.11.025-2.11.025s-.189.054-.084.082zm2.999.712c.02.078.788.309.768.941a2.153 2.153 0 0 1-.557 1.574c-.441.48-.518.559-.327.635a3.1 3.1 0 0 0 1.268-.135c.134-.094.537-.115.672-1.4s-.115-1.5-.519-1.65a6.577 6.577 0 0 0-1.383-.228s.059.19.078.263z" fill="#00502f"/><path d="M15.263 19.705l.2-.205c-.042-.039-.08-.082-.116-.109-.082-.1-.158-.2-.134-.217a.024.024 0 0 1 .039.006 1.944 1.944 0 0 0 .263.264l.07-.074c.07-.059.138-.117.2-.178l-.031-.031a.874.874 0 0 1-.256-.273c.01-.033.021-.041.049-.012.107.08.2.184.3.258.116-.109.225-.219.326-.332a1.706 1.706 0 0 1-.3-.269c-.078-.07-.087-.125-.049-.166a3.383 3.383 0 0 0 .357.322l.054.039a3.63 3.63 0 0 0 .245-.324 3.935 3.935 0 0 1-.341-.307c-.159-.125-.148-.2-.125-.221.014-.045.343.234.543.406a3.025 3.025 0 0 0 .2-.365 1.233 1.233 0 0 1-.072-.057c-.169-.133-.431-.412-.413-.506.012-.072.037-.082.055-.064a6.285 6.285 0 0 0 .468.422l.037.031a3.627 3.627 0 0 0 .145-.473 4.232 4.232 0 0 0-.488-.3.346.346 0 0 1-.116-.109c-.012-.07-.014-.123.059-.135a3.92 3.92 0 0 1 .588.348 5.284 5.284 0 0 0 .075-.619c-.217-.057-.472-.094-.679-.16-.055-.01-.048-.053-.061-.1a.059.059 0 0 1 .073-.076c.122.021.226.045.338.063a1.4 1.4 0 0 0 .324.045l.017-.2a2.424 2.424 0 0 0-.019-.309 1.44 1.44 0 0 1-.288-.037c-.208-.033-.514-.039-.491-.231.036-.1.291-.014.291-.014.151.02.292.031.452.049a2.982 2.982 0 0 0-.191-.592 4.032 4.032 0 0 1-.594 0 1.09 1.09 0 0 1-.2-.016.082.082 0 0 1-.042-.141c.23-.127.458.014.719-.055a2.059 2.059 0 0 0-.314-.5 1.64 1.64 0 0 1-.062-.156 3.985 3.985 0 0 0-1.84 2.721 4.156 4.156 0 0 0 .735 2.959z" fill="#f1e5c7"/><path d="M16.934 14.5c.19-.213.394-.564.433-.561a.134.134 0 0 1 .071.2 3.507 3.507 0 0 1-.4.566 3.956 3.956 0 0 1 .187.682.915.915 0 0 1 .091-.1c.178-.158.262-.26.44-.434.074-.031.088.111.067.168a.614.614 0 0 1-.1.168c-.167.158-.219.213-.381.363a.461.461 0 0 0-.073.078c.018.144.032.3.038.465.079-.061.157-.131.233-.182l.289-.27c.043 0 .063.057.077.1-.014.07-.022.055-.084.135a1.658 1.658 0 0 1-.371.342 1.473 1.473 0 0 1-.143.121 4.245 4.245 0 0 1-.068.658 5.027 5.027 0 0 0 .687-.4c.031.045 0 .135-.034.182a1.846 1.846 0 0 1-.7.432 3.847 3.847 0 0 1-.168.529c.17.031.316-.066.5-.113.053-.018.129-.049.15 0a.108.108 0 0 1-.036.146 2.957 2.957 0 0 1-.654.182.2.2 0 0 0-.072.027l-.1.2-.1.172h.036a1.93 1.93 0 0 1 .4 0c.027.014.1.033.07.072-.037.068-.106.049-.193.055a2.273 2.273 0 0 0-.348.008.115.115 0 0 1-.043-.006 4.72 4.72 0 0 1-.219.318h.031a.66.66 0 0 0 .255 0c.057-.006.192-.016.206.014.031.121-.223.082-.349.1a.35.35 0 0 1-.165 0c-.05.006-.047 0-.054-.006a4.245 4.245 0 0 1-.282.324.376.376 0 0 0 .094 0c.089 0 .147-.02.259-.008a.063.063 0 0 1 .04.063c-.006.02-.044.031-.079.039a.747.747 0 0 1-.4-.014 2.926 2.926 0 0 1-.282.24.462.462 0 0 0 .253.025s.089-.01.083.023-.138.053-.221.061a.532.532 0 0 1-.192-.053 1.852 1.852 0 0 1-.295.168 3.489 3.489 0 0 0 .487.49 3.629 3.629 0 0 0 3.266.807 1.915 1.915 0 0 1-.4-.539c-.1-.25.212-.807 1.076-.979a5.786 5.786 0 0 1 .884-.1.069.069 0 0 1 0-.066.572.572 0 0 1 .119-.146c-.152.031-.159.125-.365.039-.038-.027-.033-.062-.007-.076.1.025.1.029.141.025.139-.025.224-.1.315-.09a.647.647 0 0 0 .12-.152c.029-.051.058-.1.083-.152a.831.831 0 0 1-.291.1.793.793 0 0 1-.294-.072c-.02-.047.059-.094.089-.105.189-.057.258.08.444-.025a.848.848 0 0 0 .134-.082 3.36 3.36 0 0 0 .128-.4.207.207 0 0 1-.055.037.842.842 0 0 1-.17.047.619.619 0 0 1-.267-.055c-.019-.025.009-.068.017-.09.215-.051.257.119.443-.039a.89.89 0 0 1 .077-.082c.029-.139.048-.258.061-.346-.079.068-.043.006-.2.08-.094.057-.216.137-.325.031a.041.041 0 0 1 .023-.059c.26-.051.2-.078.411-.2a.247.247 0 0 1 .115-.047 1.11 1.11 0 0 0 .026-.17.2.2 0 0 1 0-.053c-.218.039-.408.078-.408.078a3.144 3.144 0 0 1-.365-.019 1.075 1.075 0 0 1-.519-.231c-.172-.154-.076-.4-.1-.478s-.229-.039-.229-.039a1.5 1.5 0 0 1-1.632-.309c-.078-.1-.308.02.134-.746s.307-.521.422-1.1-.095-.594-.288-.785-.441-.1-.577-.1a9.265 9.265 0 0 0-.9.213 3.211 3.211 0 0 0-.442.166 3.262 3.262 0 0 1 .435.54z" fill="#f1e5c7"/><path d="M21.876 17.555c.141-.08.156-.025.181 0-.09.2-.236.148-.452.168a.872.872 0 0 1-.132-.01 7.35 7.35 0 0 1-.078.359.742.742 0 0 1 .093.051.365.365 0 0 0 .366-.01c.033-.014.083-.064.128-.01.03.162-.246.209-.409.211a.441.441 0 0 1-.22-.072 6.55 6.55 0 0 1-.117.4c.021.02.034.047.071.057a.587.587 0 0 0 .381 0c.069-.023.034.057.034.057a.385.385 0 0 1-.3.1.575.575 0 0 1-.243-.078.5.5 0 0 1-.041.08 3.218 3.218 0 0 1-.223.32.489.489 0 0 0 .263.066c.078.02.09.059-.022.092a.729.729 0 0 1-.31-.074 1.03 1.03 0 0 1-.193.193 6.266 6.266 0 0 1 .794.023 3.717 3.717 0 0 0 .672-2.092.144.144 0 0 0-.077-.154 2.285 2.285 0 0 0-.516.055 2.135 2.135 0 0 1-.033.27.471.471 0 0 0 .383-.002z" fill="#f1e5c7"/><path d="M20.935 20.938c.884-.443.616-.844.346-.98a1.14 1.14 0 0 0-.613-.076 3.535 3.535 0 0 0-1.46.441s-.153.018-.019.268a1.374 1.374 0 0 0 1.746.347zm-5.256 10.234s.089-2.08.1-3.344a12.938 12.938 0 0 1 .709-3.217l-.354-.141a4.251 4.251 0 0 1-2.124-2.334 3.389 3.389 0 0 0-.208-.461 27.693 27.693 0 0 0-2.719 1c-.044.016-2.659 1.309-3.045 1.441s-.416.193-.61-.074 1-.578 1-.578a8.015 8.015 0 0 0 2.5-1.561c.447-.477 3.106-3.818 3.106-3.818a5.349 5.349 0 0 1 .728-3.283 14.765 14.765 0 0 1-3.648 1.25c-1.087.3-1.969.7-3.194 1.088a8.468 8.468 0 0 0-4.675 4.025 8.354 8.354 0 0 0-.833 1.854c-.347.275-.393-.141-.393-.141l.278-.949s-.764.719-.764.764a1.483 1.483 0 0 0 .3 2.268c.509.279 5.1 2.664 5.1 2.664 6.167 3.338 8.746 3.547 8.746 3.547z" fill="#00502f"/><path d="M17.308 24.75c-.788-.2-.984 6.492-.641 7.18a4.509 4.509 0 0 0 2.116 2.17 12.333 12.333 0 0 1 .788-9.641 5.577 5.577 0 0 1-2.263.291z" fill="#f1e5c7"/><path d="M20.259 24.307a11.456 11.456 0 0 0-.879 10.053s2.814.637 3.148.824c.826.459 1.148.115 1.148.115a7.507 7.507 0 0 1 1-.65 4.741 4.741 0 0 1 .917-.209 9.648 9.648 0 0 1 1.437-.252c.921-.1 1.628-.176 2.394-.234l-.361-1.137a.192.192 0 0 1 .114-.277c.192-.068.215-.02.3.156a11.723 11.723 0 0 1 .467 1.221c.271-.018.557-.031.867-.045l-.611-1.059a4.4 4.4 0 0 1-.844-.543 26.15 26.15 0 0 1-.319-.205l-.06-.357-.119.008a1.994 1.994 0 0 1-2.5-1.012c-1.208-1.781-1.56-4.818-1.647-5.844l-.042-.363-2.885-1.174a2.92 2.92 0 0 1-1.525.984zm17.813 6.898l-3.059 2.629a44.66 44.66 0 0 1 1.756.072 21.992 21.992 0 0 1 1.303-2.701zm3.228-1.812l.457-.6s-.832.543-1.187.729-1.353.854-1.353.854-.205.254-.291.375a18.852 18.852 0 0 0-1.554 3.2c.488.039.88.078 1.163.109a13.246 13.246 0 0 1 2.765-4.667zm-1.956 4.896l.457.051c.41 0 .872 0 1.315.008a1.42 1.42 0 0 1 .209-.006 6.724 6.724 0 0 1 1.69.209 3.889 3.889 0 0 1 .573.3c.393-.268.8-.6.8-.6s-.276-.3.2-2.545a8.009 8.009 0 0 1 2.519-3.916l-2.666-.539s.084.25-.123.27c-.706.07-2.292 1.707-2.292 1.707a14.072 14.072 0 0 0-3 4.889.5.5 0 0 1 .056.01l.262.162z" fill="#f1e5c7"/><path d="M45.925 32.479c.006-.023.016-.043.022-.066a5.1 5.1 0 0 1 1-2.506 6.154 6.154 0 0 1 1.916-1.522l-.775-.3s-.644-.457-2.1 1.645a6.271 6.271 0 0 0-1.16 4.137l1.035-.723.007-.445z" fill="#f1e5c7"/><path d="M40.17 23.729c.107-.285.41-1 .41-1l-.018-.09c-.018-.088.16-.176.16-.176l.142-.338a6.473 6.473 0 0 1-1.672-.338 2.987 2.987 0 0 1-1.816-1.105l-.89 1.566a10.981 10.981 0 0 1-4.075 3.025c-1.922.748-2.705-.018-2.705-.018a3.984 3.984 0 0 1-.979-2.312A7.86 7.86 0 0 1 29.4 18a9.708 9.708 0 0 1 2.786-2.75l-.911.01a.236.236 0 0 1-.247-.24c-.009-.248.331-.248.331-.248A7.157 7.157 0 0 1 33 14.9a6.232 6.232 0 0 1 1.01-.25 2.07 2.07 0 0 0-.236-.344 2.564 2.564 0 0 0-.449-.348 9.355 9.355 0 0 0-3.488.445 10 10 0 0 0-3.488 2.1c-1.439 2.123-1.178 7.9-1.178 7.9.252 4.785 1.9 6.336 1.9 6.336a1.407 1.407 0 0 0 1.6.535 2.958 2.958 0 0 0-1.406-1.228c-.124-.035-.337-.2-.284-.356s.392-.143.392-.143a3.7 3.7 0 0 1 1.527 1.211c.214.285.2.141.2.141v-.5a5.474 5.474 0 0 0-.624-.8c-.266-.25-.925-.641-1.21-.943a2.1 2.1 0 0 1-.16-1.744 2.723 2.723 0 0 1 1.016-1.3 1.361 1.361 0 0 0-.5-.285l-.356.393s-.213.2-.337-.033.017-.322.017-.322a2.721 2.721 0 0 1 1.246-.926c.107-.018.392-.107.445.125s-.214.32-.214.32l-.355.123a3.632 3.632 0 0 1 1.512 2.6 15.53 15.53 0 0 1-.16 4.092 6.786 6.786 0 0 0 3.416 1.441c.393.037.944-.535.944-.535 3.56-2.773 6.283-8.593 6.39-8.876z" fill="#00502f"/><path d="M35.082 17.141a3.253 3.253 0 0 0-2.105-1.75c-4.1 1.949-3.922 5.475-3.922 5.475.088 4.3 1.439 4.254 1.439 4.254 1.752.287 4.058-1.684 4.058-1.684a2.391 2.391 0 0 1-1.863-.4s-.863-.287-.442-2.723a4.283 4.283 0 0 1 2.835-3.172zm1.259 3.892c.042-.072.322-.779-.126-.967s-.831.531-.831.531-.27.561.1.842.816-.332.857-.406z" fill="#f1e5c7"/><path d="M34.316 15.1a2.3 2.3 0 0 0-.57.076c.076.066.473.33.669.461s.5.57.461.428-.473-.855-.473-.855.023-.079-.087-.11z" fill="#003f41"/><path d="M35.429 26.258a11.15 11.15 0 0 0-2.275-.318c-.212.014-.609-.039-.648.662a12.437 12.437 0 0 1-.517 1.945s-.238.344.026.49.345-.158.345-.158a12.6 12.6 0 0 0 .608-2.2s.013-.213.079-.238a12.4 12.4 0 0 1 2.991.424s.092.064-.4.742a6.632 6.632 0 0 1-.608.777.227.227 0 0 0-.013.357.247.247 0 0 0 .371-.025 10.169 10.169 0 0 0 1.1-1.629 3.854 3.854 0 0 1 .781.756.273.273 0 0 0 .41.119.3.3 0 0 0 0-.424c-.205-.238-.373-.931-2.25-1.28z" fill="#231f20"/><path d="M40.609 23.828s-1.26 2.518-1.4 2.734a9.868 9.868 0 0 0 1.367-1.027s-.399-.377.033-1.707zm.611-1.334a2.511 2.511 0 0 0 1.116-.162v-.754a5.667 5.667 0 0 1-.9.34zm.289.863c-.252.684.252.83.252.83a5.978 5.978 0 0 0 .5-1.242s-.5-.271-.752.412zm-7.42-9.757c-.041.014-.01.018-.01.018l.335.34c.476.344 1.39 2.307 2.215 3.227.758.844 3.091.355 3.091.355a10.211 10.211 0 0 1 5.214.26 1.32 1.32 0 0 1 .723 1.6 5.935 5.935 0 0 1-1.184 2.477 5.952 5.952 0 0 0 1.627-2.389 1.634 1.634 0 0 0-.27-1.613c-.276-.369-2.3-2.3-2.815-2.812a6.1 6.1 0 0 0-2.179-1.463c-1.487-.745-6.747 0-6.747 0z" fill="#f1e5c7"/><path d="M43.586 8.9l-1.7 1.35c-.078.092.1.727.1.727s.052.145.13.106 1.826-1.584 1.826-1.584c-.142-.077-.356-.599-.356-.599zm3.037-1.822a19.477 19.477 0 0 0-2.568 1.48.809.809 0 0 0 .232.662l2.557-1.713c-.13-.077-.221-.429-.221-.429zm2.701-.933a.956.956 0 0 1-.026-.117s-2.153.832-2.207.844a2.9 2.9 0 0 1 .078.467s2.077-1.039 2.194-1.066-.027-.091-.039-.128zm.441-.04s2.855-.973 3.361-1.039a19.892 19.892 0 0 0-3.414.832s.079.143.053.207zM27.488 28.066s1.568 1.16 1.568 1.715a4.22 4.22 0 0 0-.754-3.863s-1.192 1.307-.814 2.148z" fill="#e87d1e"/><path d="M37.762 7.826a22.916 22.916 0 0 0-3.02 4.1s.49-.051.438.234-.465.283-.465.283A1.9 1.9 0 0 1 33.5 11.8l-.021-.094c.024.508.059.879.047.922-.025.1.027.359-.205.334s-.258-.387-.258-.387l-.078-1.059a9.6 9.6 0 0 1 .465-3.459c.051-.078.232-.723.542-.619s0 .619 0 .619-.077-.26-.388.98a8.466 8.466 0 0 0-.148 2.049c.028-.225.07-.422.07-.422l1.215-1.91A27.864 27.864 0 0 1 36.73 6.6c-.1.014-.2.025-.3.045a26.03 26.03 0 0 0-7.108 2.012 3.419 3.419 0 0 0-2.065 1.523 10.994 10.994 0 0 0-1.135 4.983s-.024.506.065.512c0 0 2.939-2 4.613-2.082a6.1 6.1 0 0 1 2.393-.133.252.252 0 0 1 .228-.26 38.258 38.258 0 0 1 5.1-.453 6.1 6.1 0 0 1 3.339.84l-.622-4.437a2.717 2.717 0 0 0-.7-1.426 3.782 3.782 0 0 0-1.714-1 15.022 15.022 0 0 0-1.062 1.102z" fill="#f1e5c7"/><path d="M37.029 9.709c-.035.85.525 1.061 1.1.912a2.681 2.681 0 0 0 .3-.1 2.322 2.322 0 0 0-.732 1.008c-.116.352-.135.838.157.955s.634-.119.915-.66a4.707 4.707 0 0 0 .4-1.185l.041-.061c.087-.041.4-.187.49-.24a.248.248 0 0 0 .119-.332.127.127 0 0 0-.119-.076.2.2 0 0 0-.1.018c-.045.02-.093.053-.127.068l-.123.057.059-.131a.253.253 0 0 0 .006-.16l-.015-.055-.023-.051a.129.129 0 0 0-.112-.074.246.246 0 0 0-.091.02l-.07.035-.012.035a.813.813 0 0 0-.12.088 1.157 1.157 0 0 1-.176.135c-.027.012-.1.051-.2.1a2.516 2.516 0 0 1-.36.133.7.7 0 0 1-.7-.074c-.326-.344 0-1.25.314-1.684a1.355 1.355 0 0 1 1.05-.661.618.618 0 0 1 .377.17.876.876 0 0 1 .107.129.929.929 0 0 1 .07.113.2.2 0 0 1 .038.105.474.474 0 0 1-.028.127.322.322 0 0 0 .126.357.157.157 0 0 0 .251-.051.416.416 0 0 0 .063-.232 1.253 1.253 0 0 0-.453-.779 1.073 1.073 0 0 0-1.568.107 2.7 2.7 0 0 0-.854 1.934zm1.429 1.643a2.4 2.4 0 0 1-.251.469 1.009 1.009 0 0 1-.143.172 1.473 1.473 0 0 1 .183-.541 2.073 2.073 0 0 1 .374-.512z" fill="#00502f"/></g></svg>