<svg xmlns:xlink="http://www.w3.org/1999/xlink" xmlns="http://www.w3.org/2000/svg" viewBox="0 0 90.9 72" width="90.9"  height="72" ><path d="M80.1 16.6c2.7-2.6 6.7-6.4 6.7-6.4.8-.8.8-2 0-2.8-.3-.3-.7-.5-1.1-.6 1.4-1.8 2.7-3.3 2.7-3.3.5-.6.6-1.4.3-2.1C88.1.2 86.4.1 85.3.1c-1.5 0-3-.1-4.5-.1-2.4 0-4.8.2-7.2.4-2 .2-3.9.5-5.8.8C61 2.3 54.2 4 47.7 6.4h-2.2C20.4 6.4 0 19.7 0 36c0 6.7 3.3 13 9.7 18.3 4.7 3.8 10.1 6.6 15.9 8.3 3.2 3.3 6.6 6.3 10.3 9 .7.5 1.7.5 2.5-.1 2.4-2 6.2-4.6 8.7-5.4 1.5-.4 2.9-.8 4.4-1 31-3.1 38.7-19.6 39.3-27.5 0-.5.1-1.1.1-1.6.1-7.1-3.9-14.1-10.8-19.4zM51.3 63.3c-1.6.2-3.2.6-4.8 1-3.6 1-8.2 4.8-9.4 5.7-2.5-1.9-8-6.3-10.4-9.2-5.7-1.6-11.1-4.4-15.7-8.1C5.1 47.9 2 42.1 2 36 2 20.8 21.5 8.4 45.5 8.4h2.6c7.8-2.8 16-4.8 24.3-5.9-.5.8-.9 1.6-1.2 2.4C76.3 3.3 81.6 2.4 87 2.2c-1.9 2.2-3.6 4.5-5.3 6.9 1.2-.3 2.5-.4 3.8-.3 0 0-6.2 5.8-8.5 8.1 7.6 5.1 11.9 12 11.9 19.1.4 6.4-5.7 24-37.6 27.3z" fill="#c9cacc"/><path d="M77 16.9c2.3-2.2 8.4-8.1 8.4-8.1-1.3-.1-2.5 0-3.8.3 1.7-2.4 3.4-4.7 5.3-6.8-5.4.1-10.7 1-15.8 2.7.3-.8.7-1.7 1.2-2.4-8.3 1-16.4 3-24.3 5.8h-2.6C21.5 8.4 2 20.8 2 36c0 6.2 3.1 12 9 16.8 4.6 3.7 10 6.5 15.7 8.1C29 63.8 34.5 68.1 37 70c1.2-1 5.8-4.7 9.4-5.7 1.6-.4 3.2-.8 4.8-1C83.2 60 89.3 42.4 88.9 36c0-7.1-4.3-14.1-11.9-19.1zm8.8 20.3c-1.1 11.8-15.9 21.4-35 23-1.8.3-3.5.6-5.2 1.1-3.2 1-6.1 2.6-8.5 4.8 0 0-6-4.2-8.7-7.9-2.7-3.7-1-6.8-1-6.8l1.2 1.6s.6 1 1.8 0 5.1-4 5.1-4v-3.3l3 3.7-6.9 6.9 5.3 2.3c-.6-1.6-.1-3.4 1.1-4.5l1.9 3c.5.6 1.3.8 2 .4 3.3-1.8 6.9-3.1 10.6-3.8l.4-.1s-6.5-8.8-7.3-10 .5-2.6.5-2.6l2.6-3.5S34 43.9 32.6 44.6c-2.7 1.3-1.5 2.7-1.5 2.7l1.3 1.8c-2.2.7-4.4-1.3-5.2-2.1l-4.8-1.4-2-.6 1 2.5c-2-.4-3.8-1.7-4.7-3.6-.5-.9-.9-1.9-1.2-2.9l2.7.6c-.8-.9-1.8-1.7-3-2.1-.3-1.8-.1-3.8 1.7-4.9 3.9-2.3 8.3-5 8.3-5h-4.1c1.6-2.6 3.7-4.8 6.3-6.5 2.4-1.8 4.9-3.4 7.3-4.8l-4.2-1.6c-.6-.3-1.3-.2-1.7.2-1 .7-6.6 5.2-6.6 5.2l-2.6-1.2c-.6-.2-1.3-.1-1.8.2C9.8 26.4 6.2 31.7 5.1 36c0-13.5 18.1-24.5 40.4-24.5 1 0 2 0 3 .1 6.4-2.6 13-4.4 19.8-5.4-10 3.7-19.7 8.1-29 13.2 4.2-1 8.5-1.4 12.8-1.2C59.9 13.6 73.4 6.3 81.6 5c0 0-8.5 4.4-17 9.6 1.5.8 2.4 3.1.7 4.3-3.4 2.4-7.2 1-12.3 3.4l-.1.1c2.8.7 5.6 1.5 8.4 2.5 4 1.2 8 0 10.5-5.7.2-.5.5-.9.7-1.4C80.7 22.3 86 28.8 86 36c-.1.4-.2.8-.2 1.2zM48.2 51.1c-1.7 2.4-4.7 3.3-7.5 2.4-4.1-1.2.8-3.7.8-3.7 1.5.4.8 2 .8 2 1.8-1.2 4-1.4 5.9-.7z" fill="#002d62"/><path d="M48.5 11.6c-1 0-2-.1-3-.1-22.3 0-40.4 11-40.4 24.5 1.1-4.2 4.7-9.5 12.8-15 .5-.4 1.2-.4 1.8-.2l2.6 1.2s5.6-4.5 6.6-5.2c.5-.4 1.2-.5 1.7-.2l4.2 1.6c4.4-2.5 9-4.8 13.7-6.6z" fill="#00b6af"/><path d="M72.4 17.8c-.3.4-.5.9-.7 1.4-2.5 5.7-6.5 6.8-10.5 5.7-2.7-1-5.5-1.8-8.4-2.5-2.2-.5-4.4-.7-6.6-.7.6-.4 2.8-1.7 5.8-3.5-4.3-.2-8.6.3-12.8 1.2-4.1.8-8.1 2-11.9 3.8-2.5 1.7-4.7 3.9-6.3 6.5h4.1s-4.4 2.7-8.3 5c-1.8 1-2 3-1.7 4.9 1.2.4 2.2 1.1 3 2.1l-2.7-.6c.3 1 .7 2 1.2 2.9l1.2-.5 2 .3.5 1.4 2 .6 2.6-1.3.6.2c.9.2 1.9.1 2.7-.4 0 0 20.9-10.2 22.1-10.7.7-.3 1.5-.3 2.1 0L67 38.8c-1.2-1.3-2.5-2.4-4-3.4l2.6-1.2c.6-.3 1.2-.4 1.8-.1l12.7 4.8c-1-1-2.1-1.9-3.3-2.6 0 0 .7-.3 1.7-.8.6-.3 1.2-.3 1.8-.1l5.5 1.8c0-.4.1-.9.1-1.3 0-7.2-5.2-13.7-13.5-18.1zm.1 4.3c5.2 2.2 6.7 4.4 6.7 4.4-2.7-.9-5.5-1.5-8.4-1.8.8-.6 1.4-1.5 1.7-2.6zm8.2 6c-4.3.7-8.6 1.7-12.8 3-1.2-1.2-2.6-2.2-4.1-3 5.7-1 11.4-1 16.9 0zm-16.4 2.7c-5.6-1.6-11.7-2.7-16.9-.8-8.1 3-17.9 7.2-17.9 7.2s6.2-8.5 8.9-10.8c2.3-2 5.5-2.7 8.5-2 6.1 1.2 11.9 3.3 17.4 6.4zm-24 5.5l-11.9 5.9c-.9.5-2 .7-3 .6-1.4-.2-2.5-.5-2.5-.5 1.2-.7 2.5-1.2 3.9-1.2 4.3-2.2 8.8-3.7 13.5-4.8zM27 30.5s.8-1 .3-1.8c-.5-.6-.4-1.5.2-2 1.8-1.6 3.9-3 6.1-3.9 3-1.4 6.3-2.3 9.5-2.7-7 2.7-10.8 5.2-12.4 6.7-.6.5-.6 1-.1 2 .2.5.1 1.1-.3 1.5L24.2 34l2.8-3.5zm-6.6 12.6c-.4-1.9-1.7-3.4-3.4-4.3-.3-.9.2-1.8 1.1-2.2 0 0-1.1 1.8 2.2 1.9 4.8.2 3-2.1 3-2.1s2.3-.2 2.3 2.8c0 0-3.9.7-5.2 3.9zM75 34.7L71.3 33c3.5-1.4 7.1-2.5 10.8-3.4L75 34.7z" fill="#00b6af"/><path d="M78.5 35.5c-1 .5-1.7.8-1.7.8 1.2.7 2.3 1.6 3.3 2.6l-12.7-4.8c-.6-.2-1.3-.2-1.8.1L63 35.5c1.5 1 2.8 2.1 4 3.4l-14.4-5.6c-.7-.3-1.5-.3-2.1 0-1.2.5-22.1 10.7-22.1 10.7-.8.4-1.8.6-2.6.4l-.6-.2-2.6 1.3 4.8 1.5c.8.8 3 2.8 5.2 2.1l-1.3-1.8s-1.2-1.5 1.5-2.7c1.4-.7 16.1-7.1 16.1-7.1L46.2 41s-1.2 1.5-.5 2.6 7.3 10 7.3 10l-.5.1c-3.7.7-7.3 2-10.6 3.8-.7.4-1.5.3-2-.4l-1.9-3c-1.2 1.2-1.7 2.9-1.1 4.5l-5.3-2.3 6.9-6.9-3-3.7v3.2s-3.8 3-5.1 4-1.8 0-1.8 0l-1.2-1.6s-1.7 3.1 1 6.8c2.7 3.7 8.7 7.9 8.7 7.9 2.5-2.2 5.4-3.8 8.5-4.8 1.7-.5 3.5-.8 5.2-1.1 19-1.5 33.9-11.2 34.9-23l-5.4-1.7c-.6-.2-1.2-.2-1.8.1zm-5.2 12.7c-5.4 3-10.3 3.8-15.4 4.6l-3-3.1c1.2-.1 2.8-.2 4.8-.4 3.2-.3 7.7-1.2 9.8-2.6-3.2.5-6.5.8-9.8.8-2.5-.1-5-.3-7.5-.7l-3.7-4c5 1.4 10.2 2.1 15.4 2.3-4-1-7.8-2.3-11.6-3.9 1.7-.9 3.5-2 4.2-2.4.7-.4 1.5-.5 2.3-.2l14 3.7c-.7-1.1-3.1-1.9-3.1-1.9.5-.3 1-.6 1.5-1 .6-.4 1.3-.5 1.9-.2l7.4 2.4c-1.9 2.7-4.4 4.9-7.2 6.6z" fill="#7ac143"/><path d="M25.6 39.2c0-3-2.3-2.8-2.3-2.8s1.8 2.3-3 2.1c-3.3-.1-2.2-1.9-2.2-1.9-.9.3-1.4 1.3-1.1 2.2 1.7.9 2.9 2.4 3.4 4.3 1.3-3.2 5.2-3.9 5.2-3.9zm12.8-12.8c-2.8 2.3-8.9 10.8-8.9 10.8S39.2 33 47.3 30c5.2-1.9 11.3-.8 16.9.8-5.4-3-11.3-5.2-17.4-6.3-2.9-.7-6 0-8.4 1.9zm6.2 2.2l-7 3.3s.5-3.6 7.6-5.4l-.6 2.1z" fill="#002d62"/><path d="M37.7 31.9l7-3.3.6-2.1c-7.2 1.8-7.6 5.4-7.6 5.4z" fill="#7ac143"/><path d="M22.9 42.2s1.1.2 2.5.5c1 .2 2.1 0 3-.6l11.9-5.9c-4.7 1.1-9.2 2.7-13.5 4.8-1.4.1-2.7.5-3.9 1.2z" fill="#002d62"/><path d="M52.9 22.3c5.2-2.5 8.9-1.1 12.4-3.5 1.8-1.2.8-3.5-.7-4.3 8.6-5.2 17-9.6 17-9.6-8.2 1.3-21.8 8.7-29.6 13.2-3 1.8-5.2 3.1-5.8 3.5 2.3 0 4.5.2 6.7.7z" fill="#7ac143"/><path d="M71.2 39.4c-.5.4-1 .7-1.5 1 0 0 2.4.8 3.1 1.9l-14.1-3.6c-.8-.3-1.6-.2-2.3.2-.7.4-2.5 1.5-4.2 2.4 3.8 1.6 7.6 2.9 11.6 3.9-5.2-.2-10.3-.9-15.4-2.3l3.7 4c2.5.4 5 .6 7.5.7 3.3 0 6.5-.3 9.8-.8-2.2 1.4-6.6 2.2-9.8 2.6-2 .2-3.6.4-4.8.4l3 3.1c5.1-.8 10-1.6 15.4-4.6 2.9-1.7 5.3-3.9 7.3-6.6l-7.4-2.4c-.6-.4-1.3-.3-1.9.1z" fill="#002d62"/><path d="M17.9 43.2l-1.2.5c.9 1.9 2.7 3.2 4.7 3.6l-1-2.5-.4-1.3-2.1-.3z" fill="#7ac143"/><path d="M68 31.2c4.2-1.3 8.4-2.3 12.8-3-5.6-1-11.3-1-16.8 0 1.4.8 2.8 1.8 4 3zm14.1-1.6c-3.7.9-7.3 2-10.8 3.4l3.7 1.7 7.1-5.1zm-2.8-3s-1.5-2.2-6.7-4.4c-.3 1-.9 1.9-1.7 2.7 2.8.1 5.7.7 8.4 1.7zm-48.6 2.2c-.4-1-.4-1.4.1-2 1.6-1.5 5.4-4 12.4-6.7-3.3.4-6.5 1.3-9.5 2.7-2.3.9-4.3 2.2-6.1 3.9-.6.5-.7 1.4-.2 2 .5.8-.3 1.8-.3 1.8L24.2 34l6.2-3.8c.4-.3.5-.9.3-1.4z" fill="#002d62"/><path d="M68.3 6.2c-6.8 1-13.4 2.8-19.8 5.4-4.8 1.9-9.4 4.1-13.8 6.7-2.4 1.4-4.9 3-7.3 4.8 3.8-1.7 7.8-3 11.9-3.8 9.4-5 19.1-9.4 29-13.1z" fill="#7ac143"/><path d="M41.6 49.8s-4.9 2.5-.8 3.7c2.7 1 5.8 0 7.5-2.4-1.9-.7-4.1-.5-5.8.7-.1 0 .5-1.7-.9-2z" fill="#00b6af"/><path fill="#002d62" d="M49.3 69.1l-.5-1.5H48v2.3h.4v-1.8h.1l.6 1.8h.4l.7-1.8v1.8h.4v-2.3h-.7zM45.8 68h.6v1.9h.5V68h.7v-.4h-1.8z"/></svg>