<svg xmlns:xlink="http://www.w3.org/1999/xlink" xmlns="http://www.w3.org/2000/svg" viewBox="0 0 74.504 82.061" width="74.504"  height="82.061" ><g data-name="Layer 2"><path d="M74.447 11.26c-.274-1.842-2-3.486-4.631-4.4a23.674 23.674 0 0 0-10.9-.506 27.318 27.318 0 0 0-3.651.826v-.033a13.423 13.423 0 0 0 .116-1.547 4.67 4.67 0 0 0-2.041-4.11C51.063-.115 47.627-.446 44.15.607c-.156.047-.471.143-.889.289-.953-.7-2.606-1.1-5.3.539C35.618 2.865 35 4.3 35 5.418a3.048 3.048 0 0 0 .113.793 17.687 17.687 0 0 0-2.426 3.375 10.464 10.464 0 0 0-1.238 3.967c-.609-2.041-1.1-3.7-1.4-4.773-.926-3.229-2.594-5.437-4.958-6.568a8.547 8.547 0 0 0-11.56 4.871 7.992 7.992 0 0 0-.431 2.575 11.266 11.266 0 0 0 1.66 5.557c1.211 2.127 3.776 6.744 6.561 11.8a8.9 8.9 0 0 0-3.576-1.135l-.086-.008c-5.005-.572-8.241 3.528-9.811 6.245A5.392 5.392 0 0 0 4.072 33.2a11.1 11.1 0 0 0-3.926 6.968A7.459 7.459 0 0 0 0 41.6a5.077 5.077 0 0 0 2.527 4.521 1.912 1.912 0 0 1 .041.267c.412 4.637 3.648 5.25 4.629 5.326a5.284 5.284 0 0 0 4.059-1.373c.124.053.239.111.37.158a3.238 3.238 0 0 0 1.532.152 32.152 32.152 0 0 0-2.037 10.807 24.523 24.523 0 0 0 .137 2.611c.664 6.258 5.5 18.07 19.031 17.992a31.256 31.256 0 0 0 17.422-5.445 39.285 39.285 0 0 0 10.719-10.73 35.915 35.915 0 0 0 6.106-18.2 2.139 2.139 0 0 0-3.952-1.244 32.137 32.137 0 0 1-13.258 10.6 4.228 4.228 0 0 0-.122-2.969 4.135 4.135 0 0 0-.882-1.293 5.752 5.752 0 0 0 .074-.893 6.988 6.988 0 0 0-.738-3.031 1.814 1.814 0 0 1-.034-.393 2.712 2.712 0 0 1 .05-.523 4.776 4.776 0 0 0 .1-.957 4.634 4.634 0 0 0-2.52-4.279 4.8 4.8 0 0 0-2.1-.422 2.962 2.962 0 0 0 .311-.252c.51-.49 3.332-3.5 3.795-4.076a3.7 3.7 0 0 0 .882-2.3 3.016 3.016 0 0 0-.155-.953c-.016-.045-.037-.09-.055-.137.386-.291.779-.58 1.176-.867a16.9 16.9 0 0 0 3.182-.957 9.8 9.8 0 0 0 3.528.318 11.691 11.691 0 0 0 8.059-3.955 14.447 14.447 0 0 0 3.311-9.393 12.552 12.552 0 0 0 7.324-3.33 6.22 6.22 0 0 0 2-4.371 5.015 5.015 0 0 0-.065-.749zm-42.01 55.8a5.485 5.485 0 0 1-3.481-1.66 6.035 6.035 0 0 1-1.456-4.283c0-.186.006-.375.016-.566v-.033a9.111 9.111 0 0 0 7.241-.023 1.279 1.279 0 0 0-.624.676 2.145 2.145 0 0 0-.143.768 3.325 3.325 0 0 0 .689 1.748 10.858 10.858 0 0 0 3.3 2.385 13.608 13.608 0 0 1-5.541.988z" fill="#5091cd"/><path d="M72.334 11.574c-.254-1.7-3.969-4.455-13.1-3.107a35.047 35.047 0 0 0-5.766 1.5 7.653 7.653 0 0 1-.35-2.779c.165-1.527.424-2.939-1.007-3.947-1.382-.975-4.034-1.586-7.339-.586A19.2 19.2 0 0 0 42.5 3.5a1.158 1.158 0 0 0-.172-.514c-.588-.965-1.873-.561-3.256.279s-2.332 1.8-1.744 2.762a1.1 1.1 0 0 0 .522.463 15.751 15.751 0 0 0-3.289 4.129c-1.682 3.053-1.07 6.66.228 7.957A9.667 9.667 0 0 0 34.1 24.3c-.7.658-.193.172-1.262 1.252-2.065-6.769-4.038-13.359-4.851-16.183-.749-2.615-2.036-4.375-3.823-5.229a6.408 6.408 0 0 0-8.614 3.629c-.637 1.877-.276 4.025 1.07 6.389 1.723 3.02 6.077 10.889 10.065 18.188-.687.832-1.385 1.7-2.078 2.6-2.262-6.715-6.378-6.852-7.19-6.945-4.9-.561-7.842 5.238-8.5 6.689a2.866 2.866 0 0 0-.767-.359 3.2 3.2 0 0 0-2.757.553 8.929 8.929 0 0 0-3.152 5.7c-.5 2.559.924 3.463 1.533 3.807A2.163 2.163 0 0 1 4.7 46.2c.25 2.8 1.781 3.314 2.666 3.385a3.469 3.469 0 0 0 3.434-2.179 2.869 2.869 0 0 0 1.524 1.072.923.923 0 0 0 1.232-.586 7.238 7.238 0 0 1 1.355-2.185 2.468 2.468 0 0 0 .934-2.772 31.249 31.249 0 0 0-1.169-3.566s1.034-2.424 2.55-2.266c.66.068 2.1.721 3.11 3.922-4.421 7-7.777 15.078-6.956 22.818.572 5.385 4.63 16.15 16.895 16.08a29.069 29.069 0 0 0 16.246-5.086C53.141 70.42 61.627 61.3 62.4 47.57c0 0-7.666 12.473-26.1 14.715a10.618 10.618 0 0 0 6.464 2.99c-1.254 1.41-4.369 3.99-10.348 3.922-1.775-.018-7.409-1.557-7.031-8.76a16.957 16.957 0 0 1 .555-3.279c1.549 1.191 5.545 3.559 9.553.207a2.37 2.37 0 0 0 1.685.188 2.7 2.7 0 0 0 .191.67c.257.609 1.447 2.189 5 .693s3.128-3.4 2.87-4.01a1.994 1.994 0 0 0-1.507-1.187 4.007 4.007 0 0 0-.036-4.027 3.966 3.966 0 0 1-.112-2.172 2.644 2.644 0 0 0-1.223-2.871 4.272 4.272 0 0 0-3.41.351c-.252-.65-.843-2.453-1.63-4.934a4.685 4.685 0 0 1 1.378.6.924.924 0 0 0 1.277-.166c.452-.435 3.219-3.385 3.608-3.873.425-.533.991-1.648-1.009-2.16q1.724-1.392 3.684-2.795a14.323 14.323 0 0 0 3.949-1.227 7.009 7.009 0 0 0 3.48.488C58.183 30.666 63.7 26.947 63 17.564c4.042.598 9.857-2.47 9.334-5.99zM32.086 46.98a4.73 4.73 0 0 0-.142 2.951c.142.533.9 2.758-1.18 3.145a2.736 2.736 0 0 1-2.667-1.6 41.887 41.887 0 0 1 4.859-7.52c.33.627.619 1.178.856 1.639a5.111 5.111 0 0 0-1.726 1.385z" fill="#002b5c"/><path d="M58.932 10.076c2.191-.4 8.311-1.5 11.38 1.2-1.745-.994-4.886-.281-7.765 1.777-1.944 1.391-4.625 3.354-7.351 3.3A4.547 4.547 0 0 1 51 12.617a32.053 32.053 0 0 1 7.932-2.541z" fill="#e31837"/><path d="M58.871 10.994c2.154-.574 8.164-2.16 11.44.281-3.069-2.7-9.188-1.6-11.38-1.2A32.053 32.053 0 0 0 51 12.617a5.5 5.5 0 0 0 .514 1.354 32.326 32.326 0 0 1 7.357-2.977z" fill="#fff"/><path d="M51.38 5.8c.06-.807-.816-1.838-3.441-1.887s-6.292 1.838-7.7 2.895a11.708 11.708 0 0 0-4.639 7.627 2.438 2.438 0 0 0 .342 1.818 12.381 12.381 0 0 1 4.98-5.061c.149-1.074.853-2.4 3.441-3.236 1.148-.367 3.231-.365 4.225.586 1.014.973.9 1.527 1.481 2.631.611-.227 1.041-.377 1.723-.623-.751-1.363-.467-4.021-.412-4.75z" fill="#e31837"/><path d="M35.9 15.834A11.71 11.71 0 0 1 40.539 8.2c1.406-1.057 5.076-2.943 7.7-2.895a4.174 4.174 0 0 1 3.1.984c.015-.207.03-.379.039-.5.06-.807-.816-1.838-3.441-1.887s-6.292 1.838-7.7 2.895a11.708 11.708 0 0 0-4.637 7.638 2.512 2.512 0 0 0 .283 1.719l.017-.32z" fill="#fff"/><path d="M18.385 13.152c-1.048-1.838-1.355-3.428-.912-4.732a4.384 4.384 0 0 1 5.814-2.45c1.242.594 2.166 1.926 2.749 3.957.706 2.461 2.98 9.754 5.334 17.144a107.516 107.516 0 0 0-3.425 3.783c-3.966-7.466-8.175-15.27-9.56-17.702z" fill="#cfab7a"/><path d="M18.856 7.267a4.445 4.445 0 0 1 3.438.008c1.251.59 2.189 1.918 2.792 3.943.721 2.418 3.014 9.527 5.4 16.791.3-.322.594-.635.88-.937-2.354-7.391-4.628-14.684-5.334-17.144-.579-2.028-1.503-3.364-2.745-3.958a4.406 4.406 0 0 0-3.428-.01 4.52 4.52 0 0 0-2.238 2.1 4.887 4.887 0 0 1 1.235-.793z" fill="#fff"/><path d="M35.6 55.75a3.9 3.9 0 0 1-1.289-2.084 3.911 3.911 0 0 0 .047 2.455c-1.109.857-4.2 2.611-7.875-.791.242-.715.537-1.492.9-2.322A4.189 4.189 0 0 0 31.2 54.5a3.036 3.036 0 0 0 2.382-3.625c-.315-1.7-.289-2.955.28-3.363a9.7 9.7 0 0 1 2-1.057 1.677 1.677 0 0 1 1.606.775 7.592 7.592 0 0 0 1.245 1.621.962.962 0 0 1 .054 1.666c-.463.3-1.756.973-3.1-1.617a2.22 2.22 0 0 0 .791 2.789 9.022 9.022 0 0 0 .377 2.584 2.33 2.33 0 0 0 .827 1.346c-.25.193-1.253.871-2.062.131z" fill="#c4ced4"/><path d="M31.752 54.926a3.353 3.353 0 0 0 2.848-3.631c-.316-1.7-.281-2.531.289-2.939a9.646 9.646 0 0 1 2-1.057 1.5 1.5 0 0 1 .668.061 5.776 5.776 0 0 1-.086-.129 1.677 1.677 0 0 0-1.606-.775 9.7 9.7 0 0 0-2 1.057c-.569.408-.6 1.66-.28 3.363A3.036 3.036 0 0 1 31.2 54.5a4.128 4.128 0 0 1-2.792-.6 3.551 3.551 0 0 0 3.344 1.026z" fill="#fff"/><path d="M35.777 40.711a206.29 206.29 0 0 0 1.433 4.215 2.43 2.43 0 0 0-1.933-.035c-.317-.631-.713-1.412-1.177-2.314q.789-.921 1.677-1.866z" fill="#cfab7a"/><path d="M36.151 44.713a2.264 2.264 0 0 1 1.058.213 226.92 226.92 0 0 1-1.433-4.215c-.246.262-.484.521-.719.781.437 1.308.81 2.408 1.094 3.221z" fill="#fff"/><path d="M41.817 57.666c-1.37.574-2.46.656-2.655.2s.625-1.185 1.993-1.764 2.459-.656 2.653-.2-.625 1.186-1.991 1.764z" fill="#cfab7a"/><path d="M41.262 46.056c1.094.227.815 1.7.68 2.625a5.9 5.9 0 0 0 .723 2.619 1.533 1.533 0 0 1-.77 1.949 6.541 6.541 0 0 1-2.572 1.207 1.024 1.024 0 0 1-1.012-.586A6.434 6.434 0 0 1 38 52.193a2.381 2.381 0 0 0 1.531-.568c.412-.334 1.912-1.857.576-3.162a9.56 9.56 0 0 1-1.16-1.553 3.371 3.371 0 0 1 2.315-.854z" fill="#c4ced4"/><path d="M41.61 47.2a.91.91 0 0 1 .464.232c.007-.652-.151-1.244-.812-1.381a3.371 3.371 0 0 0-2.318.854c.2.313.42.643.641.939a3.107 3.107 0 0 1 2.025-.644z" fill="#fff"/><path d="M41.555 36.6c-.288.3-1.307 1.646-1.514 1.779s-.2.3-1.01.2a9.4 9.4 0 0 0-7.231 1.442 16.836 16.836 0 0 1 2.086-.238c-5.6 5.842-11.287 14.039-10.892 22.758.135 2.957 2.3 8.8 10.249 8.832 2.383.012 8.951-1.3 12.213-6.029a18.794 18.794 0 0 0 5.12-1.117s-4.28.24-6.86-1.148c0 0 9.7-1.869 15.736-9.553-2.794 10.35-10.7 17.691-16.221 20.766A26.455 26.455 0 0 1 31.48 77.6c-12.259.367-15.22-10.545-15.417-14.687-.337-7.125 2.539-14.262 6.307-20.439-.329-2.246-1.5-7.281-5.389-7.5-1.365-.076-3.5 1.43-4.024 4.555 0 0 1.868 4.613 1.066 5.09a6.357 6.357 0 0 0-1.7 2.244 1.641 1.641 0 0 1-.823-1.623 7.927 7.927 0 0 1 .846-1.426c-1.4-.533-2.736 1.4-2.855 2.408a1.922 1.922 0 0 1-1.82 1.6c-1.136-.168-1.126-1.357-1.132-2.375a2.9 2.9 0 0 0-1.632-2.5 1.772 1.772 0 0 1-.861-2.061 10.092 10.092 0 0 1 2.254-4.58 1.721 1.721 0 0 1 1.746-.629 3.108 3.108 0 0 1 2.354 2.471 2.846 2.846 0 0 0-.135-1.875c2.133-4.855 5.354-6.08 6.721-6.018 2.931.137 5.255 2.836 6.653 6.363a16.757 16.757 0 0 1 1.661 7.509 16.9 16.9 0 0 0 .08-6.164 78.357 78.357 0 0 1 11.089-12.612 9.241 9.241 0 0 1-.425-2.6c-.087-4.889 5.009-10.58 9.84-11.1.268.459.634 1.271.858 1.7a8.469 8.469 0 0 0-6.354 8.3 5.762 5.762 0 0 0 2.312 4.86 3.8 3.8 0 0 1-1.815-.187 6.418 6.418 0 0 0 4.131 1.131 8.647 8.647 0 0 0 3.717-.969 7.031 7.031 0 0 0 2.01.729 9.753 9.753 0 0 1-6.773 3.326 9.278 9.278 0 0 1-4.863-1 8.922 8.922 0 0 0 4.328 2.043c-.786.523-2.057 1.447-3.59 2.7-.377.016-.783.045-1.219.092a11.93 11.93 0 0 0-1.922-5.711c-.178-.291-.44-.494-.98-.182a19.207 19.207 0 0 0-6.051 8.473c-.115.385-.257 1.32.582 1.041s8.011-3.133 11.152-1.983c.215.074.433.279.148.586z" fill="#c4ced4"/><path d="M8.221 45.482a2.9 2.9 0 0 0-1.633-2.5 1.768 1.768 0 0 1-.859-2.059 10.041 10.041 0 0 1 2.26-4.578 2.894 2.894 0 0 1 .605-.482 3.419 3.419 0 0 0-.545-.186 1.721 1.721 0 0 0-1.746.629 10.092 10.092 0 0 0-2.26 4.578 1.772 1.772 0 0 0 .857 2.061 2.9 2.9 0 0 1 1.632 2.5c.006 1.018 0 2.207 1.132 2.375a1.509 1.509 0 0 0 .982-.314 3.122 3.122 0 0 1-.425-2.024zm39.636 19.524a16.851 16.851 0 0 1-2.4.338c-3.262 4.73-9.83 6.041-12.213 6.029a10.9 10.9 0 0 1-6.492-1.873 11.143 11.143 0 0 0 7.669 2.68c2.618.007 9.808-1.555 13.436-7.174zM18.76 30.674a5.046 5.046 0 0 0-1.771-.418c-1.367-.062-4.588 1.162-6.721 6.018a2.846 2.846 0 0 1 .135 1.875c2.551-6.171 6.263-7.93 8.357-7.475z" fill="#fff"/><path d="M17.9 62.937c-.338-7.125 2.3-13.215 6.064-19.393-.074-2.994-1.736-8.221-5.626-8.439a1.984 1.984 0 0 0-.437.027c3.158.891 4.165 5.285 4.467 7.344-3.767 6.178-6.643 13.314-6.307 20.439.188 3.953 2.9 14.076 13.806 14.668C20.09 76.263 18.08 66.72 17.9 62.937zM46.163 12.14a40.863 40.863 0 0 0-.279-.492c-4.831.521-9.927 6.213-9.84 11.1a9.241 9.241 0 0 0 .425 2.6 78.357 78.357 0 0 0-11.088 12.615 17.844 17.844 0 0 1 .243 2.818c6.276-10.5 12.6-15.57 12.6-15.57a10.14 10.14 0 0 1-.535-2.73c-.083-4.37 4.046-9.446 8.474-10.341zM34.285 33.267a3.05 3.05 0 0 1 1.568.941 3.1 3.1 0 0 0-1.776-2.125 10.062 10.062 0 0 1 1.538-1.613 6.853 6.853 0 0 1 1.891 4.055 20.468 20.468 0 0 0-4.849 1.43 10.368 10.368 0 0 1 1.628-2.688z" fill="#fff"/><path d="M59.205 19.361a4.454 4.454 0 0 0 1.926-1.775c.539 6.377-2.574 10.8-7.142 11.32a5.327 5.327 0 0 1-1.872-.062 7.186 7.186 0 0 0 1.525-1.66 7.256 7.256 0 0 0 5.563-7.823z" fill="#c4ced4"/><path d="M25.308 15.353c.208.5 2.287 5.426 1.138 5.906-.687.287-1.629-1.08-2.483-3.844l.284-.119c.891 2.813 1.629 3.41 1.867 3.309.584-.244-.933-4.029-1.361-5.066-1.525-3.7-2.264-5.07-3.083-4.728-1.2.5.507 4.752 1.728 7.707 2.021 4.895 3.6 7.41 4.26 7.135 0 0 .75-.135-.226-2.988l.27-.111c.924 2.232.852 3.514.234 3.771-1.5.627-3.886-4.684-5.056-7.521-1.747-4.227-3.292-8.213-1.593-8.924 1.608-.671 2.694 2.256 4.021 5.473z" fill="#002b5c"/><path d="M41.408 36.011c-2.208-.809-6.405.361-9 1.225 2.35-.477 6.855-1.18 8.629-.021.216-.27.411-.508.514-.615.289-.307.071-.512-.143-.589zm6.655-13.898a2.624 2.624 0 0 1-.565-3.625 3.7 3.7 0 0 1 .23-.344 1.478 1.478 0 0 0 .5 1.809 1.573 1.573 0 0 0 2.051-.789 2.111 2.111 0 0 0 .229-.582 2.03 2.03 0 0 1-.316-.137 7.976 7.976 0 0 1-2.247-2.828c-3.267.49-5.5 2.912-5.413 5.99a4.741 4.741 0 0 0 2.8 4.443c2.341-.111 4.435-1.986 5.546-4.481a2.392 2.392 0 0 1-2.815.544zm7.076 1.18a1.82 1.82 0 0 1-.393-2.516 2.64 2.64 0 0 1 .158-.238 1.03 1.03 0 0 0 .35 1.256 1.093 1.093 0 0 0 1.425-.549 1.219 1.219 0 0 0 .042-1.236 4.985 4.985 0 0 1-1.107.006 2.935 2.935 0 0 1-1.844-.916 9.241 9.241 0 0 1-3.342 6.262 4.608 4.608 0 0 0 2.321.387 4.482 4.482 0 0 0 3.473-2.334 1.411 1.411 0 0 1-1.083-.122zM58.3 56.949a30.612 30.612 0 0 0 1.148-3.424c-6.033 7.684-15.736 9.553-15.736 9.553a8.256 8.256 0 0 0 1.915.707c1.979-.385 7.01-1.162 12.673-6.836zm-2.284 19.109h-.877v2.387h-.593v-2.387h-.876v-.518h2.346zm3.974 2.387h-.59v-2.31h-.013l-.842 2.31h-.574l-.812-2.31h-.019v2.31h-.593v-2.9h1.027l.676 1.9h.014l.7-1.9h1.02z" fill="#fff"/></g></svg>