<svg xmlns:xlink="http://www.w3.org/1999/xlink" xmlns="http://www.w3.org/2000/svg" viewBox="0 0 292.831 485.1933" width="292.831"  height="485.1933" ><defs><style>.cls-2{fill:#e31837}.cls-3{fill:#231f20}</style></defs><g id="Layer_2" data-name="Layer 2"><g id="Layer_1-2" data-name="Layer 1"><path fill="#c4c6c8" d="M235.4188 303.2956v-13.42s-23.1028-23.7338-36.7888-37.8047h9.988c3.3554 3.4835 26.8009 27.7997 26.8009 27.7997V96.625c3.9203-3.9057 30.575-30.5633 30.575-30.5633L265.871 0S146.5597 117.5664 136.5687 127.389C126.5778 117.5663 7.2582 0 7.2582 0l-.0251 18.5941-.0918 47.4675S33.8106 92.7193 37.7222 96.625v182.7427s23.9168-23.9162 27.2886-27.2968h9.5628c-13.7112 14.071-36.8514 37.8047-36.8514 37.8047v13.42A765619.2198 765619.2198 0 0 0 0 266.8728v90.041l136.5687 128.2795 136.5717-128.2795v-90.041s-26.5629 25.6413-37.7216 36.4228z"/><path d="M15.031 18.594l121.538 119.759v29.262l-30.561-28.685v31.198l30.561 29.359v76.654h-14.305l14.305 15.048v15.602l-15.613 17.463v37.085l15.613 13.729v99.435L7.798 353.538V285.25l37.731 36.423v-28.622l47.545-48.781H61.782l-16.253 16.253V93.393L14.957 62.818l.074-44.224z" class="cls-2"/><path d="M258.102 18.594L136.569 138.353v29.262l30.567-28.685v31.198l-30.567 29.359v76.654h14.305l-14.305 15.048v15.602l15.61 17.463v37.085l-15.61 13.729v99.435L265.34 353.538V285.25l-37.719 36.423v-28.622l-47.465-48.781h31.777l15.688 16.253V93.393l30.569-30.575-.088-44.224zM123.194 215.619l-15.601-15.938H46.137l15.602 15.938h61.455z" class="cls-3"/><path d="M213.724 215.705l14.014-15.933h-61.45l-14.031 15.933h61.467z" class="cls-2"/><path d="M135.655 230.301l-43.898 45.207H62.812l43.907-45.207h28.936z" class="cls-3"/><path d="M137.414 230.301l43.89 45.207h28.945l-43.902-45.207h-28.933z" class="cls-2"/><path fill="#fff" d="M273.3036 385.5702h-4.3087v11.7183h-2.9239v-11.7183h-4.3063v-2.5584h11.5388zm19.5274 11.7183h-2.9239v-11.3528h-.0596l-4.1402 11.3528h-2.8216l-3.9975-11.3529h-.0684v11.3529h-2.9269v-14.2767h5.0712l3.318 9.3195h.0685l3.4548-9.3195h5.0256z"/></g></g></svg>