<svg xmlns:xlink="http://www.w3.org/1999/xlink" xmlns="http://www.w3.org/2000/svg" enable-background="new 0 0 359.571 138.754" viewBox="0 0 359.571 138.754" width="359.571"  height="138.754" ><path d="m266.391 131.892c.001-.001.001-.001 0 0zm-131.039-131.892c-12.096 0-23.755 2.404-34.653 7.145-3.511 1.527-6.928 3.322-10.156 5.335-.542.329-1.102.686-1.713 1.081-8.414 5.44-15.123 12.133-19.51 19.441-3.268-.092-6.475-.139-9.558-.139-41.077 0-53.921 8.136-56.079 9.767-3.656 2.772-4.753 7.894-2.555 11.916 1.716 3.14 12.771 19.69 63.112 39.614 5.162 20.799 20.953 33.814 46.963 38.697 7.888 1.48 17.617 2.437 24.786 2.437 6.697 0 11.57-.446 14.51-.827l72.458-4.088c2.465 3.271 3.581 4.28 5.473 5.165 2.09.98 2.411 1.131 26.545 2.541.201.014.429.021.656.021 1.916 0 3.78-.54 5.389-1.529 1.375 1.051 2.317 1.45 3.557 1.798.962.269 1.824.378 2.979.378.176 0 .375-.002.6-.008.154.005.324.008.516.008 2.239 0 7.305-.409 27.631-2.566 4.038-.424 7.541-3.168 8.921-6.991.442-1.224.652-2.505.631-3.784l8.037-.5 1.398.633c.82.37 1.688.621 2.585.747l16.796 2.316c.437.06.876.09 1.309.09 3.781 0 7.136-2.226 8.63-5.697 8.654-1.032 14.96-8.483 14.96-18.086 0-5.129-2.181-10.076-5.895-13.505.294-.538.547-1.118.757-1.738l.027-.079.022-.08.105-.377.021-.074.017-.075c.925-4.114-.618-9.601-7.725-12.663-1.629-.702-4.373-1.827-8.198-3.205-3.809-1.372-9.714-3.355-17.25-5.438l12.894-26.06c1.263-2.552 1.296-5.498.093-8.083-1.207-2.585-3.487-4.451-6.257-5.124l-31.46-7.64c-.711-.174-1.45-.263-2.191-.263-2.14 0-4.232.738-5.891 2.079l-37.613 30.51-26.965 9.362c-.074-.096-.152-.198-.234-.305-.854-1.12-1.986-2.606-3.559-4.051-1.41-3.645-3.142-7.285-5.152-10.832-12.146-21.426-32.809-37.82-55.271-43.853-8.017-2.275-16.24-3.421-24.493-3.421" fill="#b5d5f0"/><path d="m149.389 91.436-1.971-.518c-9.652 10.088-42.785 9.332-42.785 9.332 22.642 5.138 35.982.744 43.185-3.837zm6.934-78.429c-23.652-6.328-45.444-2.054-60.67 7.114l.369.453c.13.151.255.285.373.392 3.117 2.826 6.19 2.508 7.041 2.039 1.536-.847.691 6.349-2.728 5.593.203 1.892-.018 4.295-.724 6.815-.785 2.804-2.006 5.174-3.311 6.675 9.186.753 26.672 2.882 25.573 2.739-1.066-2.556-1.174-6.698-.077-11.168.662-2.695 1.666-5.106 2.831-7.015-.703.261-1.424.5-2.166.713-2.254 1.795-5.016 4.761-7.778 9.673 0 0-1.137-4.505 2.801-8.727-1.331.127-2.725.166-4.198.09-6.537-.337-1.157-8.102-.3-6.173.424.954-.488 3.003 4.45 2.75s23.107-11.16 27.464-8.564c-4.566 1.207-8.538 4.003-12.918 6.596 2.129 1.914 2.756 7.184 1.323 13.022-1.029 4.193-2.883 7.71-4.89 9.693 5.229.737 10.559 1.55 15.996 2.447l.138.025c10.508 1.648 21.551 3.577 32.974 5.756-3.805-12.377-21.572-29.783-21.572-29.783 9.269 5.057 16.244 10.347 21.526 15.495-7.378-16.955-32.763-25.708-32.763-25.708 31.417 4.146 48.346 29.96 55.53 44.605 1.444.322 2.917.655 4.372.984 1.033.234 2.063.466 3.077.694-7.545-19.665-26.116-40.369-51.743-47.225zm-64.354 20.11c.928-3.314 2.465-6.02 4.029-7.402-1.922.992-4.412 3.009-7.842 7.065 0 0-.29-4.828 5.244-7.597.812-.407 1.528-.691 2.174-.899-.56-.694-1.089-1.429-1.592-2.192l-.002.001-.444-.638c-8.147 5.37-14.18 12.179-17.276 19.437.207.008.409.015.617.024 4.755.162 9.671.426 14.729.784-.666-1.996-.588-5.188.363-8.583z" fill="#fff"/><path d="m307.08 128.607h4.566v1.005h-1.704v4.651h-1.158v-4.651h-1.704zm8.945 3.696h-.03l-1.307-3.695h-2.002v5.656h1.15v-4.501h.03l1.585 4.501h1.117l1.636-4.501h.03v4.501h1.15v-5.656h-1.982zm33.48-27.673c.021.479.018 1.289-.03 1.705.003-.03-.006-.017-.006-.017l-15.288-1.25-5.891-.488c0 .002-.001.004-.001.006l-.067-.005c-.237 1.346-1.328 3.716-1.299 3.663l.042.003c-.068.122-.128.248-.2.368.074-.121.144-.244.213-.367l21.418 1.506c-.281.554-.606 1.174-.983 1.623l-.134-.012-21.412-1.505c-.187.247-.281.416-.486.655l-9.377-5.511 17.305 12.136-15.602-2.152-1.177-.162-34.286-15.51c-2.469-.289-4.046-.373-4.123-.131-.415 1.303.211 2.712 1.458 3.275l28.851 13.051-18.161 1.025-4.646-4.294c-.004-.004-.012-.008-.016-.013l-.565-.522c-.261-.269-.796-.5-1.388-.686.088.055.148.098.173.123l12.394 12.733c.468.481.621 1.186.393 1.817s-.796 1.077-1.463 1.148c-20.368 2.16-25.299 2.522-26.677 2.522-.393 0-.497-.03-.588-.055-.012-.003-.025-.007-.038-.011-.003-.001-.006-.002-.008-.003-.013-.004-.027-.008-.041-.013-.002-.001-.004-.002-.007-.002-.014-.005-.028-.01-.043-.016-.001 0-.002-.001-.003-.001-.016-.006-.033-.014-.051-.022-.003-.001-.005-.003-.008-.004-.037-.018-.079-.04-.127-.069-.002-.001-.005-.003-.007-.004-.025-.015-.051-.032-.079-.05-.001-.001-.003-.002-.004-.003-.058-.039-.125-.086-.202-.145-.002-.002-.005-.003-.007-.005-.078-.059-.167-.13-.268-.213-.001-.001-.002-.002-.003-.003-.155-.128-.341-.288-.564-.488 0 0-.001-.001-.001-.001-1.347-1.204-4.073-3.857-9.932-9.814-2.537-2.579-5.658-5.776-9.512-9.745-.522-.538-.645-1.348-.305-2.015.34-.668 1.066-1.047 1.809-.94l18.052 1.725-18.983-3.896c-1.672-.238-3.758.993-4.523 2.496-.002.003.003.012.002.015-.027.048-.061.091-.086.14-.765 1.503-.49 3.327.685 4.538 3.004 3.094 5.567 5.725 7.764 7.97l-102.712 5.795s-69.67 9.439-76.412-36.858c-4.435-1.679-8.566-3.332-12.421-4.954 7.853-4.041 13.362-10.549 14.582-18.495 1.21-7.884-2.033-15.683-8.217-21.87 2.323.053 4.705.123 7.206.228 17.894.61 40.167 2.684 67.64 7.218.043.007.086.017.129.024 14.93 2.342 31.446 5.32 49.746 9.081 5.296 1.089 12.402 2.778 18.008 3.983 6.42 1.296 6.678 8.439 12.532 9.621.646.13 1.288.26 1.927.389l30.321-10.525 13.849 1.589-11.478-2.909 37.678-30.564 30.566 7.423-16.589 33.528c-.514-.119-1.031-.239-1.555-.357-22.155-5.014-41.231-5.624-41.421-5.629-1.134-.033-2.133.802-2.292 1.938-.157 1.136.565 2.208 1.678 2.488.06.015 1.968.495 5.146 1.288l-62.653 4.749s-79.567-4.227-79.688-3.029c-.031.305.055.574.219.81l78.591 5.433 35.265-2.673 41.489-3.145c-10.832-2.665-18.718-4.651-18.718-4.651s18.792.551 40.99 5.575c.473.107.941.215 1.407.323h.002c11.685 2.706 20.971 5.633 27.437 7.953.001 0 .003.001.004.001.206.074.408.147.608.219.004.002.008.003.012.005.198.072.393.143.585.213.005.002.011.004.016.006.187.069.371.137.553.204.013.005.025.009.038.014.18.067.357.133.531.198.01.004.02.007.029.011.174.065.346.13.515.194.011.004.022.008.033.013.167.063.332.126.494.188.011.004.023.009.034.013.159.061.315.121.468.18.017.006.033.013.05.019.15.058.298.116.443.173.016.006.031.012.047.018.145.057.287.113.427.168.016.006.031.012.047.018.138.055.275.109.408.162.016.007.033.013.049.02.13.052.258.104.384.154.02.008.04.016.059.024.122.05.243.098.36.147.019.008.038.015.057.023.116.048.231.095.342.141.02.008.039.016.058.024.111.046.22.091.327.136.017.007.033.014.05.021.106.044.21.088.312.131.017.007.033.014.05.021.099.042.197.083.292.124.019.008.038.016.057.024.091.039.18.077.267.115.02.009.04.017.06.026.083.036.164.071.243.106.022.01.044.019.066.029.076.033.151.066.223.098.021.009.041.018.061.027.069.03.136.061.201.09.026.012.052.023.077.035.058.026.116.052.172.078.025.011.048.022.072.033.054.025.108.049.158.073.022.01.043.02.065.03.049.023.098.046.144.067.021.01.041.019.061.029.045.021.09.042.132.062.016.007.03.014.045.021.043.021.085.041.125.06.017.008.032.016.048.023.035.017.07.034.102.05.017.009.032.016.049.025.028.014.056.028.081.041.016.008.03.016.045.023.022.012.046.024.066.034.014.008.026.014.039.021.017.009.036.019.051.028.013.007.023.013.035.02s.025.014.035.02c.011.007.019.012.028.018.007.005.016.01.021.014.009.006.015.011.021.016.002.002.006.005.008.006.006.006.009.01.009.013-.12.532-6.191-.589-14.939-2.496l-.2.036c-.137-.037-.281-.075-.43-.114-.052-.014-.109-.028-.162-.042-.101-.026-.201-.052-.307-.079-.067-.017-.138-.035-.207-.052-.098-.025-.194-.049-.296-.074-.08-.02-.164-.04-.246-.061-.097-.024-.193-.048-.294-.072-.086-.021-.176-.043-.264-.064-.103-.025-.204-.049-.31-.075-.09-.022-.184-.044-.277-.066-.11-.026-.22-.052-.334-.079-.094-.022-.192-.045-.289-.068-.115-.027-.23-.054-.347-.081-.099-.023-.2-.046-.301-.07-.122-.028-.245-.057-.37-.085-.104-.024-.21-.048-.315-.072-.123-.028-.246-.056-.372-.085-.117-.026-.235-.053-.354-.08-.121-.027-.242-.055-.364-.082-.12-.027-.241-.054-.363-.081-.129-.029-.259-.058-.391-.087-.122-.027-.246-.055-.37-.082-.132-.029-.265-.059-.399-.088-.126-.028-.253-.056-.38-.084-.137-.03-.274-.06-.412-.09-.137-.03-.274-.06-.412-.09-.127-.028-.254-.055-.382-.083-.145-.031-.29-.063-.437-.095-.136-.029-.273-.059-.41-.089-.143-.031-.287-.062-.431-.093-.141-.03-.282-.061-.424-.091-.146-.031-.291-.062-.438-.094-.137-.029-.275-.059-.413-.088-.158-.034-.316-.067-.475-.101-.125-.027-.252-.054-.378-.08-.178-.038-.355-.075-.535-.113-.106-.022-.213-.045-.32-.068-.193-.041-.386-.082-.581-.123-.106-.022-.213-.045-.319-.067-.2-.042-.401-.084-.603-.127-.096-.02-.192-.04-.288-.06-.21-.044-.42-.088-.632-.132-.095-.02-.19-.04-.285-.059-.22-.046-.44-.092-.662-.138-.049-.01-.098-.02-.147-.031-2.721-.566-5.535-1.142-8.295-1.701-.012-.002-.024-.005-.036-.007-.004-.001-.007-.001-.011-.002-2.477-.502-4.907-.989-7.182-1.443-.001 0-.002 0-.003-.001-.31-.062-.616-.123-.919-.183-.04-.008-.079-.016-.119-.024-2.547-.507-4.866-.965-6.798-1.344-.023-.005-.046-.009-.07-.014-.217-.043-.43-.084-.637-.125-.01-.002-.021-.004-.031-.006-.002 0-.004-.001-.006-.001-.19-.037-.375-.074-.556-.109-.012-.002-.024-.005-.036-.007-.036-.007-.071-.014-.107-.021-.001 0-.002 0-.004-.001-.176-.034-.347-.068-.513-.101-.019-.004-.038-.007-.056-.011-.018-.003-.034-.007-.051-.01-.534-.105-1.017-.199-1.445-.283-.036-.007-.073-.014-.108-.021-.059-.012-.115-.023-.172-.034-.032-.006-.062-.012-.093-.018-.169-.033-.327-.064-.474-.092-.014-.003-.028-.005-.041-.008-.008-.002-.016-.003-.024-.005-.075-.015-.143-.028-.212-.041-.037-.007-.074-.014-.108-.021-.009-.002-.017-.003-.026-.005-.005-.001-.01-.002-.015-.003-.082-.016-.158-.031-.23-.045-.316-.061-.524-.102-.618-.12-.009-.002-.015-.003-.023-.004-.025-.005-.041-.008-.041-.008s.016.005.038.011c.016.005.035.01.061.018.013.004.029.008.045.013.018.005.036.01.057.017.003.001.005.001.008.002.01.003.022.007.034.01.036.011.075.022.119.035.008.002.015.004.024.007.008.003.017.005.025.007 1.893.551 10.15 2.929 19.724 5.266.001 0 .002 0 .003.001.967.236 1.948.472 2.937.705.005.001.011.003.016.004.484.114.969.227 1.456.34.026.006.051.012.077.018.964.223 1.932.443 2.901.657.035.008.07.016.105.023.469.104.937.206 1.405.307.05.011.1.022.151.032.94.203 1.878.4 2.81.59.057.012.114.023.171.035.446.091.891.18 1.333.267.07.014.139.027.209.041.9.176 1.79.344 2.668.504.072.013.144.026.216.039.42.076.838.149 1.251.22.075.013.15.026.226.038.426.073.85.144 1.268.211.004.001.007.001.011.002.412.066.819.129 1.222.19.075.011.151.023.225.034.391.058.776.114 1.158.167.073.01.146.02.219.03.394.054.785.106 1.168.153l-23.272 4.2-37.069 6.69 3.61.55c.106.015.214.023.321.023.132 0 .263-.011.393-.035l34.46-6.13c1.538.32 3.177.418 4.893.236 2.223.449 14.427 2.798 14.427 2.798 1.319 1.469 2.345 3.045 3.033 4.686 5.377.607 12.964 1.43 20.663 2.252.023.003.047.006.07.009.345.551.635 1.141.857 1.768-2.471-.263-5.021-.528-7.538-.788-4.883-.526-9.617-1.044-13.448-1.477.282 1.08.412 2.181.383 3.292l.066.005v.014l4.475.352 16.512 1.35h.001zm-70.942-41.649 7.789 1.782 1.521-1.766 1.623.371-.902 1.909 7.554 1.727 13.86-30.348-7.37-1.686zm-120.072 23.999-16.789-3.653-8.242 3.923 13.787 3.624c-44.243 7.143-70.527-3.191-71.607-2.759l21.425 9.739-14.833-2.217s9.178 17.082 24.801 18.376c22.461 1.871 34.013-6.786 39.709-14.194l-2.482 7.863 7.702-2.907zm94.018 7.743-39.496-8.591-48.676-5.262 18.366 3.629z" fill="#b5d5f0"/><path d="m145.086 13.95c31.417 4.146 48.346 29.96 55.53 44.605-2.073-.462-4.083-.902-5.874-1.27-5.695-1.171-11.315-2.284-16.848-3.339-3.805-12.377-21.572-29.783-21.572-29.783 9.269 5.057 16.244 10.347 21.526 15.495-7.377-16.955-32.762-25.708-32.762-25.708zm150.208 51.325 12.591-27.57-4.7-1.076-21.872 25.446 4.493 1.028 1.522-1.766 4.315.988-.901 1.908zm-3.837-8.722 5.992-6.972-3.451 7.554zm-225.244-14.207c-.882-.02-1.768-.041-2.626-.054-.958-.014-1.892-.022-2.819-.028 7.263 5.728 11.316 13.532 10.107 21.407-1.179 7.683-7.113 13.804-15.432 17.15.74.324 1.49.65 2.252.977.707.303 1.425.608 2.152.914 7.853-4.041 13.362-10.549 14.582-18.495 1.211-7.885-2.032-15.684-8.216-21.871zm85.239 47.953-4.634 14.681 3.875-1.463 5.63-15.346-14.424-3.138-3.728 1.774zm176.771 14.282c-.237 1.346-1.328 3.716-1.299 3.663l21.545 1.515c0 .001-.001.002-.001.002.517-1.022.862-2.181 1.007-3.425.004-.03-.006-.017-.006-.017zm19.926-4.472c-.644-1.028-1.473-1.92-2.455-2.6-6.458-1.355-14.586-2.988-21.321-4.346 1.319 1.469 2.345 3.045 3.033 4.686 5.395.608 13.017 1.435 20.743 2.26zm-.87 11.255-21.412-1.505c-.187.247-.281.416-.486.655l6.248 3.806 5.654-.319 4.475-.031c2.371 0 4.306-.991 5.656-2.594zm2.252-6.73c0-.001 0-.001 0 0l-.004-.001v.001zm-.537-2.738c-.084-.009-.169-.018-.253-.027h-.001c-7.255-.773-15-1.609-20.732-2.258.282 1.08.412 2.181.383 3.292l21.053 1.722h.001l.083.007c-.038-.961-.225-1.877-.534-2.736z" fill="#f78e1e"/><path d="m293.998 57.135-2.542-.582 5.992-6.972zm-129.661 23.735 18.366 3.629 69.805 10.224-39.496-8.591zm122.015-16.107-7.789-1.782 24.076-28.01 7.37 1.686-13.86 30.348-7.554-1.727.902-1.909-1.623-.371zm-.546-1.66 1.522-1.766 4.315.988-.901 1.908 4.552 1.041 12.591-27.57-4.7-1.076-21.872 25.446zm-144.104 20.224 16.789 3.653-6.528 17.794-7.702 2.907 2.482-7.863c-5.696 7.408-17.247 16.064-39.709 14.194-15.623-1.295-24.801-18.376-24.801-18.376l14.833 2.217-21.425-9.739c1.08-.432 27.364 9.902 71.607 2.759l-13.787-3.624zm6.116 13.087 1.571-4.977-1.971-.518c-9.652 10.088-42.785 9.332-42.785 9.332 22.641 5.138 35.981.744 43.185-3.837zm-5.919-11.38-3.728 1.774 13.28 3.491-4.634 14.681 3.875-1.463 5.63-15.346zm213.772 19.945c0 8.615-5.967 15.123-13.898 15.183l-.345.019c-.068.501-.197 1.001-.389 1.489-.968 2.462-3.294 4.066-5.933 4.066-.295 0-.594-.02-.896-.061l-16.786-2.315c-.615-.087-1.204-.257-1.761-.508l-2.083-.943-12.224.76c.728 1.744.807 3.738.148 5.563-.989 2.739-3.498 4.706-6.394 5.01-20.085 2.131-25.224 2.549-27.312 2.549-.192 0-.357-.004-.503-.01-.234.007-.437.01-.613.01-1.007 0-1.574-.101-2.16-.266-1.18-.332-1.952-.645-4.335-2.819-1.367 1.526-3.348 2.437-5.43 2.437-.159 0-.319-.005-.48-.016-23.553-1.376-23.915-1.546-25.441-2.262-1.439-.672-2.224-1.345-5.296-5.536l-74.197 4.186c-2.871.377-7.632.816-14.229.816-7 0-16.51-.937-24.228-2.385-25.371-4.763-40.477-17.528-44.936-37.957-51.682-20.213-62.024-36.966-63.042-38.831-1.486-2.719-.745-6.18 1.724-8.052 1.349-1.02 13.396-9.155 54.255-9.155 3.539 0 7.296.061 11.279.193 4.105-7.514 10.776-14.384 19.432-19.98.586-.379 1.122-.721 1.671-1.054 3.089-1.926 6.385-3.659 9.762-5.128 10.527-4.58 21.934-6.894 33.446-6.894 7.907 0 15.865 1.092 23.617 3.292l.092.025c21.689 5.826 41.67 21.688 53.426 42.425 2.066 3.645 3.819 7.378 5.222 11.113 1.644 1.395 2.819 2.938 3.715 4.113.782 1.025 1.302 1.668 1.699 1.999l29.399-10.207 38.021-30.842c1.135-.918 2.556-1.406 3.989-1.406.495 0 .991.058 1.477.177l31.46 7.641c1.872.454 3.413 1.716 4.228 3.461.815 1.749.792 3.74-.062 5.464l-14.53 29.366c9.023 2.361 16.045 4.69 20.571 6.32 3.777 1.36 6.449 2.457 8.026 3.137 6.803 2.932 6.291 7.799 5.971 9.221l-.105.377c-.471 1.388-1.208 2.457-2.208 3.203.49.257.946.578 1.355.957 3.656 2.86 5.831 7.348 5.831 12.055zm-6.201 1.327c0 .003 0 .006-.001.009.001-.003.002-.006.001-.009zm-253.817-86.185.369.453c.13.151.255.285.374.392 3.117 2.826 6.19 2.508 7.041 2.039 1.536-.847.691 6.349-2.728 5.593.203 1.892-.018 4.295-.724 6.815-.785 2.804-2.006 5.174-3.311 6.675 9.186.753 26.672 2.882 25.573 2.739-1.066-2.556-1.174-6.698-.077-11.168.662-2.695 1.666-5.106 2.831-7.015-.703.261-1.424.5-2.166.713-2.254 1.795-5.016 4.761-7.778 9.673 0 0-1.137-4.505 2.801-8.727-1.331.127-2.725.166-4.198.09-6.537-.337-1.157-8.102-.3-6.173.424.954-.488 3.003 4.45 2.75s23.107-11.16 27.464-8.564c-4.566 1.207-8.538 4.003-12.918 6.596 2.129 1.914 2.756 7.184 1.323 13.022-1.029 4.193-2.883 7.71-4.89 9.693 5.229.737 10.559 1.55 15.996 2.447l.138.025c10.508 1.648 21.551 3.577 32.974 5.756 5.533 1.055 11.153 2.169 16.848 3.339 1.791.368 3.801.808 5.874 1.27 1.444.322 2.917.655 4.372.984 1.033.233 2.063.466 3.077.694-7.544-19.667-26.115-40.37-51.742-47.227-23.655-6.327-45.447-2.052-60.673 7.116zm-19.394 20.773c.207.008.409.015.617.024 4.755.162 9.671.426 14.729.784-.666-1.998-.587-5.191.364-8.585.928-3.314 2.465-6.02 4.029-7.401-1.922.992-4.412 3.009-7.842 7.065 0 0-.29-4.828 5.244-7.597.812-.407 1.528-.691 2.174-.899-.56-.694-1.089-1.429-1.592-2.192l-.002.001-.444-.638c-8.148 5.37-14.182 12.179-17.277 19.438zm271.157 70.479c.002-.003.004-.006.007-.009-.003.003-.005.006-.007.009l-21.508-1.511c.018-.023.037-.045.055-.068l.955-1.459c.017-.029.032-.059.048-.089l20.249 1.423 1.252.087c.519-1.026.86-2.189 1.002-3.438l-21.18-1.732c0-.002.001-.004.001-.006l.166-1.657c0-.005 0-.009 0-.014l20.67 1.69.406.031c-.038-.957-.212-1.876-.518-2.732-.278-.03-.562-.06-.841-.09l-.024-.002c-7.062-.753-14.517-1.559-20.089-2.189l-.577-1.688c-.011-.026-.025-.051-.036-.076 5.299.598 12.731 1.404 20.299 2.213l.393.03c-.643-1.022-1.468-1.91-2.446-2.587-6.458-1.355-14.586-2.988-21.321-4.346 0 0-5.437-.983-8.165-1.534-1.954-.395-4.04-.816-6.263-1.264-1.717.181-3.356.083-4.893-.236l-34.46 6.13c-.13.024-.262.035-.393.035-.107 0-.215-.008-.321-.023l-3.61-.55 37.069-6.69 23.272-4.2c-.383-.047-.774-.099-1.168-.153-.073-.01-.146-.02-.219-.03-.381-.053-.767-.108-1.158-.167-.075-.011-.15-.023-.225-.034-.403-.061-.81-.124-1.222-.19-.004-.001-.007-.001-.011-.002-.418-.068-.842-.138-1.268-.211-.075-.013-.15-.026-.226-.038-.414-.071-.831-.145-1.251-.22-.072-.013-.144-.026-.216-.039-.878-.159-1.769-.328-2.668-.504-.07-.014-.139-.027-.209-.041-.443-.087-.887-.176-1.333-.267-.057-.012-.114-.023-.171-.035-.932-.19-1.87-.387-2.81-.59-.05-.011-.1-.022-.151-.032-.468-.101-.937-.204-1.405-.307-.035-.008-.07-.016-.105-.023-.969-.215-1.938-.435-2.901-.657-.026-.006-.051-.012-.077-.018-.487-.113-.972-.226-1.456-.34-.005-.001-.011-.003-.016-.004-.989-.233-1.969-.469-2.937-.705-.001 0-.002 0-.003-.001-9.574-2.337-17.831-4.715-19.724-5.266-.008-.002-.017-.005-.025-.007-.009-.003-.015-.004-.024-.007-.044-.013-.083-.024-.119-.035-.011-.003-.023-.007-.034-.01-.003-.001-.005-.001-.008-.002-.021-.006-.039-.011-.057-.017-.016-.005-.032-.009-.045-.013-.026-.008-.046-.013-.061-.018-.022-.006-.038-.011-.038-.011s.016.003.041.008c.007.001.013.003.023.004.095.018.303.059.618.12.071.014.147.029.23.045l.015.003c.009.002.017.003.026.005.034.007.071.014.108.021.069.013.137.027.212.041.008.002.015.003.024.005.013.003.027.005.041.008.147.029.305.06.474.092.031.006.061.012.093.018.057.011.113.022.172.034.035.007.072.014.108.021.428.083.911.178 1.445.283.017.003.034.007.051.01.019.004.038.007.056.011.167.033.338.066.513.101.001 0 .003 0 .004.001.035.007.071.014.107.021.012.002.024.005.036.007.181.035.366.072.556.109.002 0 .004.001.006.001.01.002.021.004.031.006.207.041.419.082.637.125.023.005.046.009.07.014 1.932.38 4.252.838 6.798 1.344.04.008.079.016.119.024.303.06.61.121.919.183.001 0 .002 0 .003.001 2.276.454 4.705.941 7.182 1.443.004.001.007.001.011.002.012.002.024.005.036.007 2.759.559 5.574 1.135 8.295 1.701.049.01.098.02.147.031.222.046.442.092.662.138.095.02.19.04.285.059.212.044.422.088.632.132.096.02.193.04.288.06.202.042.402.084.603.127.106.022.213.045.319.067.195.041.388.082.581.123.107.023.214.045.32.068.179.038.357.076.535.113.126.027.253.054.378.08.159.034.317.068.475.101.138.029.276.059.413.088.147.031.293.063.438.094.142.03.284.061.424.091.145.031.288.062.431.093.137.03.274.059.41.089.147.032.292.063.437.095.128.028.256.056.382.083.138.03.276.06.412.09.138.03.276.06.412.09.128.028.254.056.38.084.134.03.267.059.399.088.124.027.247.055.37.082.131.029.261.058.391.087.122.027.243.054.363.081.123.028.244.055.364.082.119.027.237.054.354.08.126.029.249.057.372.085.106.024.212.048.315.072.125.029.248.057.37.085.101.023.202.047.301.07.118.027.233.054.347.081.097.023.194.045.289.068.114.027.223.053.334.079.093.022.186.044.277.066.106.025.208.05.31.075.088.021.178.043.264.064.101.025.197.048.294.072.082.02.167.041.246.061.102.025.198.05.296.074.069.017.14.035.207.052.106.027.206.053.307.079.053.014.11.028.162.042.15.039.293.077.43.114l.2-.036c8.748 1.907 14.819 3.028 14.939 2.496.001-.003-.002-.007-.009-.013-.002-.002-.006-.004-.008-.006-.006-.005-.012-.01-.021-.016-.006-.004-.014-.009-.021-.014-.009-.006-.017-.011-.028-.018-.01-.006-.023-.013-.035-.02s-.022-.013-.035-.02c-.015-.008-.034-.018-.051-.028-.013-.007-.025-.014-.039-.021-.02-.011-.043-.023-.066-.034-.015-.008-.029-.015-.045-.023-.025-.013-.053-.027-.081-.041-.016-.008-.032-.016-.049-.025-.032-.016-.067-.033-.102-.05-.016-.008-.031-.015-.048-.023-.039-.019-.082-.039-.125-.06-.015-.007-.029-.014-.045-.021-.042-.02-.087-.041-.132-.062-.021-.01-.04-.019-.061-.029-.046-.022-.095-.044-.144-.067-.022-.01-.042-.02-.065-.03-.051-.023-.104-.048-.158-.073-.024-.011-.047-.022-.072-.033-.055-.025-.113-.051-.172-.078-.026-.012-.051-.023-.077-.035-.065-.029-.133-.059-.201-.09-.021-.009-.041-.018-.061-.027-.072-.032-.147-.065-.223-.098-.022-.01-.044-.019-.066-.029-.079-.034-.16-.07-.243-.106-.02-.009-.04-.017-.06-.026-.087-.037-.176-.076-.267-.115-.019-.008-.038-.016-.057-.024-.095-.041-.192-.082-.292-.124-.017-.007-.033-.014-.05-.021-.102-.043-.206-.087-.312-.131-.017-.007-.033-.014-.05-.021-.107-.044-.216-.09-.327-.136-.019-.008-.039-.016-.058-.024-.112-.046-.226-.093-.342-.141-.019-.008-.038-.015-.057-.023-.118-.048-.238-.097-.36-.147-.02-.008-.039-.016-.059-.024-.126-.051-.254-.102-.384-.154-.016-.007-.032-.013-.049-.02-.133-.053-.27-.108-.408-.162-.016-.006-.031-.012-.047-.018-.14-.055-.282-.111-.427-.168-.016-.006-.031-.012-.047-.018-.145-.057-.293-.114-.443-.173-.016-.006-.033-.013-.05-.019-.154-.059-.31-.12-.468-.18-.011-.004-.023-.009-.034-.013-.162-.062-.327-.125-.494-.188-.011-.004-.022-.008-.033-.013-.169-.064-.341-.129-.515-.194-.01-.004-.02-.007-.029-.011-.174-.065-.351-.131-.531-.198-.013-.005-.025-.009-.038-.014-.182-.067-.366-.135-.553-.204-.005-.002-.011-.004-.016-.006-.192-.07-.387-.142-.585-.213-.004-.001-.008-.003-.012-.005-.2-.072-.402-.146-.608-.219-.001 0-.003-.001-.004-.001-6.466-2.319-15.752-5.246-27.437-7.953 0 0-.001 0-.002 0-.466-.108-.934-.215-1.407-.323-22.198-5.024-40.99-5.575-40.99-5.575s7.886 1.986 18.718 4.651l-41.489 3.145-35.265 2.673-78.591-5.433c-.164-.235-.249-.505-.219-.81.121-1.198 79.688 3.029 79.688 3.029l62.653-4.749c-3.178-.793-5.086-1.273-5.146-1.288-1.112-.28-1.835-1.352-1.678-2.488.159-1.136 1.158-1.971 2.292-1.938.191.005 19.266.615 41.421 5.629.524.119 1.041.238 1.555.357l16.589-33.528-30.566-7.423-37.678 30.564 11.478 2.909-13.849-1.589-30.321 10.525c-.639-.129-1.281-.259-1.927-.389-5.854-1.182-6.113-8.325-12.532-9.621-5.606-1.206-12.712-2.895-18.008-3.983-18.299-3.761-34.816-6.739-49.746-9.081-.043-.007-.086-.017-.129-.024-27.473-4.535-49.746-6.608-67.64-7.218-2.501-.106-4.883-.176-7.206-.228-.882-.02-1.768-.041-2.626-.054-.958-.014-1.892-.022-2.819-.028 7.263 5.728 11.316 13.532 10.107 21.407-1.179 7.683-7.113 13.804-15.432 17.15.74.324 1.49.65 2.252.977.707.303 1.425.608 2.152.914 3.856 1.622 7.986 3.275 12.421 4.954 6.742 46.297 76.412 36.858 76.412 36.858l102.712-5.795c-2.197-2.245-4.761-4.876-7.764-7.97-1.175-1.21-1.45-3.034-.685-4.538.025-.049.059-.092.086-.14.001-.004-.004-.012-.002-.015.766-1.503 2.851-2.734 4.523-2.496l18.983 3.896-18.052-1.725c-.743-.107-1.469.272-1.809.94s-.218 1.478.305 2.015c3.854 3.969 6.976 7.166 9.512 9.745 5.859 5.957 8.585 8.61 9.932 9.814 0 0 .001.001.001.001.224.2.409.36.564.488.001.001.002.002.003.003.101.084.19.154.268.213.002.002.005.003.007.005.077.058.144.106.202.145.001.001.002.002.004.003.028.019.055.035.079.05.002.002.005.003.007.004.048.029.09.051.127.069.003.001.005.003.008.004.018.008.035.016.051.022.001 0 .002.001.003.001.015.006.029.011.043.016.002.001.004.002.007.002.014.005.028.009.041.013.003.001.006.002.008.003.013.004.025.007.038.011.091.025.196.055.588.055 1.379 0 6.31-.362 26.677-2.522.667-.071 1.235-.516 1.463-1.148.228-.631.076-1.337-.393-1.817l-12.394-12.733c-.025-.026-.085-.068-.173-.123.592.186 1.127.417 1.388.686l.565.522c.004.004.012.008.016.013l4.646 4.294 18.161-1.025-28.851-13.051c-1.247-.564-1.874-1.972-1.458-3.275.077-.242 1.654-.159 4.123.131l34.286 15.51 1.177.162 15.602 2.152-17.305-12.136 4.949 2.923 4.429 2.588 6.248 3.806 5.654-.319 4.475-.031c2.377-.009 4.312-1.001 5.663-2.605z" fill="#00539b"/></svg>