<svg xmlns:xlink="http://www.w3.org/1999/xlink" xmlns="http://www.w3.org/2000/svg" viewBox="0 0 54.7 82.7" width="54.7"  height="82.7" ><path d="M33 79.3h-.8v-.4h2v.4h-.8v2H33v-2zm1.7-.4h.7l.7 1.8.7-1.8h.7v2.4H37v-2l-.7 2H36l-.7-2v2h-.5l-.1-2.4z" fill="#231f20"/><path d="M11.3 37.4c-1.1 1.2-1.6 2.7-1.6 4.3C6.2 44.4 0 51.4 0 66.9c0 .1.5 10.5 4.5 13.8 4.7 3.8 16.8 1.9 24.8-2.2 11.9-6.1 19.8-17 22.8-31.4.9-4.4 1.3-8.8 1.3-13.3 0-1.8-.1-3.2-.2-4.4.4-.4.8-.9 1-1.5.2-.5.3-.9.3-1.4 0-.5-.1-.9-.2-1.4l-.1-.5v-.4C54 16.3 51 10.3 45.4 6.3c-.1-.6-.2-1.2-.5-1.8-.9-1.9-2.6-3.3-4.6-4-2.4-.9-5-.5-7 1.1-7.7-.7-15.1 3.3-18.6 10.2-.6-.1-1.2-.2-1.9-.3C8.2 11.1 1 14 .1 20.4c-.4 2.5.3 5 1.8 7 1.6 1.8 3.8 2.8 6.2 2.7 1.2 0 2.4-.3 3.4-.8.1.2.2.5.3.7-.7 1.4-1.1 3-1.1 4.6.1.9.3 1.9.6 2.8z" fill="#c9cacc"/><path d="M51.4 25.1c-.2-1.2.7-11.4-9-17.3.6-1.7-.8-3.7-3-4.5-1.8-.8-3.8-.2-4.9 1.4-7.6-1.3-15.1 2.9-17.9 10.1l-1.6.1c-.8-.2-1.5-.3-2.3-.4-3.2-.3-8.9 1.7-9.5 6.3-.3 2 .1 6.2 5.2 6.3 1.3 0 2.6-.5 3.6-1.4.8-.6 1.6-1.1 2.5-1.5-.4 1.2-.9 3.6.7 5.2.4.4.1 1-.2 1.3-.5.7-2.7 4.8.5 7.7 0 0-3.5.3-2.6 4.4l.1.3C9 45.3 3 52 3 66.9c0 1.5 1 9.5 3.4 11.5C9.6 81 20.2 79.8 28 75.8c27.1-13.9 22.2-48.3 22.2-48.3.6.2 1.2-.1 1.5-.7.1-.4-.1-.8-.3-1.7z" fill="#231f20"/><path d="M36.9 5.2l-.5-.2c.8-.6 1.8-.7 2.7-.3 1 .2 1.7 1.1 1.8 2.1-1.4-.6-2.7-1.1-4-1.6z" fill="#b30838"/><path d="M28.8 30.2c-1-.2-1.9-.7-2.5-1.5.8 0 1.7-.1 2.5-.3.7.8 1.9 1 2.9.5 1-.3 1.7-1.2 1.8-2.2.5-.2 1.1-.4 1.6-.5-.2 2.6-3.7 4.5-6.3 4z" fill="#fff"/><path d="M11.6 17.6c-1.6 0-4.6.6-5.8 2.9-.4 1-.4 2.1 0 3.1.1.4.2.7-.1.8-.2 0-.4 0-.6-.5-.3-.6-2.3-5 3.9-7.2 3.8-1.3 8.1-.2 10.7 2.8.4.4 2.9 5.2 5.9 4.5.8-.2.9-.3.9-.4s-.2-.2-.6-.3-2.6-.9-4.5-4.2c-.6-1-1.5-1.9-2.5-2.6 1.9-.3 3.9-.5 5.9-.6 2.4.4 4.7 1.4 6.6 2.9 1.5 1.1 3.1 2.2 4.7 3.1 0 0-6.9 2.7-7.9 3s-5.5 2.3-8.5-2.6c-1.6-3-4.7-4.8-8.1-4.7z" fill="#b30838"/><path d="M16.5 25.7s-.9 3.4 3.2 3.7c-.1-.3 0-.6.1-.8 0 0-2-.1-2-1.6l-1.3-1.3z" fill="#fff"/><path d="M25.3 48.5c.8-.5 1.9-3.2 1.3-4.1-.4-.5-1.4-1.1-4.5 0-.9.3-1.8 0-2.3-.8-.4-.9-1.2-2.4.3-3 1.2-.5 2.3-1 7.4 0 .6.1 5 1.2 6.9-2.3.7-1.3.8-2.9.3-4.4.4.3.7.8.9 1.2.2.5.3 1.1.3 1.7 0 .4-.2 1.2.6 1.2.4 0 1-.2.8-1.4-.1-.9-.8-4.4-4.4-4.1-.5 0-1.2.4-1.1.7s.3.2.8.1c.3-.1.7-.1 1 0 .5 1.5.1 3.2-.9 4.4-1.2 1.5-3.2 2.2-5.1 1.8-1.5-.2-3-.4-4.5-.5-.4 0-1.2-.1-1-1.6 0-.2 0-.6.6-.3 1.5.6 3.6.8 4.5-.1.5-.4.7-.9.5-1.5-.1-.6-.5-1.2-1-1.5-.6-.4-1.2-.6-1.9-.7-.2 0-.4.2-.2.4s.4.3.7.4.9.4 1.1.8-.3 1.1-.9 1.2c-.5.1-1 0-1.5-.2s-1.7-1-1.9-.9-.9 1.6-2.3 1.8c-.8.1-2.6.3-3.1-1.7-.3-1.2.9-3.2 3.6-3.7.6-.1 1.3-.2 2-.1.2 0 .6.1.7-.1s-.2-.5-.7-.7c-.4-.1-1.6-.4-1-2.2.1-.4.4-.7.7-1 .8.4 1.6.7 2.5.9 1.1 1.6 2.7 2.7 4.6 3 3.8.6 8.7-2.6 8.4-6.1 2.1-.6 6.2.1 7.1.4s3.1.9 3.1.9 4.1 37.8-25.9 49.1c-.4.2-.8.1-.9-.2 0-.1 0-.5.9-.9 22.9-10.9 23.1-39.1 23-45.6 0-.7-.6-1.2-1.3-1.2-.2 0-.4.1-.6.2-.9.7-1 1.5-1.2 3C41.2 41.3 38.2 68 15.3 75c-.7.2-3.4.6-4.9-.1-1.9-.9-5.8-15.8 2.1-26.6.8-1 4-3.3 10.6-2 .4.1.7.3.9.7.3 1 .2 2.2 1.3 1.5z" fill="#bb813b"/><ellipse transform="rotate(-22.898 19.49 33.47)" cx="19.5" cy="33.5" rx="1.5" ry=".7" fill="#fff"/><path d="M33.3 44.9c-1.8 9.3-6.2 18-12.7 24.9-.5.5-.6.7-.6.7s.3.3.6.1C29.4 64 35 54.2 36.3 43.4c.1-.7-.7-1.4-1.2-1.1-.9.6-1.6 1.5-1.8 2.6zm-8.7 8c-2.4 6.5-5.5 12.7-9.3 18.5-.3.4-.1.8 0 .8s.5 0 .6-.2c4.2-4.8 9.2-10.9 11.8-20.6.2-1.2-1.5-1-1.8-.9-.8.5-.9 1.5-1.3 2.4zm-9.3-.7c-3.5 7.6-4.2 11.4-4.8 17.2-.1.6-.2.7-.3.7-.2 0-.4-.2-.4-.5-.5-6.6-.4-10.6 3.5-18 .6-.9 1.7-1.3 2.7-1.1.1.1 0 .3-.7 1.7zm5.8-.6c-3.2 8.9-6 15.4-8.4 21.3-.2.6-.7.6-.7.6-.3-.1-.4-.5-.3-.8 1.7-7.3 4.1-14.4 6.9-21.3.6-1.3 1.3-1.4 2-1.2.2 0 .9 0 .5 1.4z" fill="#231f20"/><path d="M48.8 24.3s.6-7.7-3.8-12.3c-.4-.4-.5-.4-.5-.3s.2.6.3.8c1.7 3.3 1.9 7.2.5 10.6 1.1.6 2.3.9 3.5 1.2z" fill="#b30838"/><path d="M37.4 6.9c-.6-.2-1.2-.3-1.7-.5-1.7.2-3.4.7-5 1.5.3-.8.9-1.5 1.6-2-8.7-.3-12.3 6.3-13.3 8.7 2.4-.1 4.9-.3 5.8-.3.8 0 1.5.1 2.2.3.2-.4.6-.7.9-1v1.3c1.7.6 3.2 1.4 4.6 2.4 3.2 2.4 6.8 4.2 10.7 5.2 3.9-9-3-14.7-5.8-15.6z" fill="#b30838"/><path d="M31.9 8.2l-2.5 2.1.1-2.2c-.6-.1-2.8-.1-2.8-.1l-.6.9h.8l-2.2 3.4H24l-.6.7c1 0 2 .2 3 .4l.6-.8-.7-.1L28 9.9l-.2 3.1.6.1 3.7-3-1.8 3.1-.8-.2-.6.9s2.3.6 3 .9l.6-1.1-.8-.2 2.2-4 .8.1.5-1c-1-.2-2.2-.4-3.3-.4z" fill="#fff"/></svg>