<svg xmlns:xlink="http://www.w3.org/1999/xlink" xmlns="http://www.w3.org/2000/svg" enable-background="new 0 0 70 80.4" viewBox="0 0 70 80.4" width="70"  height="80.4" ><path d="m55.5 57.6c-.7-.2-2.1-1.9-3.2-3.4 4.1-5.4 7.3-11.5 9.2-18 1-3.3 1.5-6.7 1.4-10.2.1-3.8-.9-7.6-3-10.8-2.1-3.3-6.7-8-16.4-10.2-8.4-7.6-15.5-5.1-18.2-1.7-8.1 10-17.7 28.3-15.3 46.6l.3 1.9-.8.6c.7 12.8 6 16.4 7.2 17.4 6.5 4.7 14.2 3 19.5.8 2 3.8 5.4 6.7 9.4 8.3 4.7 1.4 9.8-.2 12.9-4.1 1.1-1.4 3.8-5 3.8-8.8-.1-2.7-.8-5.3-2.2-7.7z" fill="#cfab7a"/><path d="m55.2 59.8c-1.9-.3-4-3.3-5.7-5.7v-.1l.3-.4c4.4-5.3 7.6-11.4 9.6-18 1-3.2 1.4-6.4 1.4-9.7.1-3.4-.8-6.7-2.6-9.6-2-3-7.4-7.8-15.7-9.1-7.8-7-13-5.1-15.1-2.4-8 9.5-17.8 27.9-14.3 48l-1.2 1c1.1 9.2 3.4 12 6.1 14.2 6.8 4.8 14 2.1 19.1-.4 1.7 3.2 4.2 7.3 9.1 9.1 3.9 1.1 8-.3 10.5-3.5 1.4-1.7 5.2-6.6 1.5-12.9zm-24.9-11.4-.5 1-.1.2-.2.3c-.2.3-.5.7-.8 1.1-.3.4-.7.9-1.1 1.3l-.3-1.3c-.1-.7-.2-1.3-.2-2 0-.9.1-1.8.1-2.4.3-1.5.6-3 .9-4.5l2.3 6z" fill="#231f20"/><path d="m39.9 25c.6-2.6 1-5.3 1.1-7.9 0-.7-.8-.5-1.1-.1-3.5 3.4-6.4 7.3-8.8 11.6.2 0 2.9-.9 4.3 2.9 1.3-2.3 2.9-4.5 4.5-6.5z" fill="#004b8d"/><path d="m35.6 62c-.3-.7-.7-1.3-1-1.8-4.9 2.5-11.6 5.9-18.1 2 .8 1.5 1.8 2.8 3.1 3.8 5.4 4.2 12.7 1.3 17.6-1.2-.6-.9-1.2-1.9-1.6-2.8z" fill="#004b8d"/><path d="m49.1 20.2-3.7.1 2.9-1.4 3.2.1c-.2-1.4-.8-2.7-1.5-3.8-1.6-2.2-3.8-3.9-6.3-4.9-7.8-2.1-12.5 6.7-15.6 11.6-1.1 2.4-3.5 6.5-1.7 7.6.4.2.9 0 1.2-.4 6.1-11.6 12-16.7 14.2-16.4 1 0 1.8.7 1.9 1.7 1 7.6-2.7 19.8-7 24.8l-4-6.8c-.5-.9-1.2-1.3-1.7-.9-1.2 1.3-1.7 3-1.4 4.7l3.4 9 3.3 1.4 3.1-.6 3.5-.7c3.5-4.6 6.1-9.7 7.8-15.2.9-2.8 1.3-5.8 1.2-8.8z" fill="#fff"/><path d="m50.7 61c-4.8-.8-8.4-6.8-11.1-10.8l-1.3.2-2.8.4-2.8-1.2c-2.6 5-6.8 9-11.8 8-1.5-.7-2.8-2.4-3.5-4.7l-1 .7-1.7 1.4c.3 1.8 1.3 3.4 2.8 4.5 5.9 3.8 12.3-.3 17.6-2.9.3-.1.8.4 1.1 1 .9 1.3 1.7 2.8 2.5 4.3l3.1-.5 5 1.4-5.1.5-1.4 1c1 1.4 2.4 2.5 4 3.2 1.5.4 3.2-.1 4.2-1.3 1-1.1 3-3.1 2.2-5.2z" fill="#fff"/><g fill="#004b8d"><path d="m51.8 69.8 4.5-.5c1.3-2 1.3-4.6.1-6.6l-1.6-.3c-.4-.1-.7-.2-1.1-.3 0 2-1.8 4.6-3.2 6.1-1.8 2-4.5 2.8-7.1 2-1-.3-1.9-.8-2.8-1.5 1.4 2.5 3.7 4.5 6.4 5.6 2.7.8 5.4.1 7.8-3z"/><path d="m42.5 49.7 1.3 1.9c.3.5.7 1 1.1 1.5l2 .2 1-1.2.3-.4z"/><path d="m56 17.9c-.9-1.3-1.9-2.4-3.2-3.4 1.2 2.3 1.8 4.8 1.7 7.4.1 3-.4 6-1.2 8.8-1.7 5.6-4.3 10.9-7.8 15.6l5.1 2c2.7-4.2 4.8-8.7 6.3-13.5.8-2.9 1.3-5.8 1.3-8.8.1-2.9-.7-5.7-2.2-8.1z"/><path d="m19.9 52 .3.7c.4.9.9 1.7 1.7 2.3 1.2.1 2.4-.2 3.4-.8l-.3-1.4z"/><path d="m26.8 36.4c0-.4-.1-.8-.1-1.2 0-.9.1-1.8.4-2.7-1 .5-2.3.1-2.8-.9-.1-.1-.1-.3-.2-.5-1.4 3.6-2.4 7.2-3.1 11-.1.9-.1 1.9-.1 2.8s.1 1.7.2 2.6l.1.7 3.2.9c0-.9.1-1.9.1-2.8.5-3.1 1.3-6.2 2.3-9.1l-.1-.4z"/></g><path d="m34.7 5.8c-1.7-.9-3.8-.5-5.2.9-4.5 5.3-8 11.4-10.5 18l1.5-.1 1.9 1.2-2.3.2-1.9 1c-2.4 6.6-3.5 13.6-3 20.6l3-1c-.1-1.6-.1-3.2.1-4.8 2.2-13.1 8.7-24.4 16.5-34.8.3-.3.3-.8 0-1.2z" fill="#fff"/><path d="m4.4 38.4 1.4.1c-.5-12.5 7.4-25.9 7.4-26l-2.2-1.3c-.3.6-7.2 14-6.6 27.2z" fill="#cfab7a"/><path d="m.2 34.3 1.2-.2c-.6-4 1.3-11.6 1.3-11.6l-2-.4c-.1.2-1.1 7.9-.5 12.2z" fill="#cfab7a"/><path d="m62 56.3-.7-1c3.1-2.5 7-9.3 7-9.4l1.7 1c-.2.4-4.6 6.7-8 9.4z" fill="#cfab7a"/><path d="m58.8 51.8 1 .7c4.6-5 7.8-11.2 9.2-17.9l-2.2-.5c-1.5 6.4-4.2 12.4-8 17.7z" fill="#cfab7a"/><path d="m61.2 78.2h-.8v2.2h-.5v-2.2h-.9v-.5h2.2zm3.6 2.2h-.6v-2.2l-.8 2.2h-.4l-.8-2.2v2.2h-.5v-2.7h1l.6 1.8.7-1.8h1z" fill="#004b8d"/></svg>