<svg xmlns:xlink="http://www.w3.org/1999/xlink" xmlns="http://www.w3.org/2000/svg" viewBox="0 0 68.057 72" width="68.057"  height="72" ><g data-name="Layer 2"><path d="M57.384 35.269c-6.228-4.452-6.519-5.766-6.514-6.929.192-2.219 3.316-2.381 4.027-2.384 1.825 0 2.838.824 3.053 1.438.209.6-.179 2.455-3.705 2.908.883 2.993 4.346 3.01 5.092 3.03a9.685 9.685 0 0 0 5.751-1.481 6.34 6.34 0 0 0 2.267-8.263C66.05 20.924 61.942 17.755 56 17.1a22.306 22.306 0 0 0-1.5-.1c-3.214-.086-13.861.4-16.026 10.279-.677 3.091.154 8.824 7.312 13.7 7.977 5.432 8.746 9.824 7.858 13.047-.465 1.678-3.706 6.23-10.047 6.06a14.033 14.033 0 0 1-1.778-.163 9.764 9.764 0 0 1-6.239-3.844 3.111 3.111 0 0 1-.54-2.328c.562-3.033 3.9-3.539 5.14-3.506a7.708 7.708 0 0 1 .97.088 6.245 6.245 0 0 1 5.645 5.133c4.694-1.4 3.86-6.265 2.875-8.1-1.357-2.523-4.5-4.5-8.014-5.037a22.458 22.458 0 0 0-2.741-.25 18.256 18.256 0 0 0-7.258 1.207 2.918 2.918 0 0 1-.889-2.914v-.008l10.41-26.821q1.489.315 3.046.678a46.517 46.517 0 0 0 9.441 1.179c5.688.094 9.725-1.075 12-3.477a7.447 7.447 0 0 0 1.995-5.651C67.49 2.872 64.338.056 60.639 0a5.74 5.74 0 0 0-5.872 4.041c1.454-.012 1.861.683 1.713 1.216-.169.451-.708.909-3.452.866A65.91 65.91 0 0 1 42.27 4.675a115.109 115.109 0 0 0-20.257-2.511C14.626 2.044 9.9 2.628 5.7 5.5A13.379 13.379 0 0 0 .031 15.595a11.692 11.692 0 0 0 3.249 8.969 12.228 12.228 0 0 0 8.657 3.754c3.284.037 9.006-1.3 10.4-6.883a6.369 6.369 0 0 0-3.78-7.68A3.335 3.335 0 0 1 15.81 17.6a2.155 2.155 0 0 1-2.523-1.9 3.2 3.2 0 0 1 1.684-2.43l.083-.059c1.881-1.287 5.169-1.9 9.775-1.828q1.736.028 3.68.191L17.4 40.226c-1.124 2.709-4.213 5.434-11.846 9.742h18.569a12.362 12.362 0 0 0 .8 12.756c2.943 4.545 8.51 7.939 14.533 8.859a35.544 35.544 0 0 0 4.428.405c13.188.355 21.43-7.56 23.5-15.064 1.93-6.976-1.464-15.555-10-21.655z" fill="#e31837"/><path d="M54.516 35.937c-6.088-4.236-6.021-7.067-5.839-8.062.7-3.815 5.162-4.4 7.242-4.076a5.125 5.125 0 0 1 4.019 2.532 3.405 3.405 0 0 1-2.215 4.569c1.052.264 4.116.5 6.082-.881a4.1 4.1 0 0 0 1.544-5.451c-.83-1.694-4.029-4.635-9.594-5.25-1.962-.215-13.08-.77-15.1 8.443-.5 2.283-.076 6.9 6.844 11.7 8.667 6.006 9.353 11.33 8.294 15.166-.774 2.807-5.521 8.857-14.313 7.512-4.562-.7-9.575-4.882-8.594-8.974.915-3.821 4.62-5.642 8.6-5.034 2.131.326 5.385 1.584 6.3 4.16 1.81-3.926-2.351-7.116-6.464-7.744a16.292 16.292 0 0 0-10.109 1.432c-1.738-1.471-3.541-3.75-2.528-6.4l11.1-28.614c1.547.306 3.18.656 4.911 1.059C52.49 13.837 65.85 14.4 65.446 6.36c-.156-3.168-4.712-5.551-7.787-3.1a2.343 2.343 0 0 1 1.023 3.329c-1.3 1.765-4.063 2.8-16.808.292-23.867-4.7-30.488-2.3-34.824.421a10.236 10.236 0 0 0-2.185 15.711 10.286 10.286 0 0 0 12.681 1.563c2.4-1.4 3.657-4.937 2.091-7.4a4.451 4.451 0 0 1-3.108 2.58 5.191 5.191 0 0 1-4.551-1.5c-1.461-1.46-1.374-4.749 1.747-6.866.948-.642 4.555-3.382 17.933-1.754L19.475 41.054a14.215 14.215 0 0 1-6.565 6.682h15.747a10.924 10.924 0 0 0-3.329 5.227c-2.2 7.971 5.874 15.1 14.467 16.414 15.056 2.3 23.509-6.033 25.437-13.046 2.368-8.619-4.593-16.137-10.716-20.394zm8.149 34.143h-.011l-.519-1.465h-.793v2.243h.456v-1.786h.011l.629 1.786h.443l.649-1.786h.012v1.786h.455v-2.243h-.786l-.546 1.465zm-3.546-1.066h.675v1.844h.46v-1.844h.675v-.399h-1.81v.399z" fill="#005596"/></g></svg>